<svg xmlns="http://www.w3.org/2000/svg" xmlns:xlink="http://www.w3.org/1999/xlink"  version="1.1" width="512" height="512" x="0" y="0" viewBox="0 0 512 512" style="enable-background:new 0 0 512 512" xml:space="preserve" class=""><g><linearGradient id="a" x1="0" x2="512" y1="-16658" y2="-16658" gradientTransform="matrix(1 0 0 -1 0 -16402)" gradientUnits="userSpaceOnUse"><stop stop-opacity="1" stop-color="#bff1fd" offset="0"/><stop stop-opacity="1" stop-color="#fbcffb" offset="1"/></linearGradient><path fill="url(#a)" d="M512 256c0 141.387-114.613 256-256 256S0 397.387 0 256 114.613 0 256 0s256 114.613 256 256zm0 0" data-original="url(#a)" class=""/><g fill="#fff"><path d="M256 56c-8.285 0-15 6.715-15 15s6.715 15 15 15c93.738 0 170 76.262 170 170s-76.262 170-170 170S86 349.738 86 256c0-8.285-6.715-15-15-15s-15 6.715-15 15c0 110.281 89.719 200 200 200s200-89.719 200-200S366.281 56 256 56zM175.07 104.285c1.914 0 3.856-.367 5.735-1.144l20.277-8.399c7.652-3.172 11.29-11.945 8.117-19.601-3.168-7.653-11.945-11.286-19.597-8.118l-20.278 8.399c-7.652 3.172-11.289 11.945-8.12 19.601 2.394 5.778 7.98 9.262 13.866 9.262zM117.426 147.945c3.84 0 7.676-1.465 10.605-4.394l15.52-15.52c5.86-5.86 5.86-15.355 0-21.215-5.856-5.855-15.356-5.855-21.211 0l-15.524 15.524c-5.855 5.855-5.855 15.351 0 21.21a14.957 14.957 0 0 0 10.61 4.395zM75.145 209.2a14.95 14.95 0 0 0 5.734 1.148c5.883 0 11.469-3.489 13.863-9.266l8.399-20.277c3.168-7.653-.465-16.43-8.118-19.598-7.656-3.172-16.43.465-19.601 8.117l-8.399 20.278c-3.168 7.656.465 16.43 8.122 19.597zm0 0" fill="#564f55" data-original="#ffffff"/><path d="M256 178.29c-8.285 0-15 6.714-15 15V241h-47.71c-8.286 0-15 6.715-15 15s6.714 15 15 15H241v47.71c0 8.286 6.715 15 15 15s15-6.714 15-15V271h47.71c8.286 0 15-6.715 15-15s-6.714-15-15-15H271v-47.71c0-8.286-6.715-15-15-15zm0 0" fill="#564f55" data-original="#ffffff"/></g></g></svg>