<svg xmlns="http://www.w3.org/2000/svg" xmlns:xlink="http://www.w3.org/1999/xlink"  version="1.1" width="512" height="512" x="0" y="0" viewBox="0 0 64 64" style="enable-background:new 0 0 512 512" xml:space="preserve"><g><linearGradient id="a" x1="32" x2="32" y1="63" y2="1" gradientUnits="userSpaceOnUse"><stop offset="0" stop-color="#9f2fff"/><stop offset="1" stop-color="#0bb1d3"/></linearGradient><path fill="url(#a)" d="M25 49v2c2.206 0 4-1.794 4-4s-1.794-4-4-4-4 1.794-4 4v2c0 3.309 2.691 6 6 6s6-2.691 6-6V38h2c4.411 0 8-3.589 8-8s-3.589-8-8-8a3.97 3.97 0 0 0-2 .537v-3.908l6.946-8.931A5.021 5.021 0 0 0 41 6.627V6c0-2.757-2.243-5-5-5s-5 2.243-5 5v11.942l-3.334 4.287A12.722 12.722 0 0 0 25 30c0 3.721 2.553 6.856 6 7.747V49c0 2.206-1.794 4-4 4s-4-1.794-4-4v-2c0-1.103.897-2 2-2s2 .897 2 2-.897 2-2 2zm8-43c0-1.654 1.346-3 3-3s3 1.346 3 3v.627c0 .664-.225 1.318-.632 1.842L33 15.371zm0 23.463A3.97 3.97 0 0 0 35 30c2.206 0 4-1.794 4-4h-2c0 1.103-.897 2-2 2s-2-.897-2-2 .897-2 2-2c3.309 0 6 2.691 6 6s-2.691 6-6 6h-2zM27 30c0-2.358.797-4.682 2.245-6.543L31 21.2v14.457A6.01 6.01 0 0 1 27 30zm20 27.184A2.966 2.966 0 0 0 46 57c-1.654 0-3 1.346-3 3s1.346 3 3 3 3-1.346 3-3V49h12v8.184A2.966 2.966 0 0 0 60 57c-1.654 0-3 1.346-3 3s1.346 3 3 3 3-1.346 3-3V43H47zM46 61a1.001 1.001 0 0 1 0-2 1.001 1.001 0 0 1 0 2zm14 0a1.001 1.001 0 0 1 0-2 1.001 1.001 0 0 1 0 2zm1-16v2H49v-2zM5 57.184A2.966 2.966 0 0 0 4 57c-1.654 0-3 1.346-3 3s1.346 3 3 3 3-1.346 3-3V49h10v8.184A2.966 2.966 0 0 0 16 57c-1.654 0-3 1.346-3 3s1.346 3 3 3 3-1.346 3-3V43H5zM4 61a1.001 1.001 0 0 1 0-2 1.001 1.001 0 0 1 0 2zm12 0a1.001 1.001 0 0 1 0-2 1.001 1.001 0 0 1 0 2zm1-16v2H7v-2zm1-43h-4c-2.757 0-5 2.243-5 5v7.184A2.966 2.966 0 0 0 8 14c-1.654 0-3 1.346-3 3s1.346 3 3 3 3-1.346 3-3V7c0-1.654 1.346-3 3-3h4zM8 18c-.551 0-1-.449-1-1s.449-1 1-1 1 .449 1 1-.449 1-1 1zm46-2v7.184A2.966 2.966 0 0 0 53 23c-1.654 0-3 1.346-3 3s1.346 3 3 3 3-1.346 3-3V16c0-1.654 1.346-3 3-3h4v-2h-4c-2.757 0-5 2.243-5 5zm-1 11c-.551 0-1-.449-1-1s.449-1 1-1 1 .449 1 1-.449 1-1 1zm-42 0v5.184A2.966 2.966 0 0 0 10 32c-1.654 0-3 1.346-3 3s1.346 3 3 3 3-1.346 3-3v-8c0-.551.449-1 1-1h3v-2h-3c-1.654 0-3 1.346-3 3zm-1 9a1.001 1.001 0 0 1 0-2 1.001 1.001 0 0 1 0 2zm40-24V4c0-.551.449-1 1-1h3V1h-3c-1.654 0-3 1.346-3 3v5.184A2.966 2.966 0 0 0 47 9c-1.654 0-3 1.346-3 3s1.346 3 3 3 3-1.346 3-3zm-4 0c0-.551.449-1 1-1s1 .449 1 1-.449 1-1 1-1-.449-1-1z" data-original="url(#a)"/></g></svg>