<svg xmlns="http://www.w3.org/2000/svg" xmlns:xlink="http://www.w3.org/1999/xlink"  version="1.1" width="512" height="512" x="0" y="0" viewBox="0 0 497 497.928" style="enable-background:new 0 0 512 512" xml:space="preserve"><g><linearGradient id="a" x1="249.426" x2="249.426" y1="497.928" y2=".002" gradientUnits="userSpaceOnUse"><stop offset="0" stop-color="#9f2fff"/><stop offset="1" stop-color="#0bb1d3"/></linearGradient><path fill="url(#a)" d="m29.152 369.93 99.313 99.308 35.312-35.308-99.312-99.313zm99.313 76.687L51.777 369.93l12.688-12.692 76.687 76.692zM416.71 22.863l-18.59-18.59-11.312 11.313 15.359 15.36-16.313 9.062-19.734-19.735-11.312 11.313 19.918 19.918-12.84 25.687-125.239 125.243c-13.32-5.54-27.382-8.504-42.007-8.504-29.336 0-56.914 11.422-77.657 32.168l-20.351 20.351c-4.961 4.957-9.555 10.613-13.68 16.84-18.2 5.656-34.8 15.633-48.144 28.984C12.656 314.414.465 343.863.465 375.183v5.497c0 64.648 52.598 117.25 117.254 117.25h5.496c31.32 0 60.77-12.196 82.914-34.344 13.351-13.356 23.328-29.945 28.984-48.152 6.223-4.122 11.88-8.715 16.84-13.672l20.352-20.356c20.734-20.742 32.16-48.316 32.16-77.652 0-14.617-2.969-28.691-8.504-42.012l125.238-125.238 25.688-12.84 19.922 19.922 11.312-11.313-19.738-19.738 9.066-16.312 15.36 15.363 11.312-11.313-18.594-18.593 22.856-41.145L457.848 0zM248.465 213.238l36.687 36.692-12.687 12.687-36.688-36.687zm12.687 60.692-12.687 12.687-36.688-36.687 12.688-12.692zm-48.28 48.277-36.688-36.687 24.28-24.282 36.688 36.692zm9.401 32.031a53.658 53.658 0 0 1-5.808 6.883c-10.578 10.574-24.64 16.399-39.602 16.399-14.96 0-29.023-5.833-39.597-16.399-21.832-21.832-21.832-57.367 0-79.191a53.333 53.333 0 0 1 6.886-5.809zm38.711 15.86-20.351 20.351c-4.793 4.781-10.367 9.192-16.602 13.086l-2.617 1.64-.84 2.977c-4.719 16.727-13.629 31.993-25.765 44.13-19.13 19.116-44.551 29.648-71.602 29.648h-5.496c-55.824 0-101.246-45.426-101.246-101.258v-5.496c0-27.047 10.527-52.473 29.656-71.602 12.137-12.133 27.399-21.047 44.125-25.765l2.977-.84 1.64-2.617c3.899-6.23 8.305-11.817 13.09-16.598l20.352-20.356c17.71-17.71 41.27-27.468 66.336-27.468a93.484 93.484 0 0 1 29.672 4.832l-59.45 59.445-18.246-18.246-5.304 3.016c-5.72 3.246-10.887 7.168-15.36 11.632-28.074 28.07-28.074 73.75 0 101.825 13.598 13.597 31.68 21.086 50.91 21.086 19.235 0 37.313-7.497 50.914-21.094 4.47-4.473 8.383-9.64 11.63-15.364l3.019-5.3-18.25-18.25 59.449-59.45c3.176 9.532 4.84 19.458 4.84 29.692 0 25.062-9.762 48.621-27.48 66.344zm35.48-131.48-36.687-36.688 12.688-12.692 36.687 36.692zm24-24-36.687-36.688 12.688-12.692 36.687 36.692zm24-24-36.687-36.688 12.688-12.692 36.687 36.692zm24-24-36.687-36.688 12.688-12.692 36.687 36.692zm24-24-36.687-36.688 12.688-12.692 36.687 36.692zm50.208-34.74-24.633 12.313-39.84-39.847 12.313-24.633 64.558-35.863 23.465 23.464zm.137-63.605 11.312 11.313-40 40-11.312-11.313zm0 0" data-original="url(#a)"/></g></svg>