<svg xmlns="http://www.w3.org/2000/svg" xmlns:xlink="http://www.w3.org/1999/xlink"  version="1.1" width="512" height="512" x="0" y="0" viewBox="0 0 496 496" style="enable-background:new 0 0 512 512" xml:space="preserve"><g><linearGradient id="a" x1="248" x2="248" y1="496" y2="0" gradientUnits="userSpaceOnUse"><stop offset="0" stop-color="#9f2fff"/><stop offset="1" stop-color="#0bb1d3"/></linearGradient><path fill="url(#a)" d="M446.982 179.783c-4.837-48.167-26.894-92.725-62.501-125.98C347.33 19.108 298.86 0 248 0s-99.33 19.108-136.48 53.803c-35.608 33.255-57.664 77.813-62.501 125.98C20.556 189.398 0 216.335 0 248v16c0 39.701 32.299 72 72 72h24.017a23.942 23.942 0 0 0 10.67 19.406l12.845 8.564a24.04 24.04 0 0 0 4.388 2.301L118.055 378a57.642 57.642 0 0 0-6.056 25.65c0 20.32 10.904 39.304 28.456 49.543l43.872 25.592C203.633 490.047 225.65 496 248 496s44.367-5.953 63.672-17.214l43.872-25.592C373.096 442.956 384 423.972 384 403.651a57.64 57.64 0 0 0-6.056-25.65l-5.865-11.73c1.527-.613 3-1.376 4.389-2.302l12.844-8.563A23.942 23.942 0 0 0 399.982 336H424c39.701 0 72-32.299 72-72v-16c0-31.665-20.556-58.602-49.018-68.217zM412.379 176a160.682 160.682 0 0 0-3.772-22.027l15.804-6.321a181.528 181.528 0 0 1 6.065 28.654A72.218 72.218 0 0 0 424 176zM248 16c76.949 0 144.017 48.155 171.155 116.522l-15.132 6.053c-8.692-24.578-23.327-46.815-42.936-64.723C331.532 46.864 293.214 32 253.191 32h-10.383c-40.022 0-78.341 14.864-107.895 41.853-19.609 17.908-34.244 40.144-42.936 64.723l-15.132-6.053C103.983 64.155 171.051 16 248 16zM71.589 147.652l15.804 6.321A160.654 160.654 0 0 0 83.622 176H72c-2.184 0-4.341.114-6.476.306a181.64 181.64 0 0 1 6.065-28.654zM16 264v-16c0-30.878 25.121-56 56-56h10.149l-1.052 11.571a24.514 24.514 0 0 1-7.064 15.083C67.563 225.123 64 233.725 64 242.874v76.545C36.898 315.525 16 292.162 16 264zm80 56H80v-47.87c10.065 8.635 16 21.409 16 34.744zm251.481 119.374-43.872 25.592C286.749 474.801 267.52 480 248 480s-38.749-5.199-55.609-15.034l-43.872-25.592C135.862 431.991 128 418.303 128 403.651c0-6.387 1.51-12.782 4.366-18.495L140.944 368H168c4.411 0 8 3.589 8 8v40.955l-12.292-9.833a9.833 9.833 0 0 1-3.708-7.715 9.812 9.812 0 0 1 2.895-6.987l2.763-2.763-11.314-11.313-2.762 2.762c-4.889 4.888-7.581 11.387-7.581 18.3 0 7.905 3.54 15.271 9.713 20.209l24.524 19.62A40.148 40.148 0 0 0 203.225 448h89.551a40.153 40.153 0 0 0 24.988-8.765l24.522-19.619c6.174-4.938 9.714-12.304 9.714-20.209 0-6.913-2.692-13.413-7.58-18.299l-2.763-2.763-11.314 11.313 2.764 2.764a9.815 9.815 0 0 1 2.894 6.986 9.83 9.83 0 0 1-3.709 7.715L320 416.955V376c0-4.411 3.589-8 8-8h27.056l8.578 17.156A41.572 41.572 0 0 1 368 403.651c0 14.652-7.862 28.34-20.519 35.723zM192 384h16v16h-16zm11.225 48c-3.921 0-7.781-.988-11.225-2.807V416h16v16zM224 416h16v16h-16zm32 0h16v16h-16zm32 0h16v13.193A24.07 24.07 0 0 1 292.775 432H288zm16-16h-16v-16h16zm-32 0h-16v-16h16zm-32 0h-16v-16h16zm144-93.126v28.563a7.986 7.986 0 0 1-3.563 6.657l-12.843 8.562a7.98 7.98 0 0 1-4.439 1.344H328c-10.429 0-19.321 6.689-22.624 16H190.624c-3.302-9.311-12.195-16-22.624-16h-35.155a7.981 7.981 0 0 1-4.438-1.343l-12.844-8.563a7.987 7.987 0 0 1-3.563-6.657v-28.563c0-19.332-9.233-37.799-24.699-49.398A18.34 18.34 0 0 1 80 242.874c0-4.875 1.898-9.459 5.347-12.906a40.54 40.54 0 0 0 11.685-24.949l2.368-26.056C106.188 104.302 167.84 48 242.809 48h10.383c74.969 0 136.621 56.302 143.409 130.963l2.368 26.056a40.53 40.53 0 0 0 11.686 24.949 18.132 18.132 0 0 1 5.346 12.906 18.34 18.34 0 0 1-7.301 14.602c-15.467 11.599-24.7 30.066-24.7 49.398zM416 320h-16v-13.126c0-13.335 5.935-26.109 16-34.744zm64-56c0 28.162-20.898 51.525-48 55.419v-76.545c0-9.149-3.563-17.751-10.032-24.22a24.51 24.51 0 0 1-7.065-15.083L413.851 192H424c30.879 0 56 25.122 56 56zm-232-12.806-33.855 42.319A28.142 28.142 0 0 0 208 311.029C208 324.798 219.202 336 232.971 336c5.496 0 10.722-1.764 15.029-5.024 4.308 3.26 9.533 5.024 15.029 5.024C276.798 336 288 324.798 288 311.029a28.142 28.142 0 0 0-6.145-17.516zM263.029 320a8.914 8.914 0 0 1-6.343-2.627L248 308.686l-8.687 8.687A8.91 8.91 0 0 1 232.97 320c-4.946 0-8.971-4.024-8.971-8.971 0-2.723.937-5.394 2.639-7.521L248 276.806l21.361 26.702a12.081 12.081 0 0 1 2.639 7.521c0 4.947-4.024 8.971-8.971 8.971zM240 238.627C240 221.739 226.261 208 209.373 208h-22.06l-7.029-7.029C164.183 184.868 142.773 176 120 176h-12.944l17.003 34.006C116.946 213.357 112 220.575 112 228.944c0 3.234.765 6.473 2.211 9.366l22.065 44.13c6.649 13.299 20.015 21.56 34.883 21.56 10.416 0 20.21-4.057 27.578-11.423l32.293-32.293c5.784-5.785 8.97-13.476 8.97-21.657zM164.265 208h-23.321l-7.336-14.672c11.264 2.232 21.751 7.242 30.657 14.672zm55.451 40.971-32.292 32.292c-4.346 4.344-10.121 6.737-16.265 6.737-8.769 0-16.651-4.872-20.572-12.714l-22.064-44.13a4.964 4.964 0 0 1-.522-2.211 4.95 4.95 0 0 1 4.944-4.944h76.429c8.065 0 14.627 6.562 14.627 14.627a14.536 14.536 0 0 1-4.285 10.343zM136.41 162.53 124.9 128H136c18.903 0 36.224 8.713 47.396 23.318l5.025-10.051 9.653 4.826a79.627 79.627 0 0 1 41.686 51.966l-15.521 3.881a63.64 63.64 0 0 0-28.757-39.018l-11.481 22.965-8.846-17.688c-5.677-11.354-15.717-19.437-27.541-22.655l3.976 11.926zm135.351 39.41-15.521-3.881a79.625 79.625 0 0 1 41.686-51.966l9.653-4.826 5.025 10.051C323.776 136.713 341.097 128 360 128h11.1l-11.51 34.53-15.18-5.06 3.976-11.926c-11.824 3.219-21.864 11.301-27.541 22.655l-8.846 17.688-11.481-22.965a63.639 63.639 0 0 0-28.757 39.018zM376 176c-22.773 0-44.183 8.868-60.283 24.97l-7.03 7.03h-22.06C269.739 208 256 221.739 256 238.627c0 8.181 3.186 15.872 8.97 21.657l32.294 32.293c7.367 7.366 17.161 11.422 27.577 11.422 14.868 0 28.234-8.261 34.883-21.559l22.066-44.131a21.07 21.07 0 0 0 2.21-9.366c0-8.37-4.946-15.587-12.059-18.938L388.944 176zm-13.608 17.328L355.056 208h-23.321c8.906-7.43 19.393-12.44 30.657-14.672zm5.087 37.827-22.065 44.13C341.492 283.128 333.609 288 324.841 288a22.856 22.856 0 0 1-16.264-6.736l-32.293-32.293A14.53 14.53 0 0 1 272 238.628c0-8.065 6.562-14.627 14.627-14.627h76.429a4.95 4.95 0 0 1 4.423 7.154z" data-original="url(#a)"/></g></svg>