<svg xmlns="http://www.w3.org/2000/svg" xmlns:xlink="http://www.w3.org/1999/xlink"  version="1.1" width="512" height="512" x="0" y="0" viewBox="0 0 64 64" style="enable-background:new 0 0 512 512" xml:space="preserve"><g><linearGradient id="a" x1="32" x2="32" y1="63" y2="1" gradientUnits="userSpaceOnUse"><stop offset="0" stop-color="#9f2fff"/><stop offset="1" stop-color="#0bb1d3"/></linearGradient><path fill="url(#a)" d="M7.535 60.95a6.958 6.958 0 0 0 4.95 2.05h7.11c4.671 0 8.612-3.648 8.974-8.306l.032-.422a5.981 5.981 0 0 1 4.604-5.376l3.228-.762A8.194 8.194 0 0 0 43 40.121C43 38.4 41.6 37 39.879 37c-.822 0-1.626.333-2.207.914l-2.318 2.318c-.975.976-2.732.976-3.707 0L31.414 40 49.54 21.874l.313-.104a10.029 10.029 0 0 0 6.776-8.382l.167-1.498a1 1 0 0 1 .994-.89H58c2.757 0 5-2.243 5-5s-2.243-5-5-5h-.343c-1.336 0-2.592.52-3.536 1.464L52 4.586l-1.293-1.293-1.414 1.414L50.586 6 49 7.586l-1.293-1.293-1.414 1.414L47.586 9 46 10.586l-1.293-1.293-1.414 1.414L44.586 12 23.874 32.712A2.597 2.597 0 0 1 23 30.764c0-.871.339-1.689.954-2.304l2.132-2.132c.59-.589.914-1.373.914-2.207C27 22.4 25.6 21 23.878 21a8.191 8.191 0 0 0-8.011 6.567l-1.088 5.438a5.01 5.01 0 0 1-3.778 3.892l-3.024.698A8.958 8.958 0 0 0 1 46.364v5.15c0 1.871.729 3.628 2.051 4.95zm-3.116-5.955L10 49.414 11.586 51 6 56.586 4.465 55.05c-.017-.017-.029-.038-.046-.055zM43 16.414 44.586 18 21.23 41.356l-2.379-.793zM16 52.586 14.414 51 16 49.414 17.586 51zm3-3L17.414 48l4.356-4.356 2.379.793zm6.73-6.73-2.379-.793L46 19.414 47.586 21zm-8.46-.712 2.379.793L16 46.586 14.414 45zM13 46.414 14.586 48 13 49.586 11.414 48zM7.414 58 13 52.414 14.586 54l-5.581 5.581c-.017-.017-.038-.028-.055-.046zm22.818-16.354c.86.861 2.051 1.354 3.268 1.354s2.408-.493 3.268-1.354l2.318-2.318a1.123 1.123 0 0 1 1.914.794c0 2.931-2.086 5.475-4.993 6.058l-3.261.77a7.977 7.977 0 0 0-6.139 7.169l-.032.422C26.294 58.163 23.229 61 19.596 61h-7.11a4.986 4.986 0 0 1-1.745-.327L30 41.414zm17.061-26.939 1.414-1.414L47.414 12 49 10.414l1.293 1.293 1.414-1.414L50.414 9 52 7.414l1.293 1.293 1.414-1.414L53.414 6l2.121-2.121A2.98 2.98 0 0 1 57.657 3H58c1.654 0 3 1.346 3 3s-1.346 3-3 3h-.21a2.995 2.995 0 0 0-2.981 2.668l-.167 1.498a8.017 8.017 0 0 1-5.375 6.686L44.414 15 46 13.414zM3 46.364a6.969 6.969 0 0 1 5.426-6.821l3.024-.698a7.013 7.013 0 0 0 5.29-5.448l1.088-5.438A6.186 6.186 0 0 1 23.879 23a1.122 1.122 0 0 1 .793 1.914l-2.132 2.131A5.225 5.225 0 0 0 21 30.764c0 1.303.539 2.507 1.456 3.365l-19.13 19.13A4.998 4.998 0 0 1 3 51.515zM20 57a1 1 0 1 1 2 0 1 1 0 0 1-2 0zm-4 1a1 1 0 1 1 2 0 1 1 0 0 1-2 0zm6-5a1 1 0 1 1 2 0 1 1 0 0 1-2 0z" data-original="url(#a)"/></g></svg>