<svg xmlns="http://www.w3.org/2000/svg" xmlns:xlink="http://www.w3.org/1999/xlink"  version="1.1" width="512" height="512" x="0" y="0" viewBox="0 0 496 496" style="enable-background:new 0 0 512 512" xml:space="preserve"><g><linearGradient id="a" x1="248" x2="248" y1="496" y2="0" gradientUnits="userSpaceOnUse"><stop offset="0" stop-color="#9f2fff"/><stop offset="1" stop-color="#0bb1d3"/></linearGradient><path fill="url(#a)" d="m217.689 173.268-.845-1.689 14.311-7.156.845 1.689c3.05 6.1 9.181 9.889 16 9.889s12.95-3.789 16-9.889l.845-1.689 14.311 7.156-.845 1.689C272.533 184.822 260.919 192 248 192s-24.533-7.178-30.311-18.732zm-79.346 232.389 48 48 11.313-11.314-48-48zM464 206.111c0 23.489-5.886 46.837-17.022 67.52l-27.122 50.368A53.177 53.177 0 0 1 372.976 352a53.195 53.195 0 0 1-28.22-8.093L320 328.434v23.871c9.073 1.578 16 9.491 16 19.008 0 24.941-18.663 46.082-43.411 49.176l-2.628.328c-12.635 1.579-23.698 9.789-28.871 21.427l-4.888 10.998C244.659 479.217 218.833 496 190.408 496 138.352 496 96 453.648 96 401.592c0-28.425 16.784-54.25 42.758-65.794l10.997-4.889c8.685-3.86 15.457-11.001 18.993-19.628l-1.088.653A56.624 56.624 0 0 1 138.536 320c-19.351 0-37.151-9.718-47.616-25.996l-44.672-69.489A89.55 89.55 0 0 1 32 176c0-17.645 14.355-32 32-32s32 14.355 32 32a42.102 42.102 0 0 1-4.422 18.733l-1.844 3.687 48.544 48.544 29.465-8.839a62.404 62.404 0 0 1-12.857-19.987L128 227.1v-23.322c0-17.496 6.852-34.007 18.995-46.282A31.807 31.807 0 0 1 144 144c0-2.876.388-5.663 1.103-8.317l-18.231-12.154 8-32-25.965-17.311 4.438-6.656c11.503-17.255 29.037-28.997 49.372-33.064l3.489-.697L157.754 0h37.402c18.7 0 36.861 5.014 52.844 14.544C263.983 5.014 282.144 0 300.844 0h37.402l-8.45 33.801 3.489.697c20.335 4.067 37.869 15.81 49.372 33.064l4.438 6.656-25.965 17.311 8 32-18.231 12.154a31.922 31.922 0 0 1-1.897 21.824 65.96 65.96 0 0 1 12.522 17.788l3.072-4.608a23.954 23.954 0 0 1 19.969-10.688c14.725 0 28.42 6.83 37.329 18.2a33.725 33.725 0 0 1 11.997-2.2C450.492 176 464 189.508 464 206.111zM304 356.776v-25.463l-32.516 32.516A20.795 20.795 0 0 0 284 368a20.833 20.833 0 0 0 14.828-6.142l4.202-4.202c.311-.311.642-.593.97-.88zM187.314 384 208 404.687 220.686 392 200 371.314zm57.372-16L224 347.314 211.314 360 232 380.686zm-16.515-47.484 69.15-69.15-13.576-7.92c-7.007 13.154-18.906 23.374-33.215 28.144l-2.53.843-2.53-.843a58.091 58.091 0 0 1-6.577-2.658 19.179 19.179 0 0 1 1.106 6.382c0 5.16-2.009 10.01-5.657 13.657l-4.201 4.201A20.838 20.838 0 0 0 224 308a20.8 20.8 0 0 0 4.171 12.516zM192 265.19c8.142-5.797 18.066-9.19 28.686-9.19.202 0 .399.024.599.03a58.78 58.78 0 0 1-9.897-14.295L192 247.552zM176 128c-8.822 0-16 7.178-16 16s7.178 16 16 16zm16-16v16h32v-16zm0 63.016a34.198 34.198 0 0 0 25.94 33.224l6.06 1.515v20.843c4.12 11.274 12.912 20.373 24 24.879 11.088-4.506 19.88-13.605 24-24.879v-20.843l6.06-1.515A34.196 34.196 0 0 0 304 175.016V144h-32c-8.822 0-16-7.178-16-16v-8c0-4.411-3.589-8-8-8s-8 3.589-8 8v8c0 8.822-7.178 16-16 16h-32zM272 128h32v-16h-32zm48 0v32c8.822 0 16-7.178 16-16s-7.178-16-16-16zm11.314 112L352 260.686 364.686 248 344 227.314zm-96 96L256 356.686 268.686 344 248 323.314zm57.372-16L272 299.314 259.314 312 280 332.686zM304 308.686 316.686 296 296 275.314 283.314 288zM340.686 272 320 251.314 307.314 264 328 284.686zm23.046-.418 9.998 5.833 24.936-34.91-17.569 11.713zm-9.438-56.602 22.725 22.725 24.902-16.601a34.053 34.053 0 0 1-1.922-11.216c0-8.685 3.287-16.614 8.678-22.617a31.438 31.438 0 0 0-24.115-11.272 7.986 7.986 0 0 0-6.657 3.563zm-3.766-23.193a49.934 49.934 0 0 0-11.787-21.872A31.828 31.828 0 0 1 320 176h-.019A50.157 50.157 0 0 1 288 221.837v5.568l21.02 12.262 28.764-28.764zm-197.489-70.043c5.82-6.003 13.96-9.744 22.961-9.744 0-1.098.112-2.169.323-3.205a49.16 49.16 0 0 1-4.661-2.018l-13.445-6.725 10.194-30.582 15.179 5.061-5.806 17.418 1.034.517a33.664 33.664 0 0 0 14.978 3.535 33.425 33.425 0 0 0 27.866-14.913l3.682-5.524 13.313 8.875-3.683 5.524a49.735 49.735 0 0 1-5.628 6.976 15.989 15.989 0 0 1 5.287 3.139C238.456 97.504 243.055 96 248 96s9.544 1.504 13.367 4.077a15.989 15.989 0 0 1 5.287-3.139 49.664 49.664 0 0 1-5.628-6.976l-3.683-5.524 13.313-8.875 3.683 5.524A33.425 33.425 0 0 0 302.205 96a33.672 33.672 0 0 0 14.979-3.536l1.033-.516-5.806-17.418 15.179-5.061 10.194 30.582-13.444 6.724a49.185 49.185 0 0 1-4.662 2.019c.212 1.036.323 2.108.323 3.206 9.002 0 17.141 3.742 22.961 9.744l7.91-5.274-8-32 21.609-14.406c-8.891-10.217-20.835-17.177-34.334-19.877l-19.943-3.988L317.754 16h-16.91a86.997 86.997 0 0 0-48.407 14.656L248 33.614l-4.438-2.958A86.991 86.991 0 0 0 195.156 16h-16.91l7.55 30.199-19.943 3.988c-13.499 2.7-25.443 9.66-34.334 19.877l21.609 14.406-8 32zm32.755 110.965L208 226.048v-4.211c-18.821-7.309-31.584-25.292-31.981-45.837H176a31.816 31.816 0 0 1-18.735-6.082C148.775 179.077 144 191.08 144 203.777v1.123l21.666-7.222 2.096 8.381c2.708 10.834 9.064 20.173 18.032 26.65zm-12.015 56.894a49.176 49.176 0 0 1 2.221-5.461v-31.79l-32 9.6V272h-16v-12.686L70.266 201.58l7.001-14.003A26.015 26.015 0 0 0 80 176c0-8.822-7.178-16-16-16s-16 7.178-16 16a73.564 73.564 0 0 0 11.708 39.862l44.672 69.489C111.886 297.028 124.655 304 138.537 304a40.617 40.617 0 0 0 20.892-5.787zM320 371.313a3.316 3.316 0 0 0-3.313-3.313c-.885 0-1.717.345-2.344.971l-4.201 4.201C303.16 380.154 293.876 384 284 384c-8.858 0-17.235-3.103-23.907-8.78L208 427.313 164.686 384l52.094-52.093C211.103 325.233 208 316.858 208 308c0-9.875 3.846-19.158 10.828-26.142l4.202-4.202c.626-.625.97-1.457.97-2.343a3.316 3.316 0 0 0-3.313-3.313c-16.889 0-31.204 12.638-33.298 29.396l-.329 2.628c-2.271 18.167-14.075 34.072-30.805 41.507l-10.997 4.889C125.054 359.397 112 379.483 112 401.592 112 444.826 147.174 480 190.408 480c22.108 0 42.195-13.054 51.173-33.256l4.888-10.998c7.437-16.731 23.342-28.535 41.508-30.806l2.628-.328c16.758-2.094 29.395-16.41 29.395-33.299zm128-165.202c0-7.781-6.33-14.111-14.111-14.111-9.864 0-17.889 8.024-17.889 17.889 0 2.763.653 5.528 1.888 7.999l7.421 14.843-47.04 65.855-26.237-15.305-28.496 28.496 29.7 18.563a37.198 37.198 0 0 0 19.739 5.661 37.195 37.195 0 0 0 32.792-19.587l27.122-50.368A126.824 126.824 0 0 0 448 206.111zM368 384h80v-16h-80zm-11.969 22.946 56 32 7.938-13.893-56-32zm-26.687 13.492 32 48 13.313-8.875-32-48zM24 128c-13.234 0-24-10.767-24-24s10.766-24 24-24c2.804 0 5.496.488 8 1.376V12.9l64 21.334V83.1l-48-16V104c0 13.233-10.766 24-24 24zm24-77.766L80 60.9V45.766L48 35.1zM32 104c0-4.411-3.589-8-8-8s-8 3.589-8 8 3.589 8 8 8 8-3.589 8-8zm400-91.1 64 21.334V136c0 13.233-10.766 24-24 24s-24-10.767-24-24 10.766-24 24-24c2.804 0 5.496.488 8 1.376v-35.61L448 67.1V104c0 13.233-10.766 24-24 24s-24-10.767-24-24 10.766-24 24-24c2.804 0 5.496.488 8 1.376zm0 91.1c0-4.411-3.589-8-8-8s-8 3.589-8 8 3.589 8 8 8 8-3.589 8-8zm48 32c0-4.411-3.589-8-8-8s-8 3.589-8 8 3.589 8 8 8 8-3.589 8-8zM448 35.1v15.134L480 60.9V45.766zM80 328v72H64v-49.376A23.89 23.89 0 0 1 56 352c-13.234 0-24-10.767-24-24s10.766-24 24-24 24 10.767 24 24zm-16 0c0-4.411-3.589-8-8-8s-8 3.589-8 8 3.589 8 8 8 8-3.589 8-8z" data-original="url(#a)"/></g></svg>