<svg xmlns="http://www.w3.org/2000/svg" xmlns:xlink="http://www.w3.org/1999/xlink" version="1.1" width="512" height="512" x="0" y="0" viewBox="0 0 496 496" style="enable-background:new 0 0 512 512" xml:space="preserve"><g><linearGradient id="a" x1="248" x2="248" y1="496" y2="0" gradientUnits="userSpaceOnUse"><stop offset="0" stop-color="#9f2fff"/><stop offset="1" stop-color="#0bb1d3"/></linearGradient><path fill="url(#a)" d="M312 0h-48C162.542 0 80 82.542 80 184v144c0 19.317 13.764 35.479 32 39.195V384c0 8.822 7.178 16 16 16v56c0 13.234-10.766 24-24 24s-24-10.766-24-24v-48c0-22.056-17.944-40-40-40S0 385.944 0 408v88h16v-88c0-13.234 10.766-24 24-24s24 10.766 24 24v48c0 22.056 17.944 40 40 40s40-17.944 40-40v-56c8.822 0 16-7.178 16-16h1.376c3.302 9.311 12.195 16 22.624 16h16c13.233 0 24-10.767 24-24V248c0-13.233-10.767-24-24-24h-16c-10.429 0-19.321 6.689-22.624 16H160c-11.818 0-22.153 6.445-27.695 16H128v-72c0-74.991 61.009-136 136-136h48c74.991 0 136 61.009 136 136v72h-4.305c-5.542-9.555-15.877-16-27.695-16h-1.376c-3.302-9.311-12.195-16-22.624-16h-16c-13.233 0-24 10.767-24 24v128c0 13.233 10.767 24 24 24h16c10.429 0 19.321-6.689 22.624-16H448v24c0 28.684-21.682 52.387-49.516 55.613C395.075 454.504 386.284 448 376 448h-32c-13.233 0-24 10.767-24 24s10.767 24 24 24h32c10.55 0 19.525-6.846 22.734-16.325C435.288 476.267 464 445.429 464 408v-40.805c18.236-3.716 32-19.878 32-39.195V184C496 82.542 413.458 0 312 0zm64 480h-32c-4.411 0-8-3.589-8-8s3.589-8 8-8h32c4.411 0 8 3.589 8 8s-3.589 8-8 8zM96 264.022V224h16v32.805a39.841 39.841 0 0 0-16 7.217zM112 208H96v-16h16zm70 72-6 8v-16zm20 64 6-8v16zm4-32-14 18.667L178 312l14-18.667zm-4-32 6-8v16zm-20 64-6 8v-16.001zm18 40h-16c-3.635 0-6.706-2.44-7.676-5.766L192 357.333l15.676 20.902c-.97 3.325-4.041 5.765-7.676 5.765zm-16-144h16c3.635 0 6.706 2.44 7.676 5.766L192 266.667l-15.676-20.902c.97-3.326 4.041-5.765 7.676-5.765zm-40 32c0-8.822 7.178-16 16-16v112c-8.822 0-16-7.178-16-16zm0 107.695V384h-16v-16h4.305A32.238 32.238 0 0 0 144 379.695zM128 352h-8c-13.234 0-24-10.766-24-24v-32c0-13.234 10.766-24 24-24h8zM312 32h-48c-81.13 0-147.615 63.891-151.79 144H96.195C100.385 87.065 174.046 16 264 16h48c89.954 0 163.615 71.065 167.805 160H463.79C459.615 95.891 393.13 32 312 32zm152 192h16v40.022a39.841 39.841 0 0 0-16-7.217zm16-16h-16v-16h16zm-48 64v48h-16v-64c8.822 0 16 7.178 16 16zm-38 72 6-8v16zm-20-64-6 8v-16zm-4 32 14-18.667L398 312l-14 18.667zm4 32-6 8v-16zm26-56-6-8 6-8zm-24-48h16c3.635 0 6.706 2.439 7.676 5.765L384 266.667l-15.676-20.901c.97-3.326 4.041-5.766 7.676-5.766zm16 144h-16c-3.635 0-6.706-2.44-7.676-5.766L384 357.333l15.676 20.902c-.97 3.325-4.041 5.765-7.676 5.765zm24-16v-32h24c4.411 0 8 3.589 8 8v24zm64-40c0 10.429-6.689 19.322-16 22.624V344c0-10.429-6.689-19.322-16-22.624V272h8c13.234 0 24 10.766 24 24z" data-original="url(#a)"/></g></svg>