<svg xmlns="http://www.w3.org/2000/svg" xmlns:xlink="http://www.w3.org/1999/xlink"  version="1.1" width="512" height="512" x="0" y="0" viewBox="0 0 272 496" style="enable-background:new 0 0 512 512" xml:space="preserve"><g><linearGradient id="a" x1="136" x2="136" y1="496" y2="0" gradientUnits="userSpaceOnUse"><stop offset="0" stop-color="#9f2fff"/><stop offset="1" stop-color="#0bb1d3"/></linearGradient><path fill="url(#a)" d="m15.757 340.823 7.994 3.997-5.228 14.703A43.583 43.583 0 0 0 16 374.156c0 13.677 6.532 26.742 17.476 34.95C42.57 415.927 48 426.787 48 438.156V496h176V379.868c0-16.997 4.018-34.016 11.618-49.217C248.952 303.985 256 274.13 256 244.314a193.39 193.39 0 0 0-4.597-41.879l-10.866-48.898a22.587 22.587 0 0 1-.537-4.888c0-6.02 2.344-11.679 6.601-15.935l1.603-1.603C263.549 115.766 272 95.362 272 73.66v-1.357C272 32.435 239.568 0 199.704 0h-1.363c-31.094 0-58.983 19.682-69.399 48.975l-6.862 19.299-13.875-3.469a26.985 26.985 0 0 0-6.539-.805 26.925 26.925 0 0 0-25.577 18.435l-10.627 31.881A28.47 28.47 0 0 0 64 123.328c0 10.866 6.038 20.636 15.757 25.495l11.617 5.809-3.254 9.152-11.915-2.979a26.985 26.985 0 0 0-6.539-.805 26.925 26.925 0 0 0-25.577 18.435l-10.627 31.881A28.465 28.465 0 0 0 32 219.328c0 10.866 6.038 20.636 15.757 25.495l9.806 4.903-3.402 9.568-9.956-2.489a26.985 26.985 0 0 0-6.539-.805 26.925 26.925 0 0 0-25.577 18.435l-10.627 31.88A28.475 28.475 0 0 0 0 315.328c0 10.866 6.038 20.635 15.757 25.495zM64 464h16v16H64zm64 16H96v-16h32zm16-16h32v16h-32zm48 16v-16h16v16zm6.341-464h1.363C230.746 16 256 41.257 256 72.303v1.357c0 17.429-6.787 33.814-19.111 46.138l-1.602 1.602C228.009 128.677 224 138.354 224 148.648c0 2.806.309 5.619.918 8.359l10.866 48.898A177.328 177.328 0 0 1 240 244.314c0 27.345-6.464 54.726-18.692 79.182C212.602 340.907 208 360.4 208 379.868V448h-16V142.624c9.311-3.302 16-12.194 16-22.624 0-13.234-10.767-24-24-24s-24 10.766-24 24c0 10.429 6.689 19.321 16 22.624V448h-32V238.624c9.311-3.302 16-12.194 16-22.624 0-13.234-10.767-24-24-24s-24 10.766-24 24c0 10.429 6.689 19.321 16 22.624V448H96V334.624c9.311-3.302 16-12.194 16-22.624 0-13.234-10.767-24-24-24s-24 10.766-24 24c0 10.429 6.689 19.321 16 22.624V448H64v-9.844c0-16.378-7.822-32.023-20.926-41.851C36.14 391.104 32 382.824 32 374.156c0-3.168.538-6.289 1.6-9.274L144.018 54.335C152.17 31.406 174.001 16 198.341 16zM176 120c0-4.411 3.589-8 8-8s8 3.589 8 8-3.589 8-8 8-8-3.589-8-8zm-48 96c0-4.411 3.589-8 8-8s8 3.589 8 8-3.589 8-8 8-8-3.589-8-8zm-48 96c0-4.411 3.589-8 8-8s8 3.589 8 8-3.589 8-8 8-8-3.589-8-8zm6.913-177.488A12.434 12.434 0 0 1 80 123.328c0-1.346.216-2.678.642-3.955l10.627-31.879A10.942 10.942 0 0 1 101.666 80c.896 0 1.79.11 2.658.327l12.37 3.093-19.919 56.023zm-32 96A12.434 12.434 0 0 1 48 219.328c0-1.346.216-2.678.642-3.955l10.627-31.879A10.942 10.942 0 0 1 69.666 176c.896 0 1.79.11 2.658.327l10.411 2.603-19.772 55.607zm-38.271 80.861 10.627-31.879A10.942 10.942 0 0 1 37.666 272c.896 0 1.79.11 2.658.327l8.451 2.113-19.624 55.191-6.238-3.119A12.434 12.434 0 0 1 16 315.328c0-1.347.216-2.678.642-3.955z" data-original="url(#a)"/></g></svg>