<svg xmlns="http://www.w3.org/2000/svg" xmlns:xlink="http://www.w3.org/1999/xlink"  version="1.1" width="512" height="512" x="0" y="0" viewBox="0 0 64 64" style="enable-background:new 0 0 512 512" xml:space="preserve"><g><linearGradient id="a" x1="31.5" x2="31.5" y1="63" y2="1" gradientUnits="userSpaceOnUse"><stop offset="0" stop-color="#9f2fff"/><stop offset="1" stop-color="#0bb1d3"/></linearGradient><path fill="url(#a)" d="M12 59h.586A2.01 2.01 0 0 0 14 58.414L16.414 56 14 53.586A2.01 2.01 0 0 0 12.586 53H12c-1.103 0-2 .897-2 2v2c0 1.103.897 2 2 2zm0-4h.586l1 1-1 1H12zm10 4h2c1.103 0 2-.897 2-2v-2c0-1.103-.897-2-2-2h-2c-1.103 0-2 .897-2 2v2c0 1.103.897 2 2 2zm0-4h2l.001 2H22zm11.414 4H34c1.103 0 2-.897 2-2v-2c0-1.103-.897-2-2-2h-.586a2.01 2.01 0 0 0-1.414.586L29.586 56 32 58.414a2.01 2.01 0 0 0 1.414.586zm0-4H34l.001 2h-.587l-1-1zM24 6a1 1 0 1 1-2 0 1 1 0 0 1 2 0zM9 63h28c2.757 0 5-2.243 5-5V39h9c1.654 0 3-1.346 3-3V18c0-1.654-1.346-3-3-3h-1v-5c0-.551.448-1 1-1h8V7h-8c-1.654 0-3 1.346-3 3v5h-6V6c0-2.757-2.243-5-5-5H9C6.243 1 4 3.243 4 6v52c0 2.757 2.243 5 5 5zm39-43.816A2.966 2.966 0 0 0 47 19c-1.654 0-3 1.346-3 3s1.346 3 3 3 3-1.346 3-3v-5h1c.552 0 1 .449 1 1v18c0 .551-.448 1-1 1H32.577l-3.908 4.026-.114.142c-.15.222-.555.101-.555-.168v-4h-3c-.552 0-1-.449-1-1V18c0-.551.448-1 1-1h23zM48 22a1.001 1.001 0 0 1-2 0 1.001 1.001 0 0 1 2 0zM20 6V3h6v3c0 1.654-1.346 3-3 3s-3-1.346-3-3zm16 5v4H25c-1.654 0-3 1.346-3 3v18c0 1.654 1.346 3 3 3h1v2a2.305 2.305 0 0 0 2.303 2.303c.737 0 1.424-.35 1.856-.94L33.423 39H36v10H10V11zm4-5v9h-2v-4c0-1.103-.897-2-2-2h-9.026A4.948 4.948 0 0 0 28 6V3h9c1.654 0 3 1.346 3 3zM6 6c0-1.654 1.346-3 3-3h9v3c0 1.13.391 2.162 1.026 3H10c-1.103 0-2 .897-2 2v38c0 1.103.897 2 2 2h26c1.103 0 2-.897 2-2V39h2v19c0 1.654-1.346 3-3 3H9c-1.654 0-3-1.346-3-3zm23 29c1.654 0 3-1.346 3-3V22c0-.551.448-1 1-1h8v-2h-8c-1.654 0-3 1.346-3 3v7.184A2.966 2.966 0 0 0 29 29c-1.654 0-3 1.346-3 3s1.346 3 3 3zm0-4a1.001 1.001 0 1 1-1 1c0-.551.448-1 1-1zm17 4h-2v-2h2zm4 0h-2v-2h2zm-10-2h2v2h-2zM20 15h-8v-2h8zm0 4h-8v-2h8zm0 4h-8v-2h8zm0 4h-8v-2h8zm0 4h-8v-2h8zm0 4h-8v-2h8zm0 4h-8v-2h8zm0 4h-8v-2h8zm2 4H12v-2h10zm12 0h-2v-2h2zm-4 0h-2v-2h2zm-4 0h-2v-2h2z" data-original="url(#a)"/></g></svg>