<svg xmlns="http://www.w3.org/2000/svg" xmlns:xlink="http://www.w3.org/1999/xlink"  version="1.1" width="512" height="512" x="0" y="0" viewBox="0 0 62 62" style="enable-background:new 0 0 512 512" xml:space="preserve"><g><linearGradient id="a" x1="31" x2="31" y1="62" y2="0" gradientUnits="userSpaceOnUse"><stop offset="0" stop-color="#9f2fff"/><stop offset="1" stop-color="#0bb1d3"/></linearGradient><path fill="url(#a)" d="M36 50H26v-2h10zm8.677 10H62v2H0v-2h17.323l2.345-5.861A9.026 9.026 0 0 1 18 48.91c0-1.404.332-2.81.959-4.065l.304-.607a6.96 6.96 0 0 0 .468-5.038l-1.423-4.98a7.959 7.959 0 0 1 .788-6.23c-.033.001-.063.01-.096.01-.395 0-.77-.081-1.116-.22A2.995 2.995 0 0 1 15 30H9c-.551 0-1 .449-1 1s.449 1 1 1h4c1.654 0 3 1.346 3 3s-1.346 3-3 3H3c-.551 0-1 .449-1 1s.449 1 1 1h5v2H3c-1.654 0-3-1.346-3-3s1.346-3 3-3h10c.551 0 1-.449 1-1s-.449-1-1-1H9c-1.654 0-3-1.346-3-3s1.346-3 3-3h6c.551 0 1-.449 1-1s-.449-1-1-1H3c-1.654 0-3-1.346-3-3s1.346-3 3-3h9v2H3c-.551 0-1 .449-1 1s.449 1 1 1h12c.395 0 .77.081 1.116.22A2.995 2.995 0 0 1 19 22c1.654 0 3 1.346 3 3 0 .033-.009.063-.01.096A7.951 7.951 0 0 1 26 24.001V20h-2c-1.103 0-2-.897-2-2v-4c0-1.103.897-2 2-2h2v-2h-2V8h2V6h-2V4h2V3c0-1.654 1.346-3 3-3h4c1.654 0 3 1.346 3 3v1h2v2h-2v2h2v2h-2v2h2c1.103 0 2 .897 2 2v4c0 1.103-.897 2-2 2h-2v4.001c4.413.009 8 3.602 8 8.016 0 .745-.104 1.486-.309 2.203l-1.423 4.981a6.985 6.985 0 0 0 .468 5.035l.304.609A9.13 9.13 0 0 1 44 48.91a9.03 9.03 0 0 1-1.667 5.229zm-19.331-2.172L24.477 60h13.045l-.869-2.172A9.093 9.093 0 0 1 34.91 58h-7.82a9.111 9.111 0 0 1-1.744-.172zM39.677 60h2.845l-1.686-4.214a9.119 9.119 0 0 1-2.27 1.439zM28 32.685a6.937 6.937 0 0 1 2-.605V14h-2zM34 14h-2v18.08a6.937 6.937 0 0 1 2 .605zm-8 25a5.01 5.01 0 0 0 4 4.899v-9.798A5.01 5.01 0 0 0 26 39zm6 4.899c2.279-.465 4-2.484 4-4.899s-1.721-4.434-4-4.899zM36 14v4h2v-4zm-8-2h6v-2h-2V8h2V6h-2V4h2V3c0-.551-.449-1-1-1h-4c-.551 0-1 .449-1 1v1h2v2h-2v2h2v2h-2zm-2 6v-4h-2v4zm-7 8c.551 0 1-.449 1-1s-.449-1-1-1-1 .449-1 1 .449 1 1 1zm1 22.91c0 3.91 3.181 7.09 7.09 7.09h7.819c3.91 0 7.09-3.181 7.09-7.09a7.118 7.118 0 0 0-.749-3.17l-.304-.608A9.048 9.048 0 0 1 40 41.117c0-.833.116-1.663.346-2.466l1.423-4.981A6.023 6.023 0 0 0 36 26.001v8.109A6.976 6.976 0 0 1 38 39c0 3.86-3.14 7-7 7s-7-3.14-7-7c0-1.902.765-3.627 2-4.89v-8.109a6.023 6.023 0 0 0-5.769 7.669l1.423 4.981c.23.803.346 1.633.346 2.466a9.023 9.023 0 0 1-.948 4.015l-.303.607A7.122 7.122 0 0 0 20 48.91zM19.477 60h2.845l1.11-2.775a9.108 9.108 0 0 1-2.27-1.439zM8 15c0-1.654 1.346-3 3-3h1V3.867l10 1.25v6.016l-8-1V15c0 1.654-1.346 3-3 3s-3-1.346-3-3zm6-6.883 6 .75V6.883l-6-.75zM10 15c0 .551.449 1 1 1s1-.449 1-1v-1h-1c-.551 0-1 .449-1 1zm4 38v-7h-1c-1.654 0-3-1.346-3-3s1.346-3 3-3 3 1.346 3 3v10zm0-9v-1c0-.551-.449-1-1-1s-1 .449-1 1 .449 1 1 1zM2 7c0-1.654 1.346-3 3-3s3 1.346 3 3-1.346 3-3 3-3-1.346-3-3zm2 0c0 .551.449 1 1 1s1-.449 1-1-.449-1-1-1-1 .449-1 1zm48 16.867 10 1.25V37c0 1.654-1.346 3-3 3s-3-1.346-3-3 1.346-3 3-3h1v-3.117l-6-.75V35c0 1.654-1.346 3-3 3s-3-1.346-3-3 1.346-3 3-3h1zM52 34h-1c-.551 0-1 .449-1 1s.449 1 1 1 1-.449 1-1zm8 2h-1c-.551 0-1 .449-1 1s.449 1 1 1 1-.449 1-1zm-6-9.867v1.984l6 .75v-1.984zM59 52H49c-.551 0-1-.449-1-1s.449-1 1-1h8c1.654 0 3-1.346 3-3s-1.346-3-3-3H47c-.551 0-1-.449-1-1s.449-1 1-1h5v-2h-5c-1.654 0-3 1.346-3 3s1.346 3 3 3h10c.551 0 1 .449 1 1s-.449 1-1 1h-8c-1.654 0-3 1.346-3 3s1.346 3 3 3h10c.551 0 1 .449 1 1s-.449 1-1 1h-9v2h9c1.654 0 3-1.346 3-3s-1.346-3-3-3zM45 24h5v-2h-5c-.551 0-1-.449-1-1s.449-1 1-1h12c1.654 0 3-1.346 3-3s-1.346-3-3-3H44v2h13c.551 0 1 .449 1 1s-.449 1-1 1H45c-1.654 0-3 1.346-3 3s1.346 3 3 3zm1-17c0-1.654 1.346-3 3-3s3 1.346 3 3-1.346 3-3 3-3-1.346-3-3zm2 0c0 .551.449 1 1 1s1-.449 1-1-.449-1-1-1-1 .449-1 1z" data-original="url(#a)"/></g></svg>