<svg xmlns="http://www.w3.org/2000/svg" xmlns:xlink="http://www.w3.org/1999/xlink"  version="1.1" width="512" height="512" x="0" y="0" viewBox="0 0 496 496" style="enable-background:new 0 0 512 512" xml:space="preserve"><g><linearGradient id="a" x1="248" x2="248" y1="496" y2="0" gradientUnits="userSpaceOnUse"><stop offset="0" stop-color="#9f2fff"/><stop offset="1" stop-color="#0bb1d3"/></linearGradient><path fill="url(#a)" d="M72 128c-13.234 0-24 10.767-24 24v96c0 13.233 10.766 24 24 24s24-10.767 24-24v-96c0-13.233-10.766-24-24-24zm0 16c4.411 0 8 3.589 8 8v8H64v-8c0-4.411 3.589-8 8-8zm-8 48v-16h16v16zm16 16v16H64v-16zm-8 48c-4.411 0-8-3.589-8-8v-8h16v8c0 4.411-3.589 8-8 8zm64-176h-27.079C48.862 80 0 128.862 0 188.922v22.156C0 271.138 48.862 320 108.921 320c7.935 0 15.885-.873 23.628-2.594l27.45-6.1V464c0 17.645 14.355 32 32 32h16c17.645 0 32-14.355 32-32V184C240 126.654 193.346 80 136 80zm88 384c0 8.822-7.178 16-16 16h-16c-8.822 0-16-7.178-16-16V307.751l17.735-3.941-3.471-15.619-61.186 13.597a93.015 93.015 0 0 1-20.157 2.213C57.685 304 16 262.315 16 211.078v-22.156C16 137.685 57.685 96 108.921 96H136c48.523 0 88 39.477 88 88zm-16-280v24h-16v-24c0-30.879-25.122-56-56-56h-8v-16h8c39.701 0 72 32.299 72 72zm-16 232h16v48h-16zm0-192h16v16h-16zm232-96c-13.234 0-24 10.767-24 24v96c0 13.233 10.766 24 24 24s24-10.767 24-24v-96c0-13.233-10.766-24-24-24zm0 16c4.411 0 8 3.589 8 8v8h-16v-8c0-4.411 3.589-8 8-8zm-8 48v-16h16v16zm16 16v16h-16v-16zm-8 48c-4.411 0-8-3.589-8-8v-8h16v8c0 4.411-3.589 8-8 8zM387.079 80H360c-57.346 0-104 46.654-104 104v280c0 17.645 14.355 32 32 32h16c17.645 0 32-14.355 32-32V311.307l27.45 6.1a109.1 109.1 0 0 0 23.629 2.594C447.138 320 496 271.138 496 211.078v-22.156C496 128.862 447.138 80 387.079 80zM480 211.078C480 262.315 438.315 304 387.079 304c-6.77 0-13.551-.744-20.158-2.213l-61.186-13.597-3.471 15.619L320 307.751V464c0 8.822-7.178 16-16 16h-16c-8.822 0-16-7.178-16-16V184c0-48.523 39.477-88 88-88h27.079C438.315 96 480 137.685 480 188.922zM360 112h8v16h-8c-30.878 0-56 25.121-56 56v24h-16v-24c0-39.701 32.299-72 72-72zm-72 304h16v48h-16zm0-192h16v16h-16zM256 72a8 8 0 1 1-16 0 8 8 0 0 1 16 0zm-8-40c18.262 0 34.192 12.339 38.739 30.006l-15.495 3.988C268.518 55.399 258.959 48 248 48s-20.518 7.399-23.244 17.994l-15.495-3.988C213.808 44.339 229.738 32 248 32zm0-16c-25.569 0-47.872 17.269-54.236 41.994l-15.495-3.988C186.453 22.208 215.128 0 248 0s61.547 22.208 69.731 54.006l-15.495 3.988C295.872 33.269 273.569 16 248 16z" data-original="url(#a)"/></g></svg>