<svg xmlns="http://www.w3.org/2000/svg" xmlns:xlink="http://www.w3.org/1999/xlink"  version="1.1" width="512" height="512" x="0" y="0" viewBox="0 0 272 496" style="enable-background:new 0 0 512 512" xml:space="preserve"><g><linearGradient id="a" x1="136" x2="136" y1="496" y2="0" gradientUnits="userSpaceOnUse"><stop offset="0" stop-color="#9f2fff"/><stop offset="1" stop-color="#0bb1d3"/></linearGradient><path fill="url(#a)" d="M128 136a8 8 0 1 1 16 0 8 8 0 0 1-16 0zm8 56a8 8 0 1 0 0 16 8 8 0 0 0 0-16zm0 80a8 8 0 1 0 0-16 8 8 0 0 0 0 16zM24 432h19.869C26.603 413.725 16 389.091 16 362.024c0-23.809 8.394-46.994 23.636-65.283L96 229.103V110.624C86.689 107.322 80 98.429 80 88c0-12.485 9.583-22.774 21.779-23.898l-5.096-20.383A22.918 22.918 0 0 1 96 38.167a22.741 22.741 0 0 1 6.704-16.185L116.687 8c5.159-5.159 12.018-8 19.313-8s14.155 2.841 19.313 8l13.982 13.982A22.738 22.738 0 0 1 176 38.167c0 1.868-.229 3.735-.683 5.549l-5.097 20.386C182.417 65.226 192 75.515 192 88c0 10.429-6.689 19.322-16 22.624v118.479l56.364 67.638C247.606 315.03 256 338.216 256 362.024c0 27.066-10.603 51.7-27.869 69.976H248c13.233 0 24 10.767 24 24v16c0 13.233-10.767 24-24 24H24c-13.233 0-24-10.767-24-24v-16c0-13.233 10.767-24 24-24zm224 16h-39.192c-15.834 10.125-34.635 16-54.784 16h-36.048c-20.148 0-38.95-5.875-54.784-16H24c-4.411 0-8 3.589-8 8v16c0 4.411 3.589 8 8 8h224c4.411 0 8-3.589 8-8v-16c0-4.411-3.589-8-8-8zM112 112v48h48v-48zm48 128h-48v48h48zm-48-16h48v-48h-48zm0 128h48v-48h-48zm0 16v29.244c6.096-5.708 13.396-10.142 21.47-12.834l2.53-.843 2.53.843c8.074 2.692 15.374 7.126 21.47 12.834V368zm-27.04 73.398A85.492 85.492 0 0 0 117.976 448h36.048a85.492 85.492 0 0 0 33.016-6.602C182.569 435.596 175.563 432 168 432h-5.766l-1.823-5.47c-3.932-11.797-12.954-21.35-24.411-26.006-11.457 4.656-20.479 14.209-24.411 26.006l-1.823 5.47H104c-7.563 0-14.569 3.596-19.04 9.398zM240 362.024c0-14.774-3.846-29.256-10.993-42.024H176v32h16v16h-16v48.824c10.313 2.122 19.412 8.271 25.254 16.99 23.32-15.393 38.746-41.818 38.746-71.79zm-64-107.927V304h41.587zM96 88c0 4.411 3.589 8 8 8h64c4.411 0 8-3.589 8-8s-3.589-8-8-8h-18.246l10.041-40.162a6.914 6.914 0 0 0 .206-1.671c0-1.84-.717-3.57-2.018-4.871L144 19.313c-2.137-2.137-4.978-3.313-8-3.313s-5.863 1.177-8 3.313l-13.982 13.982A6.844 6.844 0 0 0 112 38.166c0 .563.069 1.126.206 1.673L122.246 80H104c-4.411 0-8 3.589-8 8zm0 166.097L54.414 304H96zM32 362.024c0 29.972 15.426 56.396 38.746 71.79 5.842-8.719 14.941-14.868 25.254-16.99V368H80v-16h16v-32H42.993C35.846 332.768 32 347.251 32 362.024z" data-original="url(#a)"/></g></svg>