<svg xmlns="http://www.w3.org/2000/svg" xmlns:xlink="http://www.w3.org/1999/xlink"  version="1.1" width="512" height="512" x="0" y="0" viewBox="0 0 496 496" style="enable-background:new 0 0 512 512" xml:space="preserve"><g><linearGradient id="a" x1="248" x2="248" y1="496" y2="0" gradientUnits="userSpaceOnUse"><stop offset="0" stop-color="#9f2fff"/><stop offset="1" stop-color="#0bb1d3"/></linearGradient><path fill="url(#a)" d="M231.031 208c-6.574 0-13.008 2.664-17.656 7.313l-30.063 30.062c-4.648 4.648-7.312 11.082-7.312 17.656 0 13.77 11.2 24.969 24.969 24.969 6.574 0 13.008-2.664 17.656-7.313l30.063-30.062c4.648-4.648 7.312-11.082 7.312-17.656 0-13.77-11.2-24.969-24.969-24.969zm-23.719 61.375A9.03 9.03 0 0 1 200.97 272c-4.946 0-8.969-4.023-8.969-8.969a9.03 9.03 0 0 1 2.625-6.344l9.375-9.375L216.688 260zm30.063-30.063L228 248.688 215.312 236l9.375-9.375a9.03 9.03 0 0 1 6.344-2.625c4.946 0 8.969 4.023 8.969 8.969a9.03 9.03 0 0 1-2.625 6.344zM472 288c-13.23 0-24 10.77-24 24 0 3.695.902 7.16 2.406 10.281L296.97 475.72A14.719 14.719 0 0 1 286.625 480c-8.066 0-14.625-6.559-14.625-14.625 0-3.855 1.559-7.621 4.281-10.344l138.75-138.75c5.785-5.785 8.969-13.472 8.969-21.656C424 277.742 410.258 264 393.375 264c-8.176 0-15.871 3.184-21.656 8.969l-170.75 170.75A14.719 14.719 0 0 1 190.625 448c-8.066 0-14.625-6.559-14.625-14.625 0-3.855 1.559-7.621 4.281-10.344l66.75-66.75c5.785-5.785 8.969-13.472 8.969-21.656 0-13.89-9.36-25.512-22.063-29.25l90.11-90.11 61.512-14.472C431.742 189.922 464 149.191 464 101.753 464 45.649 418.352 0 362.246 0 314.81 0 274.078 32.258 263.2 78.441l-14.472 61.512L20.687 368l10.16 10.168-16.07 48.191 5.993 5.551L8.96 443.72C3.185 449.504 0 457.19 0 465.375 0 482.258 13.742 496 30.625 496c8.184 0 15.871-3.184 21.656-8.969l162.75-162.75A14.719 14.719 0 0 1 225.375 320c8.066 0 14.625 6.559 14.625 14.625 0 3.855-1.559 7.621-4.281 10.344l-66.75 66.75c-5.785 5.785-8.969 13.472-8.969 21.656C160 450.258 173.742 464 190.625 464c8.176 0 15.871-3.184 21.656-8.969l170.75-170.75A14.719 14.719 0 0 1 393.375 280c8.066 0 14.625 6.559 14.625 14.625 0 3.855-1.559 7.621-4.281 10.344l-138.75 138.75c-5.785 5.785-8.969 13.472-8.969 21.656C256 482.258 269.742 496 286.625 496c8.184 0 15.871-3.184 21.656-8.969L461.72 333.594c3.12 1.504 6.586 2.406 10.281 2.406 13.23 0 24-10.77 24-24s-10.77-24-24-24zM362.246 16C409.527 16 448 54.473 448 101.754a85.592 85.592 0 0 1-11.68 43.254L318.992 27.68A85.613 85.613 0 0 1 362.246 16zm-56.414 21.152 121.016 121.016c-3.938 4.496-8.32 8.617-13.153 12.223L293.61 50.297c3.606-4.824 7.727-9.207 12.223-13.145zm-27.047 44.961c1.473-6.234 3.64-12.129 6.32-17.699l114.489 114.488c-5.57 2.684-11.465 4.852-17.7 6.32L322.513 199.2l-57.703-57.703zM256 155.313 308.687 208 296 220.688 243.312 168zM40.969 475.719A14.719 14.719 0 0 1 30.625 480C22.559 480 16 473.441 16 465.375c0-3.855 1.559-7.621 4.281-10.344l12.223-12.222 6.105 5.656 43.871-14.258zm-7.754-54.078 10.273-30.832 29.617 29.617-30.52 9.91zM96 420.687 43.312 368 56 355.312 108.687 408zM203.719 312.97 120 396.688 67.312 344 232 179.312 284.687 232zM472 320c-4.414 0-8-3.586-8-8s3.586-8 8-8 8 3.586 8 8-3.586 8-8 8zm0 0" data-original="url(#a)"/></g></svg>