<svg xmlns="http://www.w3.org/2000/svg" xmlns:xlink="http://www.w3.org/1999/xlink"  version="1.1" width="512" height="512" x="0" y="0" viewBox="0 0 62 62" style="enable-background:new 0 0 512 512" xml:space="preserve"><g><linearGradient id="a" x1="31" x2="31" y1="62" y2="0" gradientUnits="userSpaceOnUse"><stop offset="0" stop-color="#9f2fff"/><stop offset="1" stop-color="#0bb1d3"/></linearGradient><path fill="url(#a)" d="M59 38H40c-1.654 0-3 1.346-3 3v15h-2v-1c0-4.953-2.786-9.266-6.872-11.459 4.237-1.26 7.41-5.005 7.822-9.541H39c2.757 0 5-2.243 5-5a5.01 5.01 0 0 0-4-4.899V22c0-9.925-8.075-18-18-18S4 12.075 4 22v2.101A5.01 5.01 0 0 0 0 29c0 2.757 2.243 5 5 5h3.051c.411 4.536 3.584 8.281 7.822 9.541C11.786 45.734 9 50.047 9 55v5h13.556c.694 1.19 1.97 2 3.444 2h32c2.206 0 4-1.794 4-4V41c0-1.654-1.346-3-3-3zm-20 3c0-.552.449-1 1-1h1v16h-2zm-19.215 5.918-2.016 2.52-.404-4.4c.338-.158.684-.299 1.039-.423zM21.566 46l-1.126-1.876C20.951 44.051 21.469 44 22 44s1.049.051 1.559.124L22.434 46zm4.031-1.384c.355.123.702.265 1.039.423l-.404 4.4-2.016-2.52zM23.111 18.75l-1.15-4.024-1.923.549 1.15 4.024c.094.329.228.636.382.932-.727.49-1.586.77-2.475.77a3.115 3.115 0 0 1-2.983-2.25l-1.15-4.024-1.923.549.781 2.735a5.968 5.968 0 0 0-3.494 1.257C11.568 13.964 16.325 10 22 10c5.423 0 10.011 3.617 11.493 8.565a8.279 8.279 0 0 0-2.046-1.459 1.002 1.002 0 0 0-1.342.447l-.866 1.732A3.085 3.085 0 0 1 26.464 21h-.37a3.116 3.116 0 0 1-2.983-2.25zM6 26h2v6H6zm32 6h-2v-6h2zm4-3a2.996 2.996 0 0 1-2 2.816v-5.631c1.161.413 2 1.513 2 2.815zM22 6c8.822 0 16 7.178 16 16v2h-2v-2c0-7.72-6.28-14-14-14S8 14.28 8 22v2H6v-2c0-8.822 7.178-16 16-16zM2 29c0-1.302.839-2.402 2-2.816v5.631A2.994 2.994 0 0 1 2 29zm17 13c-4.962 0-9-4.037-9-9v-9c0-2.206 1.794-4 4-4h.453a5.123 5.123 0 0 0 4.641 3 6.444 6.444 0 0 0 3.74-1.201A5.1 5.1 0 0 0 26.095 23h.37a5.076 5.076 0 0 0 4.564-2.82l.384-.768a6.197 6.197 0 0 1 2.588 5.06V33c0 4.963-4.038 9-9 9zm-8 16v-3c0-3.615 1.76-6.818 4.461-8.824l.771 8.386L21.481 48h1.038l5.249 6.562.771-8.386C31.24 48.182 33 51.385 33 55v1H22v2zm15 2c-1.103 0-2-.897-2-2h17c0 1.103-.897 2-2 2zm32 0H42.444A3.959 3.959 0 0 0 43 58h17c0 1.103-.897 2-2 2zm2-4H43V40h16c.551 0 1 .448 1 1zm-9-14c-1.654 0-3 1.346-3 3s1.346 3 3 3 3-1.346 3-3-1.346-3-3-3zm0 4a1.001 1.001 0 0 1 0-2 1.001 1.001 0 0 1 0 2zM27 35v-1H17v1c0 2.757 2.243 5 5 5s5-2.243 5-5zm-5 3a3.006 3.006 0 0 1-2.829-2h5.657A3.004 3.004 0 0 1 22 38zm-6-11c-1.654 0-3 1.346-3 3h-2c0-2.757 2.243-5 5-5s5 2.243 5 5h-2c0-1.654-1.346-3-3-3zm9 3h-2c0-2.757 2.243-5 5-5s5 2.243 5 5h-2c0-1.654-1.346-3-3-3s-3 1.346-3 3zM51 0c-6.065 0-11 4.935-11 11s4.935 11 11 11 11-4.935 11-11S57.065 0 51 0zm0 20c-4.962 0-9-4.037-9-9s4.038-9 9-9 9 4.037 9 9-4.038 9-9 9zM50 7v5.184A2.966 2.966 0 0 0 49 12c-1.654 0-3 1.346-3 3s1.346 3 3 3 3-1.346 3-3V7c0-.552.449-1 1-1h2V4h-2c-1.654 0-3 1.346-3 3zm-1 9a1.001 1.001 0 0 1 0-2 1.001 1.001 0 0 1 0 2z" data-original="url(#a)"/></g></svg>