<svg xmlns="http://www.w3.org/2000/svg" xmlns:xlink="http://www.w3.org/1999/xlink"  version="1.1" width="512" height="512" x="0" y="0" viewBox="0 0 496 496" style="enable-background:new 0 0 512 512" xml:space="preserve" class=""><g><linearGradient id="a" x1="248" x2="248" y1="496" y2="0" gradientUnits="userSpaceOnUse"><stop offset="0" stop-color="#9f2fff"/><stop offset="1" stop-color="#0bb1d3"/></linearGradient><path fill="url(#a)" d="M474.234 25.102c-11.44-5.009-27.604-9.468-48.042-13.252C384.929 4.208 330.169 0 272 0S159.071 4.208 117.808 11.85c-20.439 3.785-36.603 8.244-48.042 13.252C64.382 27.459 48 34.631 48 48H16C7.178 48 0 55.178 0 64v16c0 8.822 7.178 16 16 16v288c0 26.467 21.533 48 48 48s48-21.533 48-48V253.313c1.997.889 4.018 1.737 6.079 2.51l57.868 21.7c-1.11 59.095-20.027 115.486-54.88 163.409l-6.006 8.258a15.901 15.901 0 0 0-3.06 9.411V480c0 8.822 7.178 16 16 16h288c8.822 0 16-7.178 16-16v-21.398c0-3.404-1.058-6.658-3.061-9.411l-6.005-8.257c-34.853-47.923-53.77-104.314-54.88-163.409l57.868-21.7c20.682-7.756 38.265-21.452 50.847-39.607C489.35 198.061 496 176.789 496 154.7V48c0-13.369-16.382-20.541-21.766-22.898zm-350.703 1.969C163.532 19.932 216.26 16 272 16s108.468 3.932 148.469 11.071C466.864 35.352 479.233 45.124 479.99 48c-.757 2.876-13.126 12.648-59.521 20.929C380.468 76.068 327.74 80 272 80s-108.468-3.932-148.469-11.071C77.136 60.648 64.767 50.876 64.01 48c.757-2.876 13.126-12.648 59.521-20.929zm239.364 235.3L358.549 264h-17.35l-20.444-46 34.234-77.026 1.097-.085 27.596 62.091zm30.269-38.053 10.172 22.887-20.93 7.849zM146.243 432.176C154.005 433.273 160 439.941 160 448h-24.324a307.623 307.623 0 0 0 10.567-15.824zm8.415-14.344c2.597-4.717 5.07-9.49 7.403-14.32C179.971 410.753 192 428.209 192 448h-16c0-13.909-8.922-25.767-21.342-30.168zm13.977-28.912c14.379-34.32 22.273-71.08 23.249-108.92h24.834c-5.783 15.277-8.718 31.367-8.718 48 0 51.89 29.216 97.079 72.058 120H208c0-26.176-15.792-49.286-39.365-59.08zm-8.316-185.94 27.596-62.091 1.097.085L223.245 218l-20.444 46h-17.35l-4.345-1.629zm1.274 52.073-20.93-7.849 10.172-22.887zM64 154.7v-38.545c2.331 1.238 4.402 2.146 5.766 2.743 9.263 4.056 21.626 7.751 36.846 11.02l-31.546 68.349C67.964 185.118 64 170.2 64 154.7zm285.762 191.885A43.515 43.515 0 0 1 352 360.374a69.78 69.78 0 0 1-8 32.511c-5.067-9.651-7.796-20.33-7.982-31.311a59.523 59.523 0 0 0 7.569-11.546l3.091-6.181a23.73 23.73 0 0 0 2.065-.32zM220.31 264 232 237.698 243.69 264zm62.316 16a59.402 59.402 0 0 0 7.292 17.599 59.534 59.534 0 0 0-19.356 8.412l-13.613 9.075A87.024 87.024 0 0 1 270.245 280zm37.527 42.677c.078.698.183 1.387.32 2.065l-3.058 1.019a43.515 43.515 0 0 1-13.789 2.238 43.472 43.472 0 0 1-24.189-7.324l-1.015-.675 1.015-.676a43.525 43.525 0 0 1 22.997-7.299 59.455 59.455 0 0 0 11.537 7.562zm9.123 20.196a43.527 43.527 0 0 1-8.168 11.333c-5.908 5.908-13.718 9.811-21.99 10.99l-8.456 1.205a73.09 73.09 0 0 1 10.44-22.458c.839.035 1.68.058 2.523.058a59.48 59.48 0 0 0 18.849-3.059l6.571-2.19c.541.433 1.1.844 1.677 1.23zm-73.198-18.54 14.483 9.656a59.595 59.595 0 0 0 13.646 6.767 89.18 89.18 0 0 0-9.456 23.255l-3.398 13.593C261.672 363.471 256 346.387 256 328c0-1.226.028-2.448.078-3.667zm45.297 56.703c6.958-.991 13.679-3.358 19.744-6.865a85.738 85.738 0 0 0 13.329 33.924l5.198 7.797c-25.244-1.236-47.724-13.161-63.006-31.332zM344 328c-4.411 0-8-3.589-8-8s3.589-8 8-8 8 3.589 8 8-3.589 8-8 8zm-20.941-29.525 2.19 6.571c-.433.541-.844 1.1-1.23 1.677l-2.893-1.446a43.527 43.527 0 0 1-11.333-8.168 43.437 43.437 0 0 1-10.551-17.108h20.765a59.512 59.512 0 0 0 3.052 18.474zM300.31 264 312 237.698 323.69 264zm-17.509 0h-21.602l-20.444-46L272 147.698 303.246 218zm5.018-120.105c16.832-.223 33.289-.802 49.125-1.716L312 198.302zM232 198.302l-24.944-56.123a1111.79 1111.79 0 0 0 49.125 1.716zm-79.395-17.361-15.989-45.683c10.831 1.596 22.358 2.987 34.443 4.161zM224 328c0-16.748 3.367-32.867 9.994-48h17.73C244.028 294.736 240 311.074 240 328c0 57.346 46.654 104 104 104 16.407 0 32.483-3.864 46.983-11.212A306.974 306.974 0 0 0 408.325 448H344c-66.168 0-120-53.832-120-120zm124.362 87.88 5.19-7.785a85.694 85.694 0 0 0 14.069-39.765 300.199 300.199 0 0 0 15.866 38.321 87.826 87.826 0 0 1-35.125 9.229zm4.728-118.087A23.86 23.86 0 0 0 344 296a24 24 0 0 0-4.743.473l-1.019-3.058a43.522 43.522 0 0 1-2.23-13.415h16.108c.154 5.96.478 11.892.974 17.793zm19.851-158.375c12.086-1.174 23.613-2.565 34.443-4.161l-15.989 45.683zm47.528-22.489C380.468 124.068 327.74 128 272 128s-108.468-3.932-148.469-11.071C76.793 108.587 64.586 98.732 64 96V68.155c2.331 1.238 4.402 2.146 5.766 2.743 11.44 5.009 27.604 9.468 48.042 13.252C159.071 91.792 213.831 96 272 96s112.929-4.208 154.192-11.85c20.439-3.785 36.603-8.244 48.042-13.252 1.364-.597 3.435-1.505 5.766-2.743v27.798c-.63 2.814-12.873 12.648-59.531 20.976zM16 64h32v16H16zm80 320c0 17.645-14.355 32-32 32s-32-14.355-32-32V96h16v58.7c0 22.089 6.65 43.36 19.232 61.516 7.812 11.273 17.555 20.823 28.768 28.302zM85.557 213.716l35.015-75.865 22.549 64.427-17.466 39.299-1.959-.735c-15.133-5.675-28.149-15.173-38.139-27.126zM128 480v-16h288v16zm292.303-239.158-1.959.735-17.466-39.299 22.549-64.427 35.015 75.866c-9.989 11.952-23.006 21.45-38.139 27.125zm48.631-42.575-31.546-68.349c15.22-3.269 27.583-6.964 36.846-11.02 1.364-.597 3.435-1.505 5.766-2.743V154.7c0 15.5-3.964 30.418-11.066 43.567zM200 368a8 8 0 1 1-16 0 8 8 0 0 1 16 0zm16 32a8 8 0 1 1-16 0 8 8 0 0 1 16 0zm16 32a8 8 0 1 1-16 0 8 8 0 0 1 16 0z" data-original="url(#a)" class=""/></g></svg>