<svg xmlns="http://www.w3.org/2000/svg" xmlns:xlink="http://www.w3.org/1999/xlink"  version="1.1" width="512" height="512" x="0" y="0" viewBox="0 0 64 64" style="enable-background:new 0 0 512 512" xml:space="preserve" class=""><g><linearGradient id="a" x1="32" x2="32" y1="63" y2="1" gradientUnits="userSpaceOnUse"><stop offset="0" stop-color="#9f2fff"/><stop offset="1" stop-color="#0bb1d3"/></linearGradient><path fill="url(#a)" d="M28.545 28.302C28.942 29.891 30.362 31 32 31s3.059-1.109 3.455-2.698L36.281 25h-8.562zM33.719 27l-.205.817C33.341 28.514 32.718 29 32 29s-1.341-.486-1.515-1.183L30.281 27zm-6.426-3.707L28.586 22l-1.293-1.293 1.414-1.414L31.414 22l-2.707 2.707zM32.586 22l2.707-2.707 1.414 1.414L35.414 22l1.293 1.293-1.414 1.414zM57 48.5V26c0-2.757-2.243-5-5-5a4.952 4.952 0 0 0-3.003 1.028c0-.01.003-.018.003-.028 0-1.627-.793-3.061-2-3.974V16c0-8.271-6.729-15-15-15S17 7.729 17 16v2.026c-1.207.914-2 2.348-2 3.974 0 .01.003.018.003.028A4.952 4.952 0 0 0 12 21c-2.757 0-5 2.243-5 5v22.5c0 4.687 3.813 8.5 8.5 8.5 1.32 0 2.628-.325 3.805-.913l-.237 1.421a5.092 5.092 0 0 0-.068.825c0 1.342.522 2.604 1.472 3.553L21.586 63h20.828l1.114-1.114A4.988 4.988 0 0 0 45 58.333c0-.274-.023-.552-.068-.825l-.237-1.421A8.548 8.548 0 0 0 48.5 57c4.687 0 8.5-3.813 8.5-8.5zM50.883 33H55v2h-4.367zM52 23c1.654 0 3 1.346 3 3v5h-4.465l-.039-.059A8.883 8.883 0 0 1 49 26c0-1.654 1.346-3 3-3zM34.87 42.312a1.997 1.997 0 0 0-1.494-1.273l4.91-4.91-1.628-2.442a9.082 9.082 0 0 0 2.222-1.896l2.947 1.965A2.618 2.618 0 0 1 43 35.943c0 .919-.49 1.784-1.278 2.257zm-5.74 0L22.278 38.2A2.645 2.645 0 0 1 21 35.943c0-.882.438-1.7 1.172-2.189l2.947-1.965a9.065 9.065 0 0 0 2.222 1.897l-1.628 2.441 4.911 4.911a1.999 1.999 0 0 0-1.494 1.274zM15.039 32.245l.129-.194A10.87 10.87 0 0 0 17 26c0-.01-.003-.018-.003-.028A4.952 4.952 0 0 0 20 27h3.059a8.933 8.933 0 0 0 .951 3.125l-2.948 1.965A4.623 4.623 0 0 0 19 35.943c0 .747.191 1.47.525 2.117l-3.342 3.342zM41 19h2v6h-2zm4 .184c1.161.414 2 1.514 2 2.816s-.839 2.402-2 2.816zM41 17h-.746a2.973 2.973 0 0 0-.38-.381l-4.25-3.399-1.249 1.562 4.249 3.399c.239.19.376.475.376.78V26c0 3.86-3.14 7-7 7s-7-3.14-7-7v-7.039c0-.305.137-.59.375-.781L29 15.281l4.375 3.5 1.249-1.562-5.624-4.5-4.875 3.9a3.039 3.039 0 0 0-.38.381H23v-1c0-4.962 4.038-9 9-9s9 4.038 9 9zm-5.287 18.872L32 39.586l-3.713-3.713.889-1.334c.889.295 1.837.461 2.824.461s1.935-.166 2.825-.461zM23 25h-2v-6h2zm8 20v-2h2l.001 2zm11.938-12.91-2.948-1.965A8.933 8.933 0 0 0 40.941 27H44a4.952 4.952 0 0 0 3.003-1.028c0 .01-.003.018-.003.028 0 2.161.633 4.253 1.832 6.051l.129.194-1.145 9.158-3.342-3.342A4.614 4.614 0 0 0 45 35.943a4.623 4.623 0 0 0-2.062-3.853zM19 16c0-7.168 5.832-13 13-13s13 5.832 13 13v1.101A4.995 4.995 0 0 0 44 17h-1v-1c0-6.065-4.935-11-11-11S21 9.935 21 16v1h-1c-.342 0-.677.035-1 .101zm0 3.184v5.631c-1.161-.414-2-1.514-2-2.816s.839-2.401 2-2.815zM12 23c1.654 0 3 1.346 3 3a8.883 8.883 0 0 1-1.496 4.941l-.039.059H9v-5c0-1.654 1.346-3 3-3zm1.117 10 .25 2H9v-2zm8.769 27.472a3.004 3.004 0 0 1-.845-2.636l1.578-9.466a3.403 3.403 0 0 1 1.829-2.476l-.895-1.789a5.408 5.408 0 0 0-2.907 3.937l-.9 5.398-.346.26a6.544 6.544 0 0 1-3.9 1.3A6.508 6.508 0 0 1 9 48.5V37h4.617l1.391 11.124 1.984-.248-.495-3.959 4.309-4.309c.141.109.287.214.443.307L29 44.566V45c0 1.103.897 2 2 2v14h-8.586zm21.468-12.43a5.41 5.41 0 0 0-2.907-3.937l-.895 1.789a3.402 3.402 0 0 1 1.829 2.476l1.578 9.466a3.004 3.004 0 0 1-.845 2.636l-.528.528H33V47c1.103 0 2-.897 2-2v-.434l7.751-4.651c.155-.093.301-.197.442-.307l4.309 4.309-.495 3.959 1.984.248L50.383 37H55v11.5c0 3.584-2.916 6.5-6.5 6.5a6.544 6.544 0 0 1-3.9-1.3l-.346-.26zM60 15c-1.654 0-3 1.346-3 3s1.346 3 3 3 3-1.346 3-3V7.52l-4.767-3.814A3.229 3.229 0 0 0 56.221 3 3.225 3.225 0 0 0 53 6.221V9h-1c-1.654 0-3 1.346-3 3s1.346 3 3 3 3-1.346 3-3V8.804l6 3.75V15zm1 3c0 .551-.449 1-1 1s-1-.449-1-1 .449-1 1-1h1zm-8-6c0 .551-.449 1-1 1s-1-.449-1-1 .449-1 1-1h1zm2-5.554v-.225a1.223 1.223 0 0 1 1.984-.953L61 8.48v1.715zM7 18c0 1.654 1.346 3 3 3s3-1.346 3-3-1.346-3-3-3H9V9.618a2.62 2.62 0 0 0-3.789-2.342L2.658 8.553A2.983 2.983 0 0 0 1 11.236v5.382l6-3zm2-1h1c.551 0 1 .449 1 1s-.449 1-1 1-1-.449-1-1zm-6-3.618v-2.146c0-.381.212-.724.553-.894l2.553-1.276A.618.618 0 0 1 7 9.618v1.764zm12.211-9.754A3.005 3.005 0 0 0 12.234 1H12c-1.654 0-3 1.346-3 3s1.346 3 3 3h1.617l.391 3.124 1.984-.248zM12 5c-.551 0-1-.449-1-1s.449-1 1-1h.234a1 1 0 0 1 .992.876L13.367 5z" data-original="url(#a)" class=""/></g></svg>