<svg xmlns="http://www.w3.org/2000/svg" xmlns:xlink="http://www.w3.org/1999/xlink"  version="1.1" width="512" height="512" x="0" y="0" viewBox="0 0 496 496" style="enable-background:new 0 0 512 512" xml:space="preserve"><g><linearGradient id="a" x1="248" x2="248" y1="496" y2="0" gradientUnits="userSpaceOnUse"><stop offset="0" stop-color="#9f2fff"/><stop offset="1" stop-color="#0bb1d3"/></linearGradient><path fill="url(#a)" d="M352 368v16c-17.645 0-32 14.355-32 32h-16c0-26.468 21.533-48 48-48zm144-72v128c0 11.767-8.516 21.577-19.706 23.608L459.2 470.399C454.692 476.411 447.515 480 440 480s-14.692-3.589-19.2-9.601l-17.094-22.792c-10.02-1.818-17.896-9.873-19.433-19.987C368.61 440.606 348.652 448 328 448h-56v48h-48v-48h-40c-13.233 0-24-10.767-24-24s10.767-24 24-24h9.376a23.89 23.89 0 0 1-1.376-8c0-6.142 2.322-11.75 6.131-16-3.809-4.25-6.131-9.858-6.131-16 0-2.804.483-5.497 1.371-8H168c-13.234 0-24-10.767-24-24s10.766-24 24-24h32.695c-5.442-6.997-8.695-15.777-8.695-25.308a24 24 0 0 1 7.075-17.081 19.298 19.298 0 0 1 4.011-3.056l-3.482-10.447L137.485 272H97.889l-28.622 14.311A16.077 16.077 0 0 1 62.112 288h-3.877c-2.477 0-4.871-.352-7.144-.997-1.981 3.263-3.09 7.036-3.09 10.885V496H32V297.889c0-7.003 2.048-13.881 5.754-19.756A26.102 26.102 0 0 1 32 261.766a15.98 15.98 0 0 1 10.94-15.179l41.298-13.766 31.538-23.654.646-.322 99.268-49.634C201.901 156.531 192 147.294 192 136c0-13.458 14.056-24 32-24 5.87 0 11.318 1.134 16 3.123V78.246l-48-12V104c0 13.458-14.056 24-32 24s-32-10.542-32-24 14.056-24 32-24c5.87 0 11.318 1.134 16 3.123V13.754l64.97 16.242A18.99 18.99 0 0 1 240 24c0-13.458 14.056-24 32-24s32 10.542 32 24v72h-16V44.877C283.318 46.866 277.87 48 272 48s-11.318-1.134-16-3.123V136c0 1.086-.101 2.151-.279 3.195l50.688-25.344 17.607-28.171C338.762 62.086 364.176 48 392 48c39.701 0 72 32.299 72 72s-32.299 72-72 72h-46.514l-41.563 15.986c-.643 8.387-5.571 15.782-13.191 19.591L272 236.944V272h56c20.652 0 40.61 7.394 56.273 20.38 1.537-10.115 9.412-18.169 19.433-19.987l17.094-22.792c4.508-6.012 11.685-9.601 19.2-9.601s14.692 3.589 19.2 9.601l17.094 22.792C487.485 274.423 496 284.233 496 296zM256 24c0 3.262 6.233 8 16 8s16-4.738 16-8-6.233-8-16-8-16 4.738-16 8zm-80 80c0-3.262-6.233-8-16-8s-16 4.738-16 8 6.233 8 16 8 16-4.738 16-8zm64-42.246V46.246l-48-12v15.508zM224 144c9.767 0 16-4.738 16-8s-6.233-8-16-8-16 4.738-16 8 6.233 8 16 8zm209.601 115.2L424 272h32l-9.6-12.8c-1.503-2.004-3.896-3.2-6.4-3.2s-4.897 1.196-6.399 3.2zM288 180.944a4.95 4.95 0 0 0-4.944-4.944c-.764 0-1.528.181-2.211.522l-65.932 32.966a12.435 12.435 0 0 0-6.912 11.185c0 1.346.216 2.676.642 3.954l10.887 32.66a19.205 19.205 0 0 1 3.719 1.93 75.82 75.82 0 0 0 32.752 12.185v-44.346l27.578-13.789a7.955 7.955 0 0 0 4.422-7.155v-25.168zM448 120a55.66 55.66 0 0 0-5.187-23.499l-41.886 41.886 14.438 32.486C434.606 162.001 448 142.541 448 120zm-28.14-48.547-33.703 33.703 7.807 17.565 39.881-39.881a56.384 56.384 0 0 0-13.985-11.387zM392 64a64.427 64.427 0 0 0-22.365 3.981l9.56 21.51 24.3-24.3A56.053 56.053 0 0 0 392 64zm-47.029 20.486L385.643 176H392c2.676 0 5.306-.201 7.883-.566L355.42 75.394a63.743 63.743 0 0 0-10.449 9.092zm-23.809 35.95L348.944 176h19.19l-33.953-76.395zM101.766 256H124.9l-8.98-26.94-18.508 13.88zm-15.55 3.947-3.276-9.828L48 261.767C48 267.409 52.591 272 58.234 272h3.877zm108.323-27.033-1.076-3.228a28.45 28.45 0 0 1-1.463-9.014c0-10.867 6.038-20.637 15.757-25.495l65.932-32.967a21.06 21.06 0 0 1 9.366-2.211c11.549 0 20.944 9.396 20.944 20.944v9.869l28.904-11.117-24.481-48.963-178.639 89.319 11.158 33.475zM216 368h48c4.411 0 8-3.589 8-8s-3.589-8-8-8h-48c-4.411 0-8 3.589-8 8s3.589 8 8 8zm40-48h-16v16h16zm-32 16v-16h-56c-4.411 0-8 3.589-8 8s3.589 8 8 8zm-8 64h48c4.411 0 8-3.589 8-8s-3.589-8-8-8h-48c-4.411 0-8 3.589-8 8s3.589 8 8 8zm8 32v-16h-40c-4.411 0-8 3.589-8 8s3.589 8 8 8zm32 48v-64h-16v64zm128-74.755v-90.49C370.413 297.958 349.675 288 328 288h-62.536a91.816 91.816 0 0 1-51.091-15.47c-1.222-.815-2.946-.644-3.985.396a8.104 8.104 0 0 0-2.388 5.767C208 292.647 219.353 304 233.308 304h36.458l1.823 5.47c4.217 12.652 14.289 22.724 26.94 26.94l-5.06 15.18a57.953 57.953 0 0 1-8.812-3.786A23.833 23.833 0 0 1 288 360c0 6.142-2.322 11.751-6.131 16 3.809 4.25 6.131 9.858 6.131 16 0 10.429-6.689 19.321-16 22.624V432h56c21.675 0 42.413-9.958 56-26.755zm62.399 55.555L456 448h-32l9.6 12.8c1.503 2.004 3.896 3.2 6.4 3.2s4.897-1.196 6.399-3.2zM480 296c0-4.411-3.589-8-8-8h-64c-4.411 0-8 3.589-8 8v128c0 4.411 3.589 8 8 8h64c4.411 0 8-3.589 8-8zm-16 32c0 13.233-10.766 24-24 24s-24-10.767-24-24 10.766-24 24-24 24 10.767 24 24zm-16 0c0-4.411-3.589-8-8-8s-8 3.589-8 8 3.589 8 8 8 8-3.589 8-8zm16 64c0 13.233-10.766 24-24 24s-24-10.767-24-24 10.766-24 24-24 24 10.767 24 24zm-16 0c0-4.411-3.589-8-8-8s-8 3.589-8 8 3.589 8 8 8 8-3.589 8-8zM0 216c0-13.458 14.056-24 32-24 5.87 0 11.318 1.134 16 3.123v-85.369l80 20v48.492l-64-16V216c0 13.458-14.056 24-32 24S0 229.458 0 216zm64-70.246 48 12v-15.508l-48-12zM16 216c0 3.262 6.233 8 16 8s16-4.738 16-8-6.233-8-16-8-16 4.738-16 8z" data-original="url(#a)"/></g></svg>