<svg xmlns="http://www.w3.org/2000/svg" xmlns:xlink="http://www.w3.org/1999/xlink"  version="1.1" width="512" height="512" x="0" y="0" viewBox="0 0 62 62.344" style="enable-background:new 0 0 512 512" xml:space="preserve"><g><linearGradient id="a" x1="31" x2="31" y1="62.344" y2="0" gradientUnits="userSpaceOnUse"><stop offset="0" stop-color="#9f2fff"/><stop offset="1" stop-color="#0bb1d3"/></linearGradient><path fill="url(#a)" d="M50 24.344h-2c0-1.103-.897-2-2-2s-2 .897-2 2h-2c0-2.206 1.794-4 4-4s4 1.795 4 4zm-16 0h2c0-2.206-1.794-4-4-4s-4 1.794-4 4h2c0-1.103.897-2 2-2s2 .897 2 2zm-2 4h14v1c0 3.859-3.141 7-7 7s-7-3.141-7-7zm2.101 2c.465 2.279 2.484 4 4.899 4s4.435-1.721 4.899-4zm27.899-7v4c0 2.757-2.243 5-5 5h-3.051c-.368 4.065-2.955 7.494-6.538 9.07A5.996 5.996 0 0 1 50 46.344v5c0 4.963-4.037 9-9 9h-9.184a2.996 2.996 0 0 1-2.816 2H3c-1.654 0-3-1.346-3-3v-26c0-1.654 1.346-3 3-3h3v14.184a2.966 2.966 0 0 1 1-.184h1v-8.133l10 1.25v6.016l-8-1v4.867c0 1.654-1.346 3-3 3-.352 0-.686-.072-1-.184v6.184h16V38.16a2.996 2.996 0 0 1-2-2.816v-3.101a5.009 5.009 0 0 1-4-4.899v-4a5.01 5.01 0 0 1 4-4.899v-3.101c0-8.271 6.729-15 15-15h8c8.271 0 15 6.729 15 15v3.101a5.01 5.01 0 0 1 4 4.899zM10 40.461l6 .75v-1.984l-6-.75zm33.343-26.117A14.53 14.53 0 0 1 52 17.192v-1.848c0-4.962-4.037-9-9-9h-8c-4.963 0-9 4.038-9 9v1.093a8.151 8.151 0 0 1 4.357-2.015A6.338 6.338 0 0 1 30 12.344h2c0 2.288 1.786 4.229 4.065 4.418l5.737.478-.054-.321a7.808 7.808 0 0 0-4.196-5.681l.895-1.789a9.81 9.81 0 0 1 4.612 4.895zm-3.803 28h-.346A7.761 7.761 0 0 0 34 49.668v.676h4v-4c0-1.537.586-2.937 1.54-4zm-4.238 0H35c-4.027 0-7.545-2.181-9.462-5.418A3.001 3.001 0 0 1 24 38.16v13.725a5.97 5.97 0 0 1 4-1.54h4v-.676a9.758 9.758 0 0 1 3.302-7.325zM24 20.344h-2v10h2zm-2 15a1 1 0 0 0 2 0v-3h-2zm32-5h2v-10h-2zm-32-15v3h2v-3c0-6.065 4.935-11 11-11h8c6.065 0 11 4.935 11 11v3h2v-3c0-7.168-5.832-13-13-13h-8c-7.168 0-13 5.832-13 13zM20 30.16v-9.631a2.996 2.996 0 0 0-2 2.816v4c0 1.301.839 2.401 2 2.815zm4 26.184h6v-4h-2c-2.206 0-4 1.794-4 4zm-18-9a1 1 0 0 0 2 0v-1H7a1 1 0 0 0-1 1zm-4-14v23h2v-24H3a1 1 0 0 0-1 1zm28 26v-1H2v1a1 1 0 0 0 1 1h26a1 1 0 0 0 1-1zm18-13c0-2.206-1.794-4-4-4s-4 1.794-4 4v4.586l2.707 2.707-1.414 1.414-2.707-2.707H32v6h9c3.859 0 7-3.141 7-7zm4-15V19.786a12.544 12.544 0 0 0-8.331-3.425c.015.078.04.152.053.231l.476 2.857-8.298-.692a6.429 6.429 0 0 1-4.479-2.408 6.19 6.19 0 0 0-5.42 3.265v11.732c0 4.963 4.037 9 9 9h8C47.963 40.344 52 36.307 52 31.344zm8-8a2.996 2.996 0 0 0-2-2.816v9.631a2.996 2.996 0 0 0 2-2.816zm-44-13V7.688l-8 2.4v6.256c0 2.206-1.794 4-4 4s-4-1.794-4-4 1.794-4 4-4h2V3.6L18 0v14.344c0 2.206-1.794 4-4 4s-4-1.794-4-4 1.794-4 4-4zm0 2h-2c-1.103 0-2 .897-2 2s.897 2 2 2 2-.897 2-2zm-10 2H4c-1.103 0-2 .897-2 2s.897 2 2 2 2-.897 2-2zM16 5.6V2.688l-8 2.4V8zm46 40.744v14h-2v-10h-2c-2.206 0-4-1.794-4-4s1.794-4 4-4 4 1.794 4 4zm-2 0c0-1.103-.897-2-2-2s-2 .897-2 2 .897 2 2 2h2z" data-original="url(#a)"/></g></svg>