<svg xmlns="http://www.w3.org/2000/svg" xmlns:xlink="http://www.w3.org/1999/xlink"  version="1.1" width="512" height="512" x="0" y="0" viewBox="0 0 496 496" style="enable-background:new 0 0 512 512" xml:space="preserve"><g><linearGradient id="a" x1="248" x2="248" y1="496" y2="0" gradientUnits="userSpaceOnUse"><stop offset="0" stop-color="#9f2fff"/><stop offset="1" stop-color="#0bb1d3"/></linearGradient><path fill="url(#a)" d="M469.756 357.934 464 355.056V328c0-13.234-10.766-24-24-24s-24 10.766-24 24v25.376a23.885 23.885 0 0 0-8-1.376c-6.142 0-11.751 2.322-16 6.131-4.249-3.809-9.858-6.131-16-6.131-2.805 0-5.496.488-8 1.376V344c0-10.429-6.689-19.321-16-22.624V320c26.467 0 48-21.533 48-48 0-5.159-.828-10.126-2.341-14.787l67.334-22.445A21.92 21.92 0 0 0 480 213.947c0-12.102-9.846-21.947-21.947-21.947h-37.41a4.648 4.648 0 0 1-4.643-4.643c0-.807.211-1.604.611-2.303l26.847-46.982A34.526 34.526 0 0 0 448 120.97C448 107.202 436.798 96 423.029 96c-6.67 0-12.94 2.598-17.657 7.314l-38.059 38.059A8.912 8.912 0 0 1 360.97 144c-4.946 0-8.971-4.024-8.971-8.971 0-3.921.546-7.82 1.624-11.59l13.528-47.35a22.02 22.02 0 0 0 .848-6.055C368 57.885 358.116 48 345.966 48a26.569 26.569 0 0 0-22.15 11.854L302.498 91.83a9.344 9.344 0 0 1-7.79 4.169 9.334 9.334 0 0 1-9.235-7.823l-10.952-65.71C272.352 9.449 261.198 0 248 0s-24.352 9.449-26.521 22.467l-10.952 65.709a9.334 9.334 0 0 1-9.235 7.823 9.346 9.346 0 0 1-7.79-4.169l-21.318-31.977A26.569 26.569 0 0 0 150.034 48C137.884 48 128 57.885 128 70.034c0 2.049.285 4.085.848 6.054l13.529 47.352a42.184 42.184 0 0 1 1.624 11.59c0 4.946-4.024 8.971-8.971 8.971a8.912 8.912 0 0 1-6.343-2.627l-38.059-38.059C85.911 98.598 79.641 96 72.971 96 59.202 96 48 107.202 48 120.971a34.532 34.532 0 0 0 4.542 17.102l26.846 46.981c.4.7.612 1.497.612 2.304a4.648 4.648 0 0 1-4.643 4.643h-37.41C25.846 192 16 201.846 16 213.947a21.92 21.92 0 0 0 15.007 20.821l67.334 22.445A47.806 47.806 0 0 0 96 272c0 26.467 21.533 48 48 48v1.376c-9.311 3.303-16 12.195-16 22.624v9.376a23.885 23.885 0 0 0-8-1.376c-6.142 0-11.751 2.322-16 6.131-4.249-3.809-9.858-6.131-16-6.131-2.805 0-5.496.488-8 1.376V328c0-13.234-10.766-24-24-24s-24 10.766-24 24v27.056l-5.756 2.878C10.056 366.027 0 382.299 0 400.397a47.26 47.26 0 0 0 3.396 17.632l17.107 42.768C29.057 482.182 49.466 496 72.498 496H120c30.878 0 56-25.122 56-56v-28.159C191.622 424.688 211.467 432 232 432h32c20.533 0 40.378-7.312 56-20.159V440c0 30.878 25.122 56 56 56h47.502c23.032 0 43.441-13.818 51.995-35.202l17.108-42.769A47.27 47.27 0 0 0 496 400.398c0-18.099-10.056-34.371-26.244-42.464zM160 248c0-4.411 3.589-8 8-8h48c4.411 0 8 3.589 8 8v32c0 4.411-3.589 8-8 8h-48c-4.411 0-8-3.589-8-8zm72-17.869c-4.249-3.809-9.858-6.131-16-6.131h-48c-1.729 0-3.415.188-5.041.537C169.858 205.578 188.058 192 209.373 192c12.455 0 24.164 4.85 32.971 13.657l5.657 5.657 5.657-5.657C262.463 196.85 274.173 192 286.627 192c21.315 0 39.515 13.578 46.413 32.537A23.981 23.981 0 0 0 328 224h-48c-6.142 0-11.751 2.322-16 6.131-4.249-3.809-9.858-6.131-16-6.131s-11.751 2.322-16 6.131zM272 248c0-4.411 3.589-8 8-8h48c4.411 0 8 3.589 8 8v32c0 4.411-3.589 8-8 8h-48c-4.411 0-8-3.589-8-8zm80 56v-16c0-8.822 7.178-16 16-16v-16a31.793 31.793 0 0 0-16 4.305v-18.932c0-.46-.025-.914-.035-1.373H352c17.645 0 32 14.355 32 32s-14.355 32-32 32zM36.066 219.589A5.94 5.94 0 0 1 32 213.947 5.954 5.954 0 0 1 37.947 208h37.41C86.74 208 96 198.74 96 187.357c0-3.586-.94-7.127-2.72-10.242l-26.847-46.982a18.5 18.5 0 0 1-2.434-9.163c0-4.946 4.024-8.971 8.971-8.971 2.396 0 4.649.933 6.343 2.627l38.059 38.059c4.716 4.716 10.987 7.314 17.657 7.314C148.798 160 160 148.798 160 135.029a58.16 58.16 0 0 0-2.239-15.986l-13.529-47.352A6.041 6.041 0 0 1 150.034 64c3.56 0 6.863 1.768 8.837 4.729l21.318 31.977a25.314 25.314 0 0 0 21.103 11.293 25.283 25.283 0 0 0 25.017-21.192l10.952-65.71C238.14 19.826 242.656 16 248 16s9.86 3.826 10.739 9.098l10.952 65.71A25.282 25.282 0 0 0 294.708 112a25.313 25.313 0 0 0 21.103-11.294l21.318-31.977A10.599 10.599 0 0 1 345.966 64a6.041 6.041 0 0 1 5.802 7.692l-13.529 47.351A58.199 58.199 0 0 0 336 135.029C336 148.798 347.202 160 360.971 160c6.67 0 12.94-2.598 17.657-7.314l38.059-38.059A8.912 8.912 0 0 1 423.03 112c4.946 0 8.971 4.024 8.971 8.971a18.49 18.49 0 0 1-2.434 9.163l-26.847 46.982a20.678 20.678 0 0 0-2.719 10.241C400 198.74 409.26 208 420.643 208h37.41a5.954 5.954 0 0 1 5.947 5.947 5.94 5.94 0 0 1-4.066 5.642l-69.824 23.275C381.329 231.407 367.517 224 352 224h-2.362c-7.63-27.638-32.98-48-63.011-48-14.184 0-27.649 4.684-38.627 13.319C237.021 180.684 223.557 176 209.373 176c-30.031 0-55.381 20.362-63.011 48H144c-15.517 0-29.329 7.407-38.11 18.864zM112 272c0-17.645 14.355-32 32-32h.035c-.01.458-.035.912-.035 1.373v18.932A31.793 31.793 0 0 0 128 256v16c8.822 0 16 7.178 16 16v16c-17.645 0-32-14.355-32-32zm48 168c0 22.056-17.944 40-40 40H72.498c-16.451 0-31.029-9.87-37.139-25.145l-17.107-42.768a31.342 31.342 0 0 1-2.251-11.69c0-11.465 6.096-21.811 16-27.392V400h16v-72c0-4.411 3.589-8 8-8s8 3.589 8 8v72h16v-24c0-4.411 3.589-8 8-8s8 3.589 8 8v24h16v-24c0-4.411 3.589-8 8-8s8 3.589 8 8v24h16v-56c0-4.411 3.589-8 8-8s8 3.589 8 8v96zm104-24h-32c-21.675 0-42.413-9.958-56-26.755V344c0-10.429-6.689-19.321-16-22.624v-18.752a23.885 23.885 0 0 0 8 1.376h48c13.234 0 24-10.766 24-24v-32c0-4.411 3.589-8 8-8s8 3.589 8 8v32c0 13.234 10.766 24 24 24h48c2.805 0 5.496-.488 8-1.376v18.752c-9.311 3.303-16 12.195-16 22.624v45.245C306.413 406.042 285.675 416 264 416zm213.749-3.913-17.107 42.768C454.532 470.13 439.954 480 423.502 480H376c-22.056 0-40-17.944-40-40v-96c0-4.411 3.589-8 8-8s8 3.589 8 8v56h16v-24c0-4.411 3.589-8 8-8s8 3.589 8 8v24h16v-24c0-4.411 3.589-8 8-8s8 3.589 8 8v24h16v-72c0-4.411 3.589-8 8-8s8 3.589 8 8v72h16v-26.994c9.904 5.581 16 15.927 16 27.392 0 4.021-.757 7.955-2.251 11.689zM264 320h-32c-22.056 0-40 17.944-40 40s17.944 40 40 40h32c22.056 0 40-17.944 40-40s-17.944-40-40-40zm0 64h-32c-13.234 0-24-10.766-24-24s10.766-24 24-24h32c13.234 0 24 10.766 24 24s-10.766 24-24 24zm-40-32h48v16h-48zm15.589-213.47-15.179-5.06L248 62.702l23.589 70.769-15.179 5.06-8.41-25.233zm-119.35 71.41-11.234-44.936 44.936 11.234-3.881 15.522-19.064-4.766 4.766 19.064zm55.916-40.371-10.896-54.481 53.712 21.485-5.942 14.855-26.288-10.515 5.104 25.519zm169.785 22.192-3.881-15.522 44.936-11.234-11.234 44.936-15.522-3.881 4.766-19.064zm-62.969-40.333-5.942-14.855 53.712-21.485-10.896 54.481-15.689-3.138 5.104-25.519z" data-original="url(#a)"/></g></svg>