<svg xmlns="http://www.w3.org/2000/svg" xmlns:xlink="http://www.w3.org/1999/xlink"  version="1.1" width="512" height="512" x="0" y="0" viewBox="0 0 24 24" style="enable-background:new 0 0 512 512" xml:space="preserve" class=""><g><linearGradient id="linear-gradient" gradientUnits="userSpaceOnUse" x1="6.76" x2="17.24" y1="12" y2="12"><stop stop-opacity="1" stop-color="#725ac1" offset="0"/><stop stop-opacity="1" stop-color="#7f00ff" offset="0.011583011583011582"/></linearGradient><g id="close"><path d="m13.41 12 3.59-3.54a1 1 0 0 0 -1.41-1.41l-3.59 3.54-3.54-3.54a1 1 0 0 0 -1.41 1.41l3.54 3.54-3.54 3.54a1 1 0 0 0 0 1.41 1 1 0 0 0 .71.29 1 1 0 0 0 .7-.29l3.54-3.54 3.54 3.59a1 1 0 0 0 .7.29 1 1 0 0 0 .76-.29 1 1 0 0 0 0-1.41z" fill="url(#linear-gradient)" data-original="url(#linear-gradient)"/></g></g></svg>