<svg xmlns="http://www.w3.org/2000/svg" xmlns:xlink="http://www.w3.org/1999/xlink"  version="1.1" width="512" height="512" x="0" y="0" viewBox="0 0 512 512" style="enable-background:new 0 0 512 512" xml:space="preserve" class=""><g><linearGradient id="a" x1="0" x2="512" y1="-26234" y2="-26234" gradientTransform="matrix(1 0 0 -1 0 -25978)" gradientUnits="userSpaceOnUse"><stop stop-opacity="1" stop-color="#85e4fd" offset="0"/><stop stop-opacity="1" stop-color="#e8b2e9" offset="1"/></linearGradient><path fill="url(#a)" d="M512 256c0 141.387-114.613 256-256 256S0 397.387 0 256 114.613 0 256 0s256 114.613 256 256zm0 0" data-original="url(#a)" class=""/><g fill="#fff"><path d="M427.063 131.16c-20.067-25.426-47.965-39.426-78.563-39.426-31.242 0-59.598 12.903-82 37.313a140.26 140.26 0 0 0-10.5 12.926 140.26 140.26 0 0 0-10.5-12.926c-22.402-24.41-50.758-37.313-82-37.313-30.598 0-58.496 14-78.559 39.426C66.277 154.81 56 186.152 56 219.418c0 39.7 14.898 83.289 40.871 119.598 34.418 48.109 86.371 83.937 154.41 106.492a14.99 14.99 0 0 0 9.438 0c68.039-22.555 119.992-58.383 154.41-106.492C441.105 302.707 456 259.117 456 219.418c0-33.266-10.277-64.61-28.938-88.258zM390.73 321.56C360.867 363.3 315.555 394.867 256 415.434c-59.555-20.567-104.867-52.133-134.73-93.875C89.437 277.062 86 235.305 86 219.418c0-48.016 28.988-97.684 77.5-97.684 22.637 0 42.578 9.051 59.262 26.91 13.11 14.032 19.273 28.485 19.379 28.739 2.324 5.601 7.78 9.281 13.847 9.281a14.963 14.963 0 0 0 13.867-9.281c.063-.145 6.223-14.653 19.383-28.738 16.684-17.86 36.621-26.91 59.262-26.91 48.512 0 77.5 49.667 77.5 97.683 0 15.887-3.438 57.644-35.27 102.14zm0 0" fill="#564f55" data-original="#ffffff" class=""/><path d="M310.871 269.68H271v-39.875c0-8.282-6.715-15-15-15s-15 6.718-15 15v39.875h-39.871c-8.285 0-15 6.715-15 15s6.715 15 15 15H241v39.87c0 8.286 6.715 15 15 15s15-6.714 15-15v-39.87h39.871c8.285 0 15-6.715 15-15s-6.715-15-15-15zm0 0" fill="#564f55" data-original="#ffffff" class=""/></g></g></svg>