<svg xmlns="http://www.w3.org/2000/svg" xmlns:xlink="http://www.w3.org/1999/xlink"  version="1.1" width="512" height="512" x="0" y="0" viewBox="0 0 512 512" style="enable-background:new 0 0 512 512" xml:space="preserve" class=""><g><linearGradient id="a" x1="0" x2="512" y1="-15414" y2="-15414" gradientTransform="matrix(1 0 0 -1 0 -15158)" gradientUnits="userSpaceOnUse"><stop stop-opacity="1" stop-color="#b0f9f8" offset="0.011583011583011582"/><stop stop-opacity="1" stop-color="#f4b6ef" offset="1"/></linearGradient><path fill="url(#a)" d="M512 256c0 141.387-114.613 256-256 256S0 397.387 0 256 114.613 0 256 0s256 114.613 256 256zm0 0" data-original="url(#a)" class=""/><path fill="#564f55" d="m256.004 448.934-7.496-4.32s-8.82-5.087-12.781-7.391c-9.5-5.524-59.18-35.22-104.508-77.532C81.309 313.105 56 269.332 56 229.586c0-33.113 10.863-61.621 31.422-82.438 19.59-19.84 46.605-30.765 76.078-30.765 41.27 0 73.062 19.89 91.95 57.523.187.367.37.739.55 1.106.18-.367.363-.739.55-1.106 18.887-37.633 50.684-57.523 91.95-57.523 29.473 0 56.488 10.926 76.078 30.765C445.137 167.965 456 196.473 456 229.586c0 39.746-25.309 83.52-75.223 130.11-45.328 42.308-95.011 72.003-104.511 77.527-3.957 2.3-12.77 7.386-12.77 7.386zM163.5 146.387c-45.633 0-77.5 34.21-77.5 83.199 0 67.926 107.805 148.559 164.809 181.703 1.343.785 3.257 1.89 5.187 3.008 1.934-1.117 3.844-2.227 5.191-3.008C318.191 378.141 426 297.508 426 229.586c0-48.988-31.867-83.2-77.5-83.2-29.574 0-51.492 13.786-65.14 40.977-10.696 21.309-12.38 43.278-12.391 43.492h-29.387l-.55.04c-.239-3.454-6.712-84.508-77.532-84.508zm0 0" data-original="#ffffff" class=""/></g></svg>