<svg xmlns="http://www.w3.org/2000/svg" xmlns:xlink="http://www.w3.org/1999/xlink"  version="1.1" width="512" height="512" x="0" y="0" viewBox="0 0 512 512" style="enable-background:new 0 0 512 512" xml:space="preserve" class=""><g><linearGradient id="SVGID_1_" gradientTransform="matrix(1 0 0 -1 0 514.5)" gradientUnits="userSpaceOnUse" x1="256.05" x2="256.05" y1="514.45" y2="2.45"><stop stop-opacity="1" stop-color="#fdb3ff" offset="0.013513513513513514"/><stop stop-opacity="1" stop-color="#afefff" offset="1"/></linearGradient><circle clip-rule="evenodd" cx="256" cy="256" fill="url(#SVGID_1_)" fill-rule="evenodd" r="256" data-original="url(#SVGID_1_)"/><g id="Layer_x0020_1"><g id="_549461064" clip-rule="evenodd" fill="#fffffe" fill-rule="evenodd"><path id="_549463752" d="m127.2 125.3c-7.2 0-12.9 5.8-12.9 12.9v235.5c0 7.1 5.8 12.9 12.9 12.9h257.4c7.2 0 12.9-5.8 12.9-12.9v-235.5c0-7.2-5.8-12.9-12.9-12.9zm257.6 267.8h-257.6c-10.7 0-19.4-8.7-19.4-19.4v-235.5c0-10.7 8.7-19.4 19.4-19.4h257.4c10.7 0 19.4 8.7 19.4 19.4v235.5c.1 10.8-8.5 19.4-19.2 19.4z" fill="#000000" data-original="#fffffe" class=""/><path id="_549463392" d="m400.9 177.1h-289.7c-1.8 0-3.2-1.4-3.2-3.2s1.4-3.2 3.2-3.2h289.7c1.8 0 3.2 1.4 3.2 3.2 0 1.7-1.5 3.2-3.2 3.2z" fill="#000000" data-original="#fffffe" class=""/><path id="_549463344" d="m362.4 139.4c-4.7 0-8.5 3.8-8.5 8.5s3.8 8.5 8.5 8.5c4.6 0 8.5-3.8 8.5-8.5s-3.9-8.5-8.5-8.5zm0 23.5c-8.3 0-15-6.7-15-15s6.7-15 15-15 15 6.7 15 15-6.9 15-15 15z" fill="#000000" data-original="#fffffe" class=""/><path id="_549463584" d="m318.5 139.4c-4.6 0-8.5 3.8-8.5 8.5s3.8 8.5 8.5 8.5 8.5-3.8 8.5-8.5-3.9-8.5-8.5-8.5zm0 23.5c-8.3 0-15-6.7-15-15s6.7-15 15-15 15 6.7 15 15-6.9 15-15 15z" fill="#000000" data-original="#fffffe" class=""/><path id="_549463200" d="m274.6 139.4c-4.7 0-8.5 3.8-8.5 8.5s3.8 8.5 8.5 8.5 8.5-3.8 8.5-8.5-3.7-8.5-8.5-8.5zm0 23.5c-8.3 0-15-6.7-15-15s6.7-15 15-15 15 6.7 15 15-6.7 15-15 15z" fill="#000000" data-original="#fffffe" class=""/><path id="_549463224" d="m309.5 348.4c.9 0 1.7.3 2.3 1l14.9 14.9 4-4-14.9-14.9c-.6-.6-1-1.4-1-2.3s.3-1.7 1-2.3l1.6-1.6-16-4.3 4.3 16 1.6-1.6c.5-.7 1.2-.9 2.2-.9zm17.1 23.6c-.9 0-1.7-.3-2.3-1l-15-15-3.2 3.2c-.8.8-2 1.2-3.1.8-1.1-.3-2-1.2-2.3-2.3l-7.2-26.8c-.3-1.1 0-2.3.8-3.1s2-1.2 3.1-.8l26.8 7.2c1.1.3 2 1.2 2.3 2.3s0 2.3-.8 3.1l-3.2 3.2 14.9 14.9c1.3 1.3 1.3 3.3 0 4.6l-8.5 8.5c-.5.8-1.4 1.2-2.3 1.2z" fill="#000000" data-original="#fffffe" class=""/><path id="_549463152" d="m302.4 354.6h-107.6c-1.8 0-3.2-1.4-3.2-3.2v-39.6c0-1.8 1.4-3.2 3.2-3.2h122.6c1.8 0 3.2 1.4 3.2 3.2v24c0 1.8-1.4 3.2-3.2 3.2s-3.2-1.4-3.2-3.2v-20.8h-116.3v33.2h104.4c1.8 0 3.2 1.4 3.2 3.2s-1.4 3.2-3.1 3.2z" fill="#000000" data-original="#fffffe" class=""/><path id="_549463536" d="m277.8 328h-43.4c-1.8 0-3.2-1.4-3.2-3.2s1.4-3.2 3.2-3.2h43.4c1.8 0 3.2 1.4 3.2 3.2s-1.5 3.2-3.2 3.2z" fill="#000000" data-original="#fffffe" class=""/><path id="_549463680" d="m277.8 341.6h-43.4c-1.8 0-3.2-1.4-3.2-3.2s1.4-3.2 3.2-3.2h43.4c1.8 0 3.2 1.4 3.2 3.2s-1.5 3.2-3.2 3.2z" fill="#000000" data-original="#fffffe" class=""/><path id="_549463032" d="m136.1 292h93.7v-93.7h-93.7c.1-.1.1 93.7 0 93.7zm97 6.5h-100.2c-1.8 0-3.2-1.4-3.2-3.2v-100.2c0-1.8 1.4-3.2 3.2-3.2h100.1c1.8 0 3.2 1.4 3.2 3.2v100.1c.2 1.8-1.3 3.3-3.1 3.3z" fill="#000000" data-original="#fffffe" class=""/><path id="_549462840" d="m214.6 298.5c-1.8 0-3.2-1.4-3.2-3.2v-15.6c0-6.8-5.5-12.4-12.4-12.4h-32.2c-6.8 0-12.4 5.5-12.4 12.4v15.6c0 1.8-1.4 3.2-3.2 3.2s-3.2-1.4-3.2-3.2v-15.6c0-10.4 8.5-18.8 18.8-18.8h32.2c10.4 0 18.8 8.5 18.8 18.8v15.6c.1 1.7-1.4 3.2-3.2 3.2z" fill="#000000" data-original="#fffffe" class=""/><path id="_549462720" d="m182.9 219.9c-7.7 0-14 6.3-14 14s6.3 14 14 14 14-6.3 14-14-6.1-14-14-14zm0 34.5c-11.3 0-20.5-9.2-20.5-20.5s9.2-20.5 20.5-20.5 20.5 9.2 20.5 20.5c0 11.5-9.2 20.5-20.5 20.5z" fill="#000000" data-original="#fffffe" class=""/><path id="_549462504" d="m259.8 235.9h116.1v-36.9h-116.1zm119.3 6.5h-122.6c-1.8 0-3.2-1.4-3.2-3.2v-43.3c0-1.8 1.4-3.2 3.2-3.2h122.6c1.8 0 3.2 1.4 3.2 3.2v43.3c.1 1.7-1.4 3.2-3.2 3.2z" fill="#000000" data-original="#fffffe" class=""/><path id="_549462384" d="m282.6 231.9c-1.8 0-3.2-1.4-3.2-3.2v-22.3c0-1.8 1.4-3.2 3.2-3.2s3.2 1.4 3.2 3.2v22.3c.1 1.7-1.3 3.2-3.2 3.2z" fill="#000000" data-original="#fffffe" class=""/><path id="_549462312" d="m273 226.2c-1.1 0-2.2-.5-2.8-1.6-.9-1.6-.3-3.5 1.2-4.4l19.3-11.1c1.6-.9 3.5-.3 4.4 1.2.9 1.6.3 3.5-1.2 4.4l-19.3 11.1c-.5.3-1.1.4-1.6.4z" fill="#000000" data-original="#fffffe" class=""/><path id="_549462456" d="m292.2 226.2c-.5 0-1.1-.1-1.6-.4l-19.3-11.1c-1.6-.9-2-2.9-1.2-4.4.9-1.6 2.9-2 4.4-1.2l19.3 11.1c1.6.9 2 2.9 1.2 4.4-.5 1.2-1.6 1.6-2.8 1.6z" fill="#000000" data-original="#fffffe" class=""/><path id="_549462240" d="m317.9 231.9c-1.8 0-3.2-1.4-3.2-3.2v-22.3c0-1.8 1.4-3.2 3.2-3.2s3.2 1.4 3.2 3.2v22.3c-.1 1.7-1.6 3.2-3.2 3.2z" fill="#000000" data-original="#fffffe" class=""/><path id="_549462552" d="m308.1 226.2c-1.1 0-2.2-.5-2.8-1.6-.9-1.6-.3-3.5 1.2-4.4l19.3-11.1c1.6-.9 3.5-.3 4.4 1.2.9 1.6.3 3.5-1.2 4.4l-19.3 11.1c-.5.3-.9.4-1.6.4z" fill="#000000" data-original="#fffffe" class=""/><path id="_549462264" d="m327.5 226.2c-.5 0-1.1-.1-1.6-.4l-19.3-11.1c-1.6-.9-2-2.9-1.2-4.4.9-1.6 2.9-2 4.4-1.2l19.3 11.1c1.6.9 2 2.9 1.2 4.4-.7 1.2-1.8 1.6-2.8 1.6z" fill="#000000" data-original="#fffffe" class=""/><path id="_549462480" d="m353 231.9c-1.8 0-3.2-1.4-3.2-3.2v-22.3c0-1.8 1.4-3.2 3.2-3.2s3.2 1.4 3.2 3.2v22.3c0 1.7-1.4 3.2-3.2 3.2z" fill="#000000" data-original="#fffffe" class=""/><path id="_549462048" d="m343.4 226.2c-1.1 0-2.2-.5-2.8-1.6-.9-1.6-.3-3.5 1.2-4.4l19.3-11.1c1.6-.9 3.5-.3 4.4 1.2.9 1.6.3 3.5-1.2 4.4l-19.3 11.1c-.5.3-1.1.4-1.6.4z" fill="#000000" data-original="#fffffe" class=""/><path id="_549461760" d="m362.5 226.2c-.5 0-1.1-.1-1.6-.4l-19.3-11.1c-1.6-.9-2-2.9-1.2-4.4.9-1.6 2.9-2 4.4-1.2l19.4 11.1c1.6.9 2 2.9 1.2 4.4-.6 1.2-1.8 1.6-2.9 1.6z" fill="#000000" data-original="#fffffe" class=""/><path id="_549462216" d="m259.8 292h116.1v-36.9h-116.1zm119.3 6.5h-122.6c-1.8 0-3.2-1.4-3.2-3.2v-43.3c0-1.8 1.4-3.2 3.2-3.2h122.6c1.8 0 3.2 1.4 3.2 3.2v43.3c.1 1.7-1.4 3.2-3.2 3.2z" fill="#000000" data-original="#fffffe" class=""/><path id="_549461736" d="m282.6 288c-1.8 0-3.2-1.4-3.2-3.2v-22.3c0-1.8 1.4-3.2 3.2-3.2s3.2 1.4 3.2 3.2v22.3c.1 1.7-1.3 3.2-3.2 3.2z" fill="#000000" data-original="#fffffe" class=""/><path id="_549461808" d="m273 282.4c-1.1 0-2.2-.5-2.8-1.6-.9-1.6-.3-3.5 1.2-4.4l19.3-11.1c1.6-.9 3.5-.3 4.4 1.2.9 1.6.3 3.5-1.2 4.4l-19.3 11.1c-.5.1-1.1.4-1.6.4z" fill="#000000" data-original="#fffffe" class=""/><path id="_549461496" d="m292.2 282.4c-.5 0-1.1-.1-1.6-.4l-19.3-11.1c-1.6-.9-2-2.9-1.2-4.4.9-1.6 2.9-2 4.4-1.2l19.3 11.1c1.6.9 2 2.9 1.2 4.4-.5 1-1.6 1.6-2.8 1.6z" fill="#000000" data-original="#fffffe" class=""/><path id="_549462192" d="m317.9 288c-1.8 0-3.2-1.4-3.2-3.2v-22.3c0-1.8 1.4-3.2 3.2-3.2s3.2 1.4 3.2 3.2v22.3c-.1 1.7-1.6 3.2-3.2 3.2z" fill="#000000" data-original="#fffffe" class=""/><path id="_549461952" d="m308.1 282.4c-1.1 0-2.2-.5-2.8-1.6-.9-1.6-.3-3.5 1.2-4.4l19.3-11.1c1.6-.9 3.5-.3 4.4 1.2.9 1.6.3 3.5-1.2 4.4l-19.2 11.1c-.6.1-1 .4-1.7.4z" fill="#000000" data-original="#fffffe" class=""/><path id="_549461520" d="m327.5 282.4c-.5 0-1.1-.1-1.6-.4l-19.3-11.1c-1.6-.9-2-2.9-1.2-4.4.9-1.6 2.9-2 4.4-1.2l19.3 11.1c1.6.9 2 2.9 1.2 4.4-.7 1-1.8 1.6-2.8 1.6z" fill="#000000" data-original="#fffffe" class=""/><path id="_549461472" d="m353 288c-1.8 0-3.2-1.4-3.2-3.2v-22.3c0-1.8 1.4-3.2 3.2-3.2s3.2 1.4 3.2 3.2v22.3c0 1.7-1.4 3.2-3.2 3.2z" fill="#000000" data-original="#fffffe" class=""/><path id="_549461136" d="m343.4 282.4c-1.1 0-2.2-.5-2.8-1.6-.9-1.6-.3-3.5 1.2-4.4l19.3-11.1c1.6-.9 3.5-.3 4.4 1.2.9 1.6.3 3.5-1.2 4.4l-19.3 11.1c-.5.1-1.1.4-1.6.4z" fill="#000000" data-original="#fffffe" class=""/><path id="_549461112" d="m362.5 282.4c-.5 0-1.1-.1-1.6-.4l-19.3-11.1c-1.6-.9-2-2.9-1.2-4.4.9-1.6 2.9-2 4.4-1.2l19.3 11.1c1.6.9 2 2.9 1.2 4.4-.5 1-1.7 1.6-2.8 1.6z" fill="#000000" data-original="#fffffe" class=""/></g></g></g></svg>