<svg xmlns="http://www.w3.org/2000/svg" xmlns:xlink="http://www.w3.org/1999/xlink"  version="1.1" width="512" height="512" x="0" y="0" viewBox="0 0 512 512" style="enable-background:new 0 0 512 512" xml:space="preserve" class=""><g><linearGradient id="a" x1="0" x2="512" y1="256" y2="256" gradientUnits="userSpaceOnUse"><stop stop-opacity="1" stop-color="#00f1ff" offset="0"/><stop stop-opacity="1" stop-color="#00c0ff" offset="0"/><stop stop-opacity="1" stop-color="#b6f4ff" offset="0"/><stop stop-opacity="1" stop-color="#f4b9f3" offset="1"/><stop stop-opacity="1" stop-color="#00adff" offset="1"/></linearGradient><path fill="url(#a)" d="M512 256c0 141.387-114.613 256-256 256S0 397.387 0 256 114.613 0 256 0s256 114.613 256 256zm0 0" data-original="url(#a)"/><g fill="#fff"><path d="M416.121 392.121c-31.558 0-45.246-18.445-59.738-37.976-8.79-11.848-17.09-23.04-29.344-29.024-38.473-18.8-71.742 3.992-103.922 26.035-29.398 20.145-59.797 40.969-100.101 40.969-6.692 0-12.137-5.445-12.137-12.14 0-10.255 10.559-20.708 18.707-26.977a35.406 35.406 0 0 0 18.637 5.3 35.237 35.237 0 0 0 20.972-6.91l53.645-39.582c6.668-4.918 8.082-14.308 3.164-20.972-4.918-6.672-14.313-8.086-20.977-3.168l-53.644 39.582a5.354 5.354 0 0 1-7.32-.914l-3.415-4.168a5.36 5.36 0 0 1 .497-7.32L256.316 207.96l21.122 26.289-21.524 15.879c-6.668 4.922-8.082 14.312-3.164 20.976 4.922 6.668 14.309 8.086 20.977 3.165l30.421-22.446h61.766a14.96 14.96 0 0 0 5.332-.98c35.817-13.625 59.875-48.438 59.875-86.617 0-50.918-41.426-92.344-92.348-92.344-32.304 0-61.656 16.402-78.62 43.902a15.239 15.239 0 0 0-2.048 4.742l-13.722 57.578-34.695 32.2-2.848-3.426c-5.3-6.371-14.758-7.238-21.125-1.945-6.371 5.296-7.238 14.753-1.945 21.125l3.898 4.687-66.93 62.121c-10.254 9.52-13.625 23.844-9.675 36.496-12.204 9.36-30.184 27.13-30.184 50.621 0 23.235 18.902 42.137 42.14 42.137 49.594 0 86.997-25.625 117.055-46.215 32.586-22.328 52.082-34.441 73.797-23.832 5.684 2.778 11.871 11.117 18.422 19.946 15.687 21.144 37.176 50.101 83.828 50.101 8.285 0 15-6.715 15-15 0-8.281-6.715-15-15-15zm-81.594-170.297h-27.316l-32.961-39.64 6.086-25.532zm4.246-119.945c34.38 0 62.348 27.969 62.348 62.348 0 22.144-12 42.613-30.726 53.808l-78.727-94.676c11.742-13.601 28.719-21.48 47.105-21.48zM111.484 200.863c16.114 0 29.172-13.058 29.172-29.172 0-.129-.008-.257-.008-.386a14.906 14.906 0 0 0 1.442-6.383v-56.313c0-.906.52-1.718 1.3-2.117 11.5-.652 20.512-2.383 29.02-5.558 7.762-2.895 11.707-11.532 8.813-19.293-2.895-7.762-11.536-11.707-19.293-8.817-3.97 1.48-10.024 3.25-21.692 3.793-.785.035-1.57.137-2.343.293-14.954 3.098-25.805 16.43-25.805 31.7v33.921c-.203-.004-.403-.015-.606-.015-16.113 0-29.175 13.062-29.175 29.175 0 16.114 13.062 29.172 29.175 29.172zm0 0" fill="#564f55" data-original="#ffffff"/></g></g></svg>