<svg xmlns="http://www.w3.org/2000/svg" xmlns:xlink="http://www.w3.org/1999/xlink"   version="1.1" width="512" height="512" x="0" y="0" viewBox="0 0 6.82666 6.82666" style="enable-background:new 0 0 512 512" xml:space="preserve" class=""><g><linearGradient id="id0" gradientUnits="userSpaceOnUse" x1="1.013" x2="5.813" y1="1.013" y2="5.813"><stop stop-opacity="1" stop-color="#a7ebff" offset="0"/><stop stop-opacity="1" stop-color="#ffd3ea" offset="1"/></linearGradient><g id="Layer_x0020_1"><circle cx="3.413" cy="3.413" fill="url(#id0)" r="3.333" data-original="url(#id0)"/><path d="m2.44808 5.60392c-.167457 0-.325638-.0443465-.445417-.124878-.126728-.0852205-.196543-.200799-.196543-.325449.00001575-.124665.0698031-.240236.196543-.325449.119787-.0805433.277961-.124886.445402-.124886.0609961-.00000787.120665.00583465.178252.0173819v-2.58075c0-.0237835.0147244-.0450669.0369685-.0534606l2.27946-.860012c.0175669-.0066063.0372323-.00419685.0526535.00647244.0154488.0106496.0246457.0282165.0246575.0469764l.00045669.79748c.00002362.00061417.00001968.00123228.00001968.00184646l.00000394 2.33474c0 .124654-.0698071.240236-.196547.325453-.119772.0805315-.277969.124882-.445402.124882-.167429-.00000787-.325626-.0443504-.445406-.124882-.126732-.0852165-.196539-.200799-.196539-.325449.00000787-.124657.0697953-.240232.196539-.325449.119783-.0805354.277953-.124882.445406-.124882.0609882-.00000787.120665.00583071.178248.017378l.00001575-1.6416-1.46683.561996v2.25221c0 .124654-.0698031.240236-.196543.325457-.119776.0805276-.277965.124878-.445398.124878zm0-.786386c-.286028 0-.527681.153902-.527681.336059 0 .182146.241642.336043.527665.336043.286043-.00000394.527673-.15389.527673-.336043l.00001968-2.29152c0-.023685.0145669-.0448858.0366772-.0533583l1.58111-.605795c.0175669-.00670866.0373071-.00438189.052811.0062874.0155157.0106575.0247598.0282677.0247598.0470827l.00001968 1.79762c0 .0180276-.00852756.035-.0229646.0457874-.0144488.0107874-.0331496.0141181-.0504134.00901575-.0691024-.0204606-.14285-.0308346-.219173-.0308346-.286024-.00000394-.527669.15389-.527669.336047.00001968.18215.241646.336051.527669.336051.286031-.00000394.527665-.153894.527665-.336051l.00001968-2.33293c-.00002362-.00059449-.00004724-.00118898-.00004724-.00177953l-.00037795-.716717-2.16524.816898v2.61417c0 .0180236-.00851575.035-.0229488.0457874-.0144646.0107992-.0331575.0141339-.0504173.00901181-.0690906-.0204567-.142843-.0308268-.219157-.0308386z" fill="#000000" data-original="#fefefe"/></g></g></svg>