<svg xmlns="http://www.w3.org/2000/svg" xmlns:xlink="http://www.w3.org/1999/xlink"  version="1.1" width="512" height="512" x="0" y="0" viewBox="0 0 24 24" style="enable-background:new 0 0 512 512" xml:space="preserve" class=""><g><linearGradient id="a" x1="17.072" x2="6.843" y1="21.318" y2="2.525" gradientUnits="userSpaceOnUse"><stop stop-opacity="1" stop-color="#472d51" offset="0.003"/><stop stop-opacity="1" stop-color="#472d51" offset="1"/></linearGradient><circle cx="12" cy="12" r="11.997" fill="url(#a)" data-original="url(#a)" class=""/><g fill="#fff8f8"><path d="M12 20.453a8.453 8.453 0 1 0 0-16.906 8.453 8.453 0 0 0 0 16.906zm0-15.215c3.729 0 6.762 3.033 6.762 6.762S15.73 18.762 12 18.762 5.238 15.73 5.238 12 8.27 5.238 12 5.238z" fill="#fff8f8" data-original="#fff8f8" class=""/><path d="m10.685 15.262 4.281-2.604a.765.765 0 0 0 0-1.316l-4.281-2.604c-.531-.323-1.22.049-1.22.658v5.207c0 .61.689.982 1.22.659z" fill="#fff8f8" data-original="#fff8f8" class=""/></g></g></svg>