<svg xmlns="http://www.w3.org/2000/svg" xmlns:xlink="http://www.w3.org/1999/xlink"  version="1.1" width="512" height="512" x="0" y="0" viewBox="0 0 512 512" style="enable-background:new 0 0 512 512" xml:space="preserve"><g><linearGradient id="GradientFill_1" gradientUnits="userSpaceOnUse" x1="256.001" x2="256.002" y1="512.001" y2="-.004"><stop stop-opacity="1" stop-color="#eaa9dd" offset="0"/><stop stop-opacity="1" stop-color="#8cedff" offset="1"/></linearGradient><path d="m212.6 316.11v-120.223l104.11 60.113zm144.105-73.974-152.105-87.819a16 16 0 0 0 -24 13.859v175.645a16.013 16.013 0 0 0 24 13.859l152.107-87.826a16 16 0 0 0 0-27.718zm-100.705 237.864c123.518 0 224-100.488 224-224s-100.482-224-224-224-224 100.492-224 224 100.492 224 224 224zm0-480c-141.161 0-256 114.84-256 256s114.839 256 256 256 256-114.843 256-256-114.837-256-256-256z" fill="url(#GradientFill_1)" fill-rule="evenodd" data-original="url(#GradientFill_1)"/></g></svg>