<svg xmlns="http://www.w3.org/2000/svg" xmlns:xlink="http://www.w3.org/1999/xlink" version="1.1" width="512" height="512" x="0" y="0" viewBox="0 0 512 512" style="enable-background:new 0 0 512 512" xml:space="preserve"><g transform="matrix(-1,1.2246467991473532e-16,-1.2246467991473532e-16,-1,511.999969482422,511.99999999999994)"><linearGradient id="GradientFill_1" gradientUnits="userSpaceOnUse" x1="256.001" x2="256.002" y1="511.996" y2="-.002"><stop stop-opacity="1" stop-color="#f4ade9" offset="0"/><stop stop-opacity="1" stop-color="#7beaff" offset="1"/></linearGradient><path d="m285.884 195.888 104.107 60.112-104.107 60.105zm-152.128 120.217v-120.217l104.122 60.112zm128.125-161.787a16 16 0 0 0 -8 13.859v60.109l-128.119-73.968a16 16 0 0 0 -24 13.859v175.639a16 16 0 0 0 24 13.859l128.118-73.967v60.108a16 16 0 0 0 24 13.859l152.11-87.819a16 16 0 0 0 0-27.718l-152.107-87.82a16.009 16.009 0 0 0 -16 0zm-5.881 325.682c123.516 0 224-100.493 224-224s-100.482-224-224-224-224 100.487-224 224 100.492 224 224 224zm0-480c-141.161 0-256 114.834-256 256s114.839 256 256 256 256-114.841 256-256-114.837-256-256-256z" fill="url(#GradientFill_1)" fill-rule="evenodd" data-original="url(#GradientFill_1)"/></g></svg>