<svg xmlns="http://www.w3.org/2000/svg" xmlns:xlink="http://www.w3.org/1999/xlink"  version="1.1" width="512" height="512" x="0" y="0" viewBox="0 0 512 512" style="enable-background:new 0 0 512 512" xml:space="preserve" class=""><g><linearGradient id="SVGID_1_" gradientTransform="matrix(1 0 0 -1 0 512)" gradientUnits="userSpaceOnUse" x1="256" x2="256" y1="512" y2="0"><stop stop-opacity="1" stop-color="#e1a8e2" offset="0"/><stop stop-opacity="1" stop-color="#e1a8e2" offset="0.23745173745173745"/><stop stop-opacity="1" stop-color="#addeea" offset="0.9555984555984556"/></linearGradient><circle cx="256" cy="256" fill="url(#SVGID_1_)" r="256" data-original="url(#SVGID_1_)"/><g><g><path d="m297.3 298.5c-46.2 0-83.8-37.6-83.8-83.8s37.6-83.8 83.8-83.8 83.8 37.6 83.8 83.8-37.5 83.8-83.8 83.8zm0-161c-42.5 0-77.2 34.6-77.2 77.2 0 42.5 34.6 77.2 77.2 77.2 42.5 0 77.2-34.6 77.2-77.2s-34.6-77.2-77.2-77.2z" fill="#000000" data-original="#fffffe" class=""/></g><g><path d="m297.3 320.1c-58.2 0-105.5-47.3-105.5-105.5s47.3-105.4 105.5-105.4c58.2.1 105.5 47.4 105.5 105.5s-47.3 105.4-105.5 105.4zm0-204.2c-54.5 0-98.8 44.3-98.8 98.8s44.3 98.8 98.8 98.8 98.8-44.3 98.8-98.8-44.3-98.8-98.8-98.8z" fill="#000000" data-original="#fffffe" class=""/></g><g><path d="m199.1 296.6c-.9 0-1.8-.3-2.4-1-1.2-1.3-1.2-3.4.1-4.7l16.9-16.9c1.3-1.3 3.4-1.3 4.7 0s1.3 3.4 0 4.7l-16.9 16.9-.1.1c-.6.6-1.4.9-2.3.9z" fill="#000000" data-original="#fffffe" class=""/></g><g><path d="m218.7 316.2c-.9 0-1.8-.3-2.4-1-1.2-1.3-1.2-3.4.1-4.7l16.9-16.9c1.3-1.3 3.4-1.3 4.7 0s1.3 3.4 0 4.7l-16.9 16.9-.1.1c-.6.6-1.5.9-2.3.9z" fill="#000000" data-original="#fffffe" class=""/></g><g><path d="m134.6 402.8c-6.5 0-13-2.5-18-7.4-4.8-4.8-7.4-11.1-7.4-18 0-6.8 2.7-13.2 7.4-18l70.4-70.3c3.5-3.5 9.2-3.5 12.7 0l23.2 23.2c3.5 3.5 3.5 9.2 0 12.7l-70.5 70.3c-4.8 5-11.3 7.5-17.8 7.5zm-13.2-12.2c3.5 3.5 8.2 5.5 13.2 5.5 5.1 0 9.7-1.9 13.2-5.5l70.4-70.4c.9-.9.9-2.3 0-3.3l-23.2-23.1c-.9-.9-2.4-.9-3.3 0l-70.4 70.5c-3.5 3.5-5.5 8.2-5.5 13.2.1 4.9 2 9.6 5.6 13.1z" fill="#000000" data-original="#fffffe" class=""/></g><g><g><path d="m203.8 342.6c-.9 0-1.7-.3-2.4-1l-31.1-31.1c-1.3-1.3-1.3-3.4 0-4.7s3.4-1.3 4.7 0l31.1 31.1c1.3 1.3 1.3 3.4 0 4.7-.5.7-1.4 1-2.3 1z" fill="#000000" data-original="#fffffe" class=""/></g><g><path d="m155.2 391.2c-.9 0-1.7-.3-2.4-1l-31.1-31.2c-1.3-1.3-1.3-3.4 0-4.7s3.4-1.3 4.7 0l31.1 31.1c1.3 1.3 1.3 3.4 0 4.7-.6.8-1.4 1.1-2.3 1.1z" fill="#000000" data-original="#fffffe" class=""/></g></g></g></g></svg>