<svg xmlns="http://www.w3.org/2000/svg" xmlns:xlink="http://www.w3.org/1999/xlink"   version="1.1" width="512" height="512" x="0" y="0" viewBox="0 0 512 512" style="enable-background:new 0 0 512 512" xml:space="preserve" class=""><g><linearGradient id="SVGID_1_" gradientTransform="matrix(1 0 0 -1 0 512.5)" gradientUnits="userSpaceOnUse" x1="256.05" x2="256.05" y1="512.45" y2=".45"><stop stop-opacity="1" stop-color="#f1b5f2" offset="0.017374517374517374"/><stop stop-opacity="1" stop-color="#a5e6f6" offset="1"/></linearGradient><circle clip-rule="evenodd" cx="256" cy="256" fill="url(#SVGID_1_)" fill-rule="evenodd" r="256" data-original="url(#SVGID_1_)"/><g id="Layer_x0020_1"><g id="_310675768" clip-rule="evenodd" fill="#fffffe" fill-rule="evenodd"><path id="_310676176" d="m301.5 397.6h27.6l2.8-13.1c.2-1.2 1.1-2.1 2.2-2.4 9.8-2.9 18.8-8.2 26.3-15.2.9-.8 2.1-1.1 3.2-.7l12.7 4.1 13.8-23.9-9.9-8.9c-.9-.8-1.3-2-1-3.1 1.2-5 1.8-10.1 1.8-15.2s-.6-10.2-1.8-15.2c-.3-1.2.1-2.4 1-3.1l9.9-8.9-13.8-23.9-12.7 4.1c-1.1.4-2.4.1-3.2-.7-7.4-7-16.5-12.3-26.3-15.2-1.1-.3-2-1.3-2.2-2.4l-2.8-13h-27.6l-2.8 13.1c-.2 1.2-1.1 2.1-2.2 2.4-9.7 2.9-18.8 8.2-26.3 15.2-.9.8-2.1 1.1-3.2.7l-12.7-4.1-13.8 23.9 9.9 8.9c.9.8 1.3 2 1 3.1-1.2 5-1.8 10.1-1.8 15.2s.6 10.2 1.8 15.2c.3 1.2-.1 2.4-1 3.1l-9.9 8.9 13.8 23.9 12.7-4.1c1.1-.4 2.4-.1 3.2.7 7.5 7 16.5 12.3 26.3 15.2 1.1.3 2 1.3 2.2 2.4zm30.3 6.5h-32.9c-1.5 0-2.9-1.1-3.2-2.6l-2.9-13.8c-9.4-3.1-18.2-8.2-25.6-14.8l-13.4 4.4c-1.4.5-3-.1-3.8-1.5l-16.4-28.5c-.8-1.3-.5-3 .6-4l10.5-9.4c-1-4.9-1.5-9.8-1.5-14.8s.5-10 1.5-14.8l-10.5-9.4c-1.1-1-1.4-2.7-.6-4l16.4-28.5c.8-1.3 2.4-1.9 3.8-1.5l13.4 4.4c7.4-6.6 16.2-11.7 25.6-14.8l2.9-13.8c.3-1.5 1.6-2.6 3.2-2.6h32.9c1.5 0 2.8 1.1 3.2 2.6l2.9 13.8c9.4 3.1 18.2 8.2 25.6 14.8l13.4-4.4c1.5-.5 3 .1 3.8 1.5l16.3 28.6c.8 1.3.5 3-.6 4l-10.5 9.4c1 4.9 1.5 9.8 1.5 14.8s-.5 10-1.5 14.8l10.5 9.4c1.1 1 1.4 2.7.6 4l-16.4 28.5c-.8 1.3-2.4 1.9-3.8 1.5l-13.4-4.4c-7.4 6.6-16.2 11.7-25.6 14.8l-2.9 13.8c-.4 1.4-1.7 2.5-3.1 2.5z" fill="#000000" data-original="#fffffe" class=""/><path id="_310676128" d="m315.4 283.5c-19.6 0-35.6 16-35.6 35.6s16 35.6 35.6 35.6 35.6-16 35.6-35.6c-.1-19.6-16-35.6-35.6-35.6zm0 77.7c-23.2 0-42.1-18.9-42.1-42.1s18.9-42.1 42.1-42.1 42.1 18.9 42.1 42.1c-.1 23.3-19 42.1-42.1 42.1z" fill="#000000" data-original="#fffffe" class=""/><path id="_310675984" d="m251.2 375h-33.8c-1.5 0-2.9-1.1-3.2-2.6l-4.9-23c-15.5-4.9-30-13.3-42-24.3l-22.4 7.3c-1.4.5-3-.1-3.8-1.5l-26.1-45.4c-.8-1.3-.5-3 .6-4l17.5-15.8c-1.7-7.9-2.6-16.1-2.6-24.3s.9-16.3 2.6-24.3l-17.5-15.8c-1.1-1-1.4-2.7-.6-4l26.2-45.4c.8-1.3 2.4-1.9 3.8-1.5l22.4 7.3c12.1-11 26.5-19.4 42-24.3l4.9-23c.3-1.5 1.6-2.6 3.2-2.6h52.4c1.5 0 2.8 1.1 3.2 2.6l4.9 23c15.5 4.9 30 13.3 42.1 24.3l22.4-7.3c1.5-.5 3 .1 3.8 1.5l26.2 45.4c.8 1.3.5 3-.6 4l-17.6 15.9c1.7 7.9 2.6 16.1 2.6 24.3 0 6.7-.6 13.4-1.8 19.9-.3 1.8-2 2.9-3.7 2.6-1.8-.3-2.9-2-2.6-3.7 1.1-6.2 1.7-12.5 1.7-18.8 0-8.3-1-16.6-2.9-24.7-.3-1.2.1-2.4 1-3.1l17-15.3-23.6-40.9-21.7 7.1c-1.1.4-2.4.1-3.2-.7-12.1-11.4-26.9-20-42.7-24.7-1.1-.3-2-1.3-2.2-2.4l-4.7-22.3h-47.2l-4.7 22.3c-.2 1.2-1.1 2.1-2.2 2.4-15.8 4.7-30.6 13.3-42.7 24.7-.9.8-2.1 1.1-3.2.7l-21.8-7.1-23.7 40.8 17 15.3c.9.8 1.3 2 1 3.1-1.9 8-2.9 16.4-2.9 24.7s1 16.6 2.9 24.7c.3 1.1-.1 2.4-1 3.1l-17 15.3 23.6 40.8 21.8-7.1c1.1-.4 2.4-.1 3.2.7 12.1 11.4 26.9 20 42.7 24.7 1.1.3 2 1.3 2.2 2.4l4.7 22.3h31c1.8 0 3.2 1.4 3.2 3.2.2 2-1.3 3.5-3.2 3.5zm18.7 0h-9.3c-1.8 0-3.2-1.4-3.2-3.2s1.4-3.2 3.2-3.2h7.6c.7-.5 1.6-.7 2.5-.5 1.7.4 2.9 2.1 2.5 3.8l-.1.5c-.3 1.5-1.6 2.6-3.2 2.6z" fill="#000000" data-original="#fffffe" class=""/><path id="_310676320" d="m243.6 311.2c-38.5 0-69.9-31.3-69.9-69.8s31.3-69.8 69.9-69.8c36.9 0 67.6 28.9 69.7 65.7.1 1.8-1.3 3.3-3 3.4-1.8.1-3.3-1.3-3.4-3-1.9-33.4-29.7-59.6-63.3-59.6-35 0-63.4 28.4-63.4 63.4 0 34.9 28.4 63.4 63.4 63.4 1.1 0 2.3 0 3.4-.1 1.8-.1 3.3 1.3 3.4 3.1s-1.3 3.3-3.1 3.4c-1.2-.1-2.4-.1-3.7-.1z" fill="#000000" data-original="#fffffe" class=""/></g></g></g></svg>