<svg xmlns="http://www.w3.org/2000/svg" xmlns:xlink="http://www.w3.org/1999/xlink"  version="1.1" width="512" height="512" x="0" y="0" viewBox="0 0 512 512" style="enable-background:new 0 0 512 512" xml:space="preserve"><g><path d="M508.688 51.715a15.001 15.001 0 0 0-17.325-4.496c-.976.394-1.941.781-2.898 1.16 3.855-6.645 7.015-13.7 9.512-21.2a15.002 15.002 0 0 0-4.192-15.874 14.991 14.991 0 0 0-16.219-2.532c-.07.032-.437.204-1.062.516-23.79 11.934-42.34 18.934-50.774 20.578a252.32 252.32 0 0 1-1.753-1.547C413.53 19.063 391.797 0 347.863 0c-23.914 0-58.136 9.387-82.465 36.29-19.191 21.23-28.753 49.03-28.53 82.831-70.302-8.61-127.95-40.266-175.813-96.43a15.004 15.004 0 0 0-25.078 3.54C29.497 40.526 21.02 62.565 22.19 88.788c.774 17.207 5.559 33.488 14.293 48.711-8.937-.453-16.324 6.996-15.73 15.973 2.484 37.53 16.262 66.586 41.094 86.855a15.01 15.01 0 0 0-5.032 15.856c7.813 27.109 30.676 56.562 65.622 70.68C90.855 342.792 54.73 349.48 16.23 346.308a15.012 15.012 0 0 0-15.5 10.328 14.998 14.998 0 0 0 6.504 17.453c49.88 30.2 103.957 45.508 160.73 45.508 122.259 0 193.184-60.72 231.153-111.653 46.844-62.843 63.465-136.554 63.465-180.582 0-5.77-.172-6.941.004-8.57 5.832-5.145 21.93-12.926 46.785-49.195a14.994 14.994 0 0 0-.683-17.883zm-76.153 70.89c.024 1.04.05 2.43.05 4.758 0 39.438-15.065 105.696-57.519 162.653-33.867 45.43-97.285 99.586-207.097 99.586-31.856 0-62.797-5.36-92.496-15.985 34.8-6.07 66.882-20.07 94.726-41.566a14.993 14.993 0 0 0 5.156-16.332 14.995 14.995 0 0 0-13.515-10.52c-29.95-1.605-53.586-18.039-66.75-37.527 5.16-.332 11.305-1.145 20.453-2.754a14.996 14.996 0 0 0 12.367-13.816 14.998 14.998 0 0 0-10.508-15.278c-34.382-10.707-54.824-30.238-62.964-60.668 5.375 1.38 11.816 2.457 22.476 3.793a14.992 14.992 0 0 0 15.606-8.863 15.003 15.003 0 0 0-4.063-17.48c-38.273-32.31-40.285-65.274-33.238-91.876 52.715 53.614 117.594 84.516 196.543 89.934 9.289.637 16.879-7.254 15.949-16.469-3.352-33.27 3.355-59.437 19.941-77.78C305.414 36.77 331.188 29.8 347.863 29.8c32.555 0 46.793 12.617 56.215 20.969 5.496 4.87 10.684 9.472 18.512 9.472 5.476 0 12.558-1.554 20.39-4.043a113.245 113.245 0 0 1-8.914 6.813 15 15 0 0 0-5.609 17.34 14.997 14.997 0 0 0 15.266 9.957 142.25 142.25 0 0 0 7.859-.813c-10.394 7.895-19.457 12.703-19.047 33.11zm0 0" fill="#000000" data-original="#000000"/></g></svg>