<svg xmlns="http://www.w3.org/2000/svg" xmlns:xlink="http://www.w3.org/1999/xlink"  version="1.1" width="512" height="512" x="0" y="0" viewBox="0 0 20 18.001" style="enable-background:new 0 0 512 512" xml:space="preserve" class=""><g><linearGradient id="a" x1="2" x2="22" y1="292.784" y2="312.652" gradientUnits="userSpaceOnUse"><stop stop-opacity="1" stop-color="#ffc4ff" offset="0.015444015444015444"/><stop stop-opacity="1" stop-color="#79eef2" offset="1"/></linearGradient><g fill="url(#a)" transform="translate(-2 -293.653)"><path d="m10.428 294.096-4.701 4.574H4c-1.092 0-2 .905-2 1.998v3.998c0 1.093.908 1.998 2 1.998h1.729l4.699 4.545c0 .001.003 0 .004.002.44.447 1.122.547 1.634.338.514-.21.934-.762.934-1.39v-15.014c0-.63-.42-1.18-.934-1.39-.643-.22-1.22-.077-1.638.34zm.572 2.232v12.65l-4.172-4.033a1 1 0 0 0-.695-.28H4v-3.995h2.133a1 1 0 0 0 .697-.283zM18 298.687a1 1 0 0 0-1 1v1.963h-2a1 1 0 0 0-1 1 1 1 0 0 0 1 1h2v1.963a1 1 0 0 0 1 1 1 1 0 0 0 1-1v-1.963h2a1 1 0 0 0 1-1 1 1 0 0 0-1-1h-2v-1.963a1 1 0 0 0-1-1z" fill=""/></g></g></svg>