<svg xmlns="http://www.w3.org/2000/svg" xmlns:xlink="http://www.w3.org/1999/xlink"  version="1.1" width="512" height="512" x="0" y="0" viewBox="0 0 20 18.02" style="enable-background:new 0 0 512 512" xml:space="preserve"><g><linearGradient id="a" x1="2.05" x2="22" y1="412.702" y2="432.652" gradientUnits="userSpaceOnUse"><stop stop-opacity="1" stop-color="#ffb7ff" offset="0.003861003861003861"/><stop stop-opacity="1" stop-color="#7cf1f9" offset="1"/></linearGradient><g fill="url(#a)" transform="translate(-2 -413.633)"><path d="m10.428 414.096-4.701 4.574H4c-1.092 0-2 .905-2 1.998v3.998c0 1.093.908 1.998 2 1.998h1.729l4.699 4.545c.534.506 1.157.515 1.638.34.514-.21.934-.762.934-1.39v-15.014c0-.63-.42-1.18-.934-1.39-.645-.27-1.14-.068-1.638.34zm.572 2.232v12.65l-4.172-4.033a1 1 0 0 0-.695-.28H4v-3.995h2.133a1 1 0 0 0 .697-.283zM16 421.65a1 1 0 0 0-1 1 1 1 0 0 0 1 1h5a1 1 0 0 0 1-1 1 1 0 0 0-1-1z" fill=""/></g></g></svg>