<svg xmlns="http://www.w3.org/2000/svg" xmlns:xlink="http://www.w3.org/1999/xlink"  version="1.1" width="512" height="512" x="0" y="0" viewBox="0 0 512 512" style="enable-background:new 0 0 512 512" xml:space="preserve" class=""><g><linearGradient id="a" x1="0" x2="512" y1="-9718" y2="-9718" gradientTransform="matrix(1 0 0 -1 0 -9462)" gradientUnits="userSpaceOnUse"><stop stop-opacity="1" stop-color="#00f1ff" offset="0"/><stop stop-opacity="1" stop-color="#00d8ff" offset="0"/><stop stop-opacity="1" stop-color="#b8e8f9" offset="0"/><stop stop-opacity="1" stop-color="#ffc2f7" offset="1"/><stop stop-opacity="1" stop-color="#00b2ff" offset="1"/></linearGradient><path fill="url(#a)" d="M512 256c0 141.387-114.613 256-256 256S0 397.387 0 256 114.613 0 256 0s256 114.613 256 256zm0 0" data-original="url(#a)"/><g fill="#fff"><path d="M368.066 308.633c-2.418 0-4.87-.586-7.144-1.824-7.281-3.954-9.977-13.059-6.024-20.34l.383-.703c3.184-5.832 7.989-14.649 7.989-29.754 0-15.692-4.954-24.438-8.235-30.223-4.086-7.21-1.55-16.363 5.656-20.445 7.207-4.086 16.36-1.555 20.446 5.652 3.937 6.953 12.133 21.414 12.133 45.016 0 22.75-7.579 36.648-11.649 44.117l-.36.66c-2.718 5.004-7.87 7.844-13.195 7.844zm0 0" fill="#564f55" data-original="#ffffff" class=""/><path d="M393.945 383.465a14.954 14.954 0 0 1-10.656-4.445c-5.832-5.887-5.785-15.383.102-21.215 27.457-27.2 42.582-63.371 42.582-101.86 0-38.406-15.125-74.535-42.582-101.734-5.887-5.832-5.934-15.328-.102-21.215 5.828-5.887 15.328-5.93 21.211-.101 33.191 32.875 51.473 76.578 51.473 123.05 0 46.555-18.282 90.297-51.473 123.176a14.954 14.954 0 0 1-10.555 4.344zM268.23 456.09c-11.824 0-23.32-4.598-32.328-13.387-.312-.3-.609-.617-.894-.95l-89.016-103.339h-27.937c-34.203 0-62.028-27.824-62.028-62.027v-40.758c0-34.2 27.825-62.027 62.028-62.027h27.937l89.016-103.34c.285-.332.582-.649.894-.953 13.633-13.293 32.996-16.954 50.543-9.559 17.547 7.398 28.446 23.82 28.446 42.863V331.25c0 8.285-6.715 15-15 15s-15-6.715-15-15V102.613c0-10.168-7.73-14.218-10.102-15.218-2.324-.98-10.355-3.606-17.535 3.007l-93.02 107.989c-2.851 3.308-7 5.21-11.367 5.21h-34.812c-17.66 0-32.028 14.368-32.028 32.028v40.758c0 17.66 14.368 32.023 32.028 32.023h34.812c4.367 0 8.516 1.902 11.367 5.211l93.02 107.992c7.254 6.688 15.332 4.051 17.672 3.063 2.336-.985 9.965-4.985 9.965-15.047 0-8.285 6.714-15 15-15s15 6.715 15 15c0 18.969-10.848 35.328-28.313 42.691-6 2.532-12.219 3.77-18.348 3.77zm0 0" fill="#564f55" data-original="#ffffff" class=""/></g></g></svg>