<svg xmlns="http://www.w3.org/2000/svg" xmlns:xlink="http://www.w3.org/1999/xlink"  version="1.1" width="512" height="512" x="0" y="0" viewBox="0 0 64 64" style="enable-background:new 0 0 512 512" xml:space="preserve" class=""><g transform="matrix(1,0,0,1,7.105427357601002e-15,7.105427357601002e-15)"><linearGradient id="a" x1="29.26" x2="33.04" y1="26.6" y2="26.6" gradientUnits="userSpaceOnUse"><stop stop-opacity="1" stop-color="#ffffff" offset="0"/><stop stop-opacity="1" stop-color="#ffffff" offset="0.61"/><stop stop-opacity="1" stop-color="#ffffff" offset="1"/></linearGradient><linearGradient xlink:href="#a" id="b" x1="34.69" x2="38.46" y1="32.23" y2="32.23"/><linearGradient xlink:href="#a" id="c" x1="41.7" x2="45.47" y1="28.54" y2="28.54"/><linearGradient xlink:href="#a" id="d" x1="16.24" x2="22.06" y1="28.4" y2="28.4"/><linearGradient xlink:href="#a" id="e" x1="3.4" x2="60.6" y1="32" y2="32"/><g data-name="Layer 7"><path fill="url(#a)" d="M32.44 26h-.69v-.69a.6.6 0 1 0-1.2 0V26h-.69a.6.6 0 0 0 0 1.2h.69v.69a.6.6 0 1 0 1.2 0v-.69h.69a.6.6 0 0 0 0-1.2z" data-original="url(#a)"/><path fill="url(#b)" d="M37.86 31.63h-.68v-.69a.6.6 0 1 0-1.2 0v.69h-.69a.6.6 0 0 0 0 1.2H36v.68a.6.6 0 1 0 1.2 0v-.68h.68a.6.6 0 1 0 0-1.2z" data-original="url(#b)"/><path fill="url(#c)" d="M44.87 27.94h-.68v-.69a.61.61 0 0 0-1.21 0v.69h-.68a.6.6 0 0 0 0 1.2h.7v.69a.61.61 0 0 0 1.21 0v-.69h.68a.6.6 0 1 0 0-1.2z" data-original="url(#c)"/><path fill="url(#d)" d="M19.15 25.49a2.91 2.91 0 1 0 2.91 2.91 2.91 2.91 0 0 0-2.91-2.91zm0 4.62a1.71 1.71 0 1 1 1.71-1.71 1.72 1.72 0 0 1-1.71 1.71z" data-original="url(#d)"/><path fill="url(#e)" d="M50 3.4H14A10.62 10.62 0 0 0 3.4 14v36A10.62 10.62 0 0 0 14 60.6h36A10.62 10.62 0 0 0 60.6 50V14A10.62 10.62 0 0 0 50 3.4zm-1.34 10.78a.76.76 0 0 1 .55.23l.08.08a.78.78 0 0 1 0 1.1l-6.08 6.08-3.82 3.83-1.19-1.18 9.91-9.91a.76.76 0 0 1 .55-.23zM38.54 26.35l-.61.61a.79.79 0 0 1-1.18-.09c-.63-.67.15-1.25.61-1.71zm-2.1-9.6h.69v-.69a.6.6 0 1 1 1.2 0v.69H39A.6.6 0 1 1 39 18h-.69v.68a.6.6 0 1 1-1.2 0V18h-.69a.6.6 0 0 1 0-1.2zm13.65 32.31a.74.74 0 0 1-.74.73h-34.7a.74.74 0 0 1-.74-.73V38.18l12.71-4.71 7 6.19-10.16 3.75a.59.59 0 0 0-.35.77.6.6 0 0 0 .56.39.52.52 0 0 0 .21 0l20.73-7.69 5.48 4.89zm0-8.94-5-4.41a.61.61 0 0 0-.61-.12l-9.68 3.6-7.7-6.86a.59.59 0 0 0-.61-.11L13.91 36.9V23.5a.74.74 0 0 1 .74-.74h23.41l-2.16 2.17a2 2 0 0 0 2.88 2.88l5-5h5.53a.74.74 0 0 1 .74.74z" data-original="url(#e)" class=""/></g></g></svg>