<svg xmlns="http://www.w3.org/2000/svg" xmlns:xlink="http://www.w3.org/1999/xlink"  version="1.1" width="512" height="512" x="0" y="0" viewBox="0 0 64 64" style="enable-background:new 0 0 512 512" xml:space="preserve"><g><linearGradient id="a" x1="4" x2="60" y1="32" y2="32" gradientUnits="userSpaceOnUse"><stop stop-opacity="1" stop-color="#83cce4" offset="0"/><stop stop-opacity="1" stop-color="#fda9f8" offset="1"/></linearGradient><path fill="url(#a)" d="M32 4a28 28 0 1 0 28 28A28.03 28.03 0 0 0 32 4zm0 54a26 26 0 1 1 26-26 26.025 26.025 0 0 1-26 26zm0-50a24 24 0 1 0 24 24A24.032 24.032 0 0 0 32 8zm0 46a22 22 0 1 1 22-22 22.026 22.026 0 0 1-22 22zm-1.5-41.6a1.5 1.5 0 1 1 1.5 1.5 1.498 1.498 0 0 1-1.5-1.5zM13.9 32a1.5 1.5 0 1 1-1.5-1.5 1.498 1.498 0 0 1 1.5 1.5zm19.6 19.6a1.5 1.5 0 1 1-1.5-1.5 1.498 1.498 0 0 1 1.5 1.5zM53.1 32a1.5 1.5 0 1 1-1.5-1.5 1.498 1.498 0 0 1 1.5 1.5zM37.635 42.646a1 1 0 0 1-1.84.785L31.08 32.393A1.003 1.003 0 0 1 31 32V17.05a1 1 0 0 1 2 0v14.745z" data-original="url(#a)"/></g></svg>