<svg xmlns="http://www.w3.org/2000/svg" xmlns:xlink="http://www.w3.org/1999/xlink"  version="1.1" width="512" height="512" x="0" y="0" viewBox="0 0 512 512" style="enable-background:new 0 0 512 512" xml:space="preserve" class=""><g><linearGradient id="a" x1="0" x2="512" y1="-12566" y2="-12566" gradientTransform="matrix(1 0 0 -1 0 -12310)" gradientUnits="userSpaceOnUse"><stop stop-opacity="1" stop-color="#5100ff" offset="0"/><stop stop-opacity="1" stop-color="#8000ff" offset="0.22007722007722008"/><stop stop-opacity="1" stop-color="#a600ff" offset="0.444015444015444"/><stop stop-opacity="1" stop-color="#e008ac" offset="0.7992277992277992"/><stop stop-opacity="1" stop-color="#cc099d" offset="0.9305019305019305"/><stop stop-opacity="1" stop-color="#cc099d" offset="1"/></linearGradient><path fill="url(#a)" d="M512 256c0 141.387-114.613 256-256 256S0 397.387 0 256 114.613 0 256 0s256 114.613 256 256zm0 0" data-original="url(#a)" class=""/><g fill="#fff"><path d="M400.555 112.52c-.16-.18-.313-.368-.485-.54-.148-.148-.312-.28-.468-.421-7.106-6.907-16.793-11.172-27.465-11.172H290.55c-8.281 0-15 6.718-15 15 0 8.285 6.719 15 15 15h69.898L130.418 360.422l.023-73.442c0-8.285-6.71-15-14.996-15.003h-.004c-8.285 0-15 6.714-15 14.996l-.027 85.191c0 21.75 17.695 39.45 39.45 39.45h81.585c8.285 0 15-6.716 15-15 0-8.286-6.715-15-15-15h-69.797L381.586 151.68v72.152c0 8.285 6.715 15 15 15s15-6.715 15-15V139.84c0-10.598-4.207-20.227-11.031-27.32zM254.809 115.414c0 6.578-5.332 11.914-11.914 11.914-6.579 0-11.915-5.336-11.915-11.914 0-6.578 5.336-11.914 11.915-11.914 6.582 0 11.914 5.336 11.914 11.914zM207.152 115.414c0 6.578-5.336 11.914-11.914 11.914-6.582 0-11.914-5.336-11.914-11.914 0-6.578 5.332-11.914 11.914-11.914 6.578 0 11.914 5.336 11.914 11.914zM159.496 115.414c0 6.578-5.336 11.914-11.914 11.914s-11.914-5.336-11.914-11.914c0-6.578 5.336-11.914 11.914-11.914s11.914 5.336 11.914 11.914zM127.328 239.32c0 6.578-5.336 11.914-11.914 11.914-6.578 0-11.914-5.336-11.914-11.914 0-6.582 5.336-11.914 11.914-11.914 6.578 0 11.914 5.332 11.914 11.914zM127.328 191.664c0 6.578-5.336 11.914-11.914 11.914-6.578 0-11.914-5.336-11.914-11.914 0-6.578 5.336-11.914 11.914-11.914 6.578 0 11.914 5.336 11.914 11.914zM127.328 144.008c0 6.582-5.336 11.914-11.914 11.914-6.578 0-11.914-5.332-11.914-11.914 0-6.578 5.336-11.914 11.914-11.914 6.578 0 11.914 5.336 11.914 11.914zM408.5 269.105c0 6.579-5.336 11.915-11.914 11.915-6.578 0-11.914-5.336-11.914-11.915 0-6.582 5.336-11.914 11.914-11.914 6.578 0 11.914 5.332 11.914 11.914zM408.5 316.762c0 6.582-5.336 11.914-11.914 11.914-6.578 0-11.914-5.332-11.914-11.914 0-6.578 5.336-11.914 11.914-11.914 6.578 0 11.914 5.336 11.914 11.914zM408.5 364.418c0 6.578-5.336 11.914-11.914 11.914-6.578 0-11.914-5.336-11.914-11.914s5.336-11.914 11.914-11.914c6.578 0 11.914 5.336 11.914 11.914zM284.594 396.586c0 6.578-5.332 11.914-11.914 11.914-6.578 0-11.914-5.336-11.914-11.914 0-6.578 5.336-11.914 11.914-11.914 6.582 0 11.914 5.336 11.914 11.914zM332.25 396.586c0 6.578-5.336 11.914-11.914 11.914-6.578 0-11.914-5.336-11.914-11.914 0-6.578 5.336-11.914 11.914-11.914 6.578 0 11.914 5.336 11.914 11.914zM379.906 396.586c0 6.578-5.336 11.914-11.914 11.914-6.582 0-11.914-5.336-11.914-11.914 0-6.578 5.332-11.914 11.914-11.914 6.578 0 11.914 5.336 11.914 11.914zm0 0" fill="#ffffff" data-original="#ffffff" class=""/></g></g></svg>