<svg xmlns="http://www.w3.org/2000/svg" xmlns:xlink="http://www.w3.org/1999/xlink" xmlns:svgjs="http://svgjs.com/svgjs" version="1.1" width="512" height="512" x="0" y="0" viewBox="0 0 511.5 511.5" style="enable-background:new 0 0 512 512" xml:space="preserve" class=""><g><circle cx="255.5" cy="256" r="216" fill="#db00ac" data-original="#ebebeb" class=""/><path fill="#853eff" d="M346.315 352h-181.63c-33.792 0-61.185-27.394-61.185-61.185v-69.63c0-33.792 27.394-61.185 61.185-61.185h181.63c33.792 0 61.185 27.394 61.185 61.185v69.63c0 33.791-27.394 61.185-61.185 61.185z" data-original="#b2cc5d" class=""/><path d="M346.315 360h-181.63c-38.149 0-69.185-31.036-69.185-69.185v-69.63c0-38.149 31.036-69.185 69.185-69.185h181.63c38.149 0 69.185 31.036 69.185 69.185v69.63c0 38.149-31.036 69.185-69.185 69.185zm-181.63-192c-29.326 0-53.185 23.859-53.185 53.185v69.63c0 29.326 23.859 53.185 53.185 53.185h181.63c29.326 0 53.185-23.859 53.185-53.185v-69.63c0-29.326-23.859-53.185-53.185-53.185z" fill="#000000" data-original="#000000" class=""/><path d="M231.5 264a8 8 0 0 0 0-16h-40v-40h40a8 8 0 0 0 0-16h-48a8 8 0 0 0-8 8v112a8 8 0 0 0 8 8h48a8 8 0 0 0 0-16h-40v-40zM327.5 192a8 8 0 0 0-8 8v78.111l-40.845-81.689C274.896 188.9 263.5 191.59 263.5 200v112a8 8 0 0 0 16 0v-78.111l40.845 81.689c3.76 7.523 15.155 4.834 15.155-3.578V200a8 8 0 0 0-8-8z" fill="#000000" data-original="#000000" class=""/><path d="M255.75 511.5C114.405 511.5 0 397.115 0 255.75 0 114.405 114.385 0 255.75 0 397.095 0 511.5 114.385 511.5 255.75c0 141.345-114.385 255.75-255.75 255.75zm0-495.5C123.551 16 16 123.551 16 255.75S123.551 495.5 255.75 495.5 495.5 387.949 495.5 255.75 387.949 16 255.75 16z" fill="#000000" data-original="#000000" class=""/></g></svg>