<svg xmlns="http://www.w3.org/2000/svg" xmlns:xlink="http://www.w3.org/1999/xlink"  version="1.1" width="512" height="512" x="0" y="0" viewBox="0 0 512 512" style="enable-background:new 0 0 512 512" xml:space="preserve" class=""><g><linearGradient id="a" x1="0" x2="512" y1="-11338" y2="-11338" gradientTransform="matrix(1 0 0 -1 0 -11082)" gradientUnits="userSpaceOnUse"><stop stop-opacity="1" stop-color="#4110d6" offset="0.12355212355212356"/><stop stop-opacity="1" stop-color="#e80be8" offset="1"/></linearGradient><path fill="url(#a)" d="M512 256c0 141.387-114.613 256-256 256S0 397.387 0 256 114.613 0 256 0s256 114.613 256 256zm0 0" data-original="url(#a)"/><path fill="#ffffff" d="M256 454.258c-2.691 0-5.383-.727-7.773-2.172C115.285 371.55 56 303.44 56 231.246c0-30.5 10.477-59.105 29.496-80.539 20.004-22.547 47.707-34.96 78.004-34.96 33.172 0 62.254 14.796 84.105 42.792 3.16 4.05 5.95 8.106 8.395 12.004a143.456 143.456 0 0 1 8.395-12.004c21.851-27.996 50.933-42.793 84.105-42.793 30.297 0 58 12.418 78.004 34.961 19.02 21.434 29.496 50.035 29.496 80.54 0 72.194-59.285 140.304-192.227 220.839a15.017 15.017 0 0 1-7.773 2.172zm-92.5-308.512c-44.184 0-77.5 36.758-77.5 85.5 0 29.781 13.605 59.442 41.598 90.676 27.824 31.047 69.875 63.726 128.402 99.758 58.527-36.032 100.578-68.711 128.402-99.758C412.395 290.687 426 261.027 426 231.246c0-48.742-33.316-85.5-77.5-85.5-23.648 0-43.809 10.281-59.906 30.559-12.832 16.156-18.235 32.828-18.29 32.992-1.98 6.223-7.769 10.469-14.296 10.469h-.047c-6.547-.02-12.332-4.262-14.281-10.512-.04-.121-5.442-16.793-18.274-32.95-16.097-20.277-36.258-30.558-59.906-30.558zm0 0" data-original="#ffffff"/></g></svg>