<svg xmlns="http://www.w3.org/2000/svg" xmlns:xlink="http://www.w3.org/1999/xlink"  version="1.1" width="512" height="512" x="0" y="0" viewBox="0 0 512 512" style="enable-background:new 0 0 512 512" xml:space="preserve"><g><linearGradient id="SVGID_1_" gradientTransform="matrix(1 0 0 -1 0 514.5)" gradientUnits="userSpaceOnUse" x1="256.05" x2="256.05" y1="514.45" y2="2.45"><stop offset="0" stop-color="#f704fe"/><stop offset="1" stop-color="#24bce3"/></linearGradient><circle clip-rule="evenodd" cx="256" cy="256" fill="url(#SVGID_1_)" fill-rule="evenodd" r="256" data-original="url(#SVGID_1_)"/><g id="Layer_x0020_1"><path clip-rule="evenodd" d="m183.8 137.1c-5.7 0-11.1.8-16.1 2.2-33.3 9.1-55.2 42.8-53.1 81.9 1.4 27.3 20.1 59.9 52.4 92 27.1 26.8 61.2 50.4 89.1 61.7 27.9-11.3 62-34.9 89.1-61.7 32.4-32 51-64.7 52.4-92 2-39-19.6-72.6-52.6-81.8s-65.2 8.5-86 47.4c-.5 1-1.6 1.7-2.9 1.7-1.2 0-2.3-.7-2.9-1.7-19.4-36.7-46.3-49.7-69.4-49.7zm72.2 244.4c-.4 0-.8-.1-1.2-.2-28.9-11.4-64.4-35.8-92.4-63.6-33.5-33.2-52.8-67.3-54.3-96.3-1.2-21.4 4.2-41.3 15.4-57.6 10.4-15.3 25.5-26.2 42.3-30.9 16.6-4.6 33.7-2.9 49.4 4.9 15.8 7.9 29.8 21.8 40.8 40.6 11.1-18.8 25.3-32.8 41.2-40.7 15.8-7.8 32.9-9.4 49.5-4.8 36 10 59.5 46.4 57.3 88.3-1.5 28.9-20.8 63.1-54.3 96.3-28.1 27.8-63.5 52.2-92.4 63.6-.5.4-.8.4-1.3.4z" fill="#fffffe" fill-rule="evenodd" data-original="#fffffe"/></g></g></svg>