<svg xmlns="http://www.w3.org/2000/svg" xmlns:xlink="http://www.w3.org/1999/xlink"  version="1.1" width="512" height="512" x="0" y="0" viewBox="0 0 2667 2667" style="enable-background:new 0 0 512 512" xml:space="preserve" class=""><g><linearGradient id="a" x1="986.756" x2="1679.91" y1="2626.76" y2="39.898" gradientUnits="userSpaceOnUse"><stop stop-opacity="1" stop-color="#fb0be4" offset="0"/><stop stop-opacity="1" stop-color="#2d90ee" offset="0.806949806949807"/><stop stop-opacity="1" stop-color="#0bb6fb" offset="0.9884169884169884"/></linearGradient><path fill="url(#a)" d="M46 988C236 277 967-145 1678 46c711 190 1133 921 943 1632-191 711-922 1133-1633 943C277 2430-145 1699 46 988z" data-original="url(#a)"/><path fill="#ffffff" d="M1531 2080h-395c-11 0-19-8-19-19v-580c0-10 8-18 19-18h395c11 0 19 8 19 18v579c1 11-8 20-19 20zm-376-38h358v-541h-358z" data-original="#ffffff"/><path fill="#ffffff" d="M1932 2080H735c-11 0-19-8-19-19v-751H542c-8 0-14-5-17-12-2-7-1-16 4-21l791-791c8-8 20-8 27 0l791 791c5 5 6 13 4 21-3 7-10 12-18 12h-174v751c2 10-8 19-18 19zm-1179-38h1160v-752c0-10 8-18 19-18h148l-747-745-745 745h147c10 0 18 8 18 18z" data-original="#ffffff"/><path fill="#ffffff" d="M1333 1264c-124 0-225-102-225-226s101-225 225-225 226 101 226 225-100 226-226 226zm0-413c-103 0-187 85-187 189 0 102 84 187 187 187 104 0 189-85 189-187 0-104-85-189-189-189zM2051 2187H617c-10 0-18-8-18-19v-107c0-10 8-18 18-18h1435c10 0 18 8 18 18v107c0 11-9 19-19 19zm-1415-39h1396v-68H636zM1261 1790h-60c-10 0-18-8-18-19 0-10 8-18 18-18h60c10 0 18 8 18 18 0 11-8 19-18 19z" data-original="#ffffff"/></g></svg>