<svg xmlns="http://www.w3.org/2000/svg" xmlns:xlink="http://www.w3.org/1999/xlink" version="1.1" width="512" height="512" x="0" y="0" viewBox="0 0 512 512" style="enable-background:new 0 0 512 512" xml:space="preserve"><g><linearGradient id="a" x1="256.05" x2="256.05" y1="514.45" y2="2.45" gradientTransform="matrix(1 0 0 -1 0 514.5)" gradientUnits="userSpaceOnUse"><stop offset="0" stop-color="#f704fe"/><stop offset="1" stop-color="#24bce3"/></linearGradient><circle cx="256" cy="256" r="256" fill="url(#a)" fill-rule="evenodd" clip-rule="evenodd" data-original="url(#a)"/><g fill="#fffffe" fill-rule="evenodd" clip-rule="evenodd"><path d="M127.2 125.3c-7.2 0-12.9 5.8-12.9 12.9v235.5c0 7.1 5.8 12.9 12.9 12.9h257.4c7.2 0 12.9-5.8 12.9-12.9V138.2c0-7.2-5.8-12.9-12.9-12.9zm257.6 267.8H127.2c-10.7 0-19.4-8.7-19.4-19.4V138.2c0-10.7 8.7-19.4 19.4-19.4h257.4c10.7 0 19.4 8.7 19.4 19.4v235.5c.1 10.8-8.5 19.4-19.2 19.4z" fill="#fffffe" data-original="#fffffe"/><path d="M400.9 177.1H111.2c-1.8 0-3.2-1.4-3.2-3.2s1.4-3.2 3.2-3.2h289.7c1.8 0 3.2 1.4 3.2 3.2 0 1.7-1.5 3.2-3.2 3.2zM362.4 139.4c-4.7 0-8.5 3.8-8.5 8.5s3.8 8.5 8.5 8.5c4.6 0 8.5-3.8 8.5-8.5s-3.9-8.5-8.5-8.5zm0 23.5c-8.3 0-15-6.7-15-15s6.7-15 15-15 15 6.7 15 15-6.9 15-15 15zM318.5 139.4c-4.6 0-8.5 3.8-8.5 8.5s3.8 8.5 8.5 8.5 8.5-3.8 8.5-8.5-3.9-8.5-8.5-8.5zm0 23.5c-8.3 0-15-6.7-15-15s6.7-15 15-15 15 6.7 15 15-6.9 15-15 15zM274.6 139.4c-4.7 0-8.5 3.8-8.5 8.5s3.8 8.5 8.5 8.5 8.5-3.8 8.5-8.5-3.7-8.5-8.5-8.5zm0 23.5c-8.3 0-15-6.7-15-15s6.7-15 15-15 15 6.7 15 15-6.7 15-15 15zM309.5 348.4c.9 0 1.7.3 2.3 1l14.9 14.9 4-4-14.9-14.9c-.6-.6-1-1.4-1-2.3s.3-1.7 1-2.3l1.6-1.6-16-4.3 4.3 16 1.6-1.6c.5-.7 1.2-.9 2.2-.9zm17.1 23.6c-.9 0-1.7-.3-2.3-1l-15-15-3.2 3.2c-.8.8-2 1.2-3.1.8-1.1-.3-2-1.2-2.3-2.3l-7.2-26.8c-.3-1.1 0-2.3.8-3.1s2-1.2 3.1-.8l26.8 7.2c1.1.3 2 1.2 2.3 2.3s0 2.3-.8 3.1l-3.2 3.2 14.9 14.9c1.3 1.3 1.3 3.3 0 4.6l-8.5 8.5c-.5.8-1.4 1.2-2.3 1.2z" fill="#fffffe" data-original="#fffffe"/><path d="M302.4 354.6H194.8c-1.8 0-3.2-1.4-3.2-3.2v-39.6c0-1.8 1.4-3.2 3.2-3.2h122.6c1.8 0 3.2 1.4 3.2 3.2v24c0 1.8-1.4 3.2-3.2 3.2s-3.2-1.4-3.2-3.2V315H197.9v33.2h104.4c1.8 0 3.2 1.4 3.2 3.2s-1.4 3.2-3.1 3.2z" fill="#fffffe" data-original="#fffffe"/><path d="M277.8 328h-43.4c-1.8 0-3.2-1.4-3.2-3.2s1.4-3.2 3.2-3.2h43.4c1.8 0 3.2 1.4 3.2 3.2s-1.5 3.2-3.2 3.2zM277.8 341.6h-43.4c-1.8 0-3.2-1.4-3.2-3.2s1.4-3.2 3.2-3.2h43.4c1.8 0 3.2 1.4 3.2 3.2s-1.5 3.2-3.2 3.2zM136.1 292h93.7v-93.7h-93.7c.1-.1.1 93.7 0 93.7zm97 6.5H132.9c-1.8 0-3.2-1.4-3.2-3.2V195.1c0-1.8 1.4-3.2 3.2-3.2H233c1.8 0 3.2 1.4 3.2 3.2v100.1c.2 1.8-1.3 3.3-3.1 3.3z" fill="#fffffe" data-original="#fffffe"/><path d="M214.6 298.5c-1.8 0-3.2-1.4-3.2-3.2v-15.6c0-6.8-5.5-12.4-12.4-12.4h-32.2c-6.8 0-12.4 5.5-12.4 12.4v15.6c0 1.8-1.4 3.2-3.2 3.2s-3.2-1.4-3.2-3.2v-15.6c0-10.4 8.5-18.8 18.8-18.8H199c10.4 0 18.8 8.5 18.8 18.8v15.6c.1 1.7-1.4 3.2-3.2 3.2zM182.9 219.9c-7.7 0-14 6.3-14 14s6.3 14 14 14 14-6.3 14-14-6.1-14-14-14zm0 34.5c-11.3 0-20.5-9.2-20.5-20.5s9.2-20.5 20.5-20.5 20.5 9.2 20.5 20.5c0 11.5-9.2 20.5-20.5 20.5zM259.8 235.9h116.1V199H259.8zm119.3 6.5H256.5c-1.8 0-3.2-1.4-3.2-3.2v-43.3c0-1.8 1.4-3.2 3.2-3.2h122.6c1.8 0 3.2 1.4 3.2 3.2v43.3c.1 1.7-1.4 3.2-3.2 3.2z" fill="#fffffe" data-original="#fffffe"/><path d="M282.6 231.9c-1.8 0-3.2-1.4-3.2-3.2v-22.3c0-1.8 1.4-3.2 3.2-3.2s3.2 1.4 3.2 3.2v22.3c.1 1.7-1.3 3.2-3.2 3.2z" fill="#fffffe" data-original="#fffffe"/><path d="M273 226.2c-1.1 0-2.2-.5-2.8-1.6-.9-1.6-.3-3.5 1.2-4.4l19.3-11.1c1.6-.9 3.5-.3 4.4 1.2.9 1.6.3 3.5-1.2 4.4l-19.3 11.1c-.5.3-1.1.4-1.6.4z" fill="#fffffe" data-original="#fffffe"/><path d="M292.2 226.2c-.5 0-1.1-.1-1.6-.4l-19.3-11.1c-1.6-.9-2-2.9-1.2-4.4.9-1.6 2.9-2 4.4-1.2l19.3 11.1c1.6.9 2 2.9 1.2 4.4-.5 1.2-1.6 1.6-2.8 1.6zM317.9 231.9c-1.8 0-3.2-1.4-3.2-3.2v-22.3c0-1.8 1.4-3.2 3.2-3.2s3.2 1.4 3.2 3.2v22.3c-.1 1.7-1.6 3.2-3.2 3.2z" fill="#fffffe" data-original="#fffffe"/><path d="M308.1 226.2c-1.1 0-2.2-.5-2.8-1.6-.9-1.6-.3-3.5 1.2-4.4l19.3-11.1c1.6-.9 3.5-.3 4.4 1.2.9 1.6.3 3.5-1.2 4.4l-19.3 11.1c-.5.3-.9.4-1.6.4z" fill="#fffffe" data-original="#fffffe"/><path d="M327.5 226.2c-.5 0-1.1-.1-1.6-.4l-19.3-11.1c-1.6-.9-2-2.9-1.2-4.4.9-1.6 2.9-2 4.4-1.2l19.3 11.1c1.6.9 2 2.9 1.2 4.4-.7 1.2-1.8 1.6-2.8 1.6zM353 231.9c-1.8 0-3.2-1.4-3.2-3.2v-22.3c0-1.8 1.4-3.2 3.2-3.2s3.2 1.4 3.2 3.2v22.3c0 1.7-1.4 3.2-3.2 3.2z" fill="#fffffe" data-original="#fffffe"/><path d="M343.4 226.2c-1.1 0-2.2-.5-2.8-1.6-.9-1.6-.3-3.5 1.2-4.4l19.3-11.1c1.6-.9 3.5-.3 4.4 1.2.9 1.6.3 3.5-1.2 4.4L345 225.8c-.5.3-1.1.4-1.6.4z" fill="#fffffe" data-original="#fffffe"/><path d="M362.5 226.2c-.5 0-1.1-.1-1.6-.4l-19.3-11.1c-1.6-.9-2-2.9-1.2-4.4.9-1.6 2.9-2 4.4-1.2l19.4 11.1c1.6.9 2 2.9 1.2 4.4-.6 1.2-1.8 1.6-2.9 1.6zM259.8 292h116.1v-36.9H259.8zm119.3 6.5H256.5c-1.8 0-3.2-1.4-3.2-3.2V252c0-1.8 1.4-3.2 3.2-3.2h122.6c1.8 0 3.2 1.4 3.2 3.2v43.3c.1 1.7-1.4 3.2-3.2 3.2z" fill="#fffffe" data-original="#fffffe"/><path d="M282.6 288c-1.8 0-3.2-1.4-3.2-3.2v-22.3c0-1.8 1.4-3.2 3.2-3.2s3.2 1.4 3.2 3.2v22.3c.1 1.7-1.3 3.2-3.2 3.2z" fill="#fffffe" data-original="#fffffe"/><path d="M273 282.4c-1.1 0-2.2-.5-2.8-1.6-.9-1.6-.3-3.5 1.2-4.4l19.3-11.1c1.6-.9 3.5-.3 4.4 1.2.9 1.6.3 3.5-1.2 4.4L274.6 282c-.5.1-1.1.4-1.6.4z" fill="#fffffe" data-original="#fffffe"/><path d="M292.2 282.4c-.5 0-1.1-.1-1.6-.4l-19.3-11.1c-1.6-.9-2-2.9-1.2-4.4.9-1.6 2.9-2 4.4-1.2l19.3 11.1c1.6.9 2 2.9 1.2 4.4-.5 1-1.6 1.6-2.8 1.6zM317.9 288c-1.8 0-3.2-1.4-3.2-3.2v-22.3c0-1.8 1.4-3.2 3.2-3.2s3.2 1.4 3.2 3.2v22.3c-.1 1.7-1.6 3.2-3.2 3.2z" fill="#fffffe" data-original="#fffffe"/><path d="M308.1 282.4c-1.1 0-2.2-.5-2.8-1.6-.9-1.6-.3-3.5 1.2-4.4l19.3-11.1c1.6-.9 3.5-.3 4.4 1.2.9 1.6.3 3.5-1.2 4.4L309.8 282c-.6.1-1 .4-1.7.4z" fill="#fffffe" data-original="#fffffe"/><path d="M327.5 282.4c-.5 0-1.1-.1-1.6-.4l-19.3-11.1c-1.6-.9-2-2.9-1.2-4.4.9-1.6 2.9-2 4.4-1.2l19.3 11.1c1.6.9 2 2.9 1.2 4.4-.7 1-1.8 1.6-2.8 1.6zM353 288c-1.8 0-3.2-1.4-3.2-3.2v-22.3c0-1.8 1.4-3.2 3.2-3.2s3.2 1.4 3.2 3.2v22.3c0 1.7-1.4 3.2-3.2 3.2z" fill="#fffffe" data-original="#fffffe"/><path d="M343.4 282.4c-1.1 0-2.2-.5-2.8-1.6-.9-1.6-.3-3.5 1.2-4.4l19.3-11.1c1.6-.9 3.5-.3 4.4 1.2.9 1.6.3 3.5-1.2 4.4L345 282c-.5.1-1.1.4-1.6.4z" fill="#fffffe" data-original="#fffffe"/><path d="M362.5 282.4c-.5 0-1.1-.1-1.6-.4l-19.3-11.1c-1.6-.9-2-2.9-1.2-4.4.9-1.6 2.9-2 4.4-1.2l19.3 11.1c1.6.9 2 2.9 1.2 4.4-.5 1-1.7 1.6-2.8 1.6z" fill="#fffffe" data-original="#fffffe"/></g></g></svg>