<svg xmlns="http://www.w3.org/2000/svg" xmlns:xlink="http://www.w3.org/1999/xlink"   version="1.1" width="512" height="512" x="0" y="0" viewBox="0 0 512 512" style="enable-background:new 0 0 512 512" xml:space="preserve"><g><linearGradient id="SVGID_1_" gradientTransform="matrix(1 0 0 -1 0 514.5)" gradientUnits="userSpaceOnUse" x1="256.05" x2="256.05" y1="514.45" y2="2.45"><stop offset="0" stop-color="#f704fe"/><stop offset="1" stop-color="#24bce3"/></linearGradient><circle clip-rule="evenodd" cx="256" cy="256" fill="url(#SVGID_1_)" fill-rule="evenodd" r="256" data-original="url(#SVGID_1_)"/><g id="Layer_x0020_1"><g id="_252345264" clip-rule="evenodd" fill="#fffffe" fill-rule="evenodd"><path id="_252344520" d="m240.4 272.2h96.2c1 0 2 .5 2.6 1.2.6.8.8 1.8.6 2.8l-6.1 25 61.6-45.3-61.6-45.3 6.1 25c.2 1 0 2-.6 2.8s-1.6 1.2-2.6 1.2h-96.2zm88.1 40.3c-.6 0-1.2-.2-1.8-.5-1.2-.8-1.7-2.1-1.4-3.5l7.2-29.6h-95.4c-1.8 0-3.3-1.4-3.3-3.3v-39c0-1.8 1.4-3.3 3.3-3.3h95.3l-7.2-29.6c-.3-1.3.2-2.7 1.4-3.5s2.7-.8 3.8.1l72.4 53.2c.8.6 1.3 1.6 1.3 2.6s-.5 2-1.3 2.6l-72.4 53.2c-.5.3-1.2.6-1.9.6z" fill="#fffffe" data-original="#fffffe"/><path id="_252344952" d="m363.2 385.4h-252c-1.8 0-3.3-1.4-3.3-3.3v-252.2c0-1.8 1.4-3.3 3.3-3.3h252.2c1.8 0 3.3 1.4 3.3 3.3v98.4c0 1.8-1.4 3.3-3.3 3.3-1.8 0-3.3-1.4-3.3-3.3v-95.2h-245.8v245.6h245.7v-95.1c0-1.8 1.4-3.3 3.3-3.3 1.8 0 3.3 1.4 3.3 3.3v98.4c-.1 1.9-1.5 3.4-3.4 3.4z" fill="#fffffe" data-original="#fffffe"/></g></g></g></svg>