<svg xmlns="http://www.w3.org/2000/svg" xmlns:xlink="http://www.w3.org/1999/xlink" version="1.1" width="512" height="512" x="0" y="0" viewBox="0 0 512 512" style="enable-background:new 0 0 512 512" xml:space="preserve"><g><linearGradient id="a" x1="256.05" x2="256.05" y1="512.34" y2=".34" gradientTransform="matrix(1 0 0 -1 0 512.39)" gradientUnits="userSpaceOnUse"><stop offset="0" stop-color="#f704fe"/><stop offset="1" stop-color="#24bce3"/></linearGradient><circle cx="256" cy="256" r="256" fill="url(#a)" fill-rule="evenodd" clip-rule="evenodd" data-original="url(#a)"/><path fill="#fffffe" fill-rule="evenodd" d="M179.6 352.1c-25.3 0-46.8 10.4-46.8 22.7 0 12.4 21.4 22.7 46.8 22.7 14.7 0 46.8-5.7 46.8-22.7V213.6c0-1.5 1-2.8 2.5-3.1l122-29.8c1-.2 2 0 2.7.6.8.6 1.2 1.6 1.2 2.5v122.4c0 1-.5 1.9-1.2 2.5-.8.6-1.8.8-2.7.6-5.9-1.2-12-1.9-18.4-1.9-25.3 0-46.8 10.4-46.8 22.7 0 12.4 21.4 22.7 46.8 22.7 14.7 0 46.8-5.7 46.8-22.7v-215l-177.4 43.3v192.3c0 1-.4 1.9-1.2 2.5s-1.8.8-2.7.6c-5.9-.9-12.1-1.7-18.4-1.7zm0 52c-29.8 0-53.2-12.8-53.2-29.2s23.4-29.2 53.2-29.2c5.5 0 10.8.4 15.9 1.3V156c0-1.5 1-2.8 2.5-3.1l183.8-45c1-.2 2 0 2.8.6s1.2 1.6 1.2 2.5v219.1c0 23.8-39.5 29.2-53.2 29.2-29.8 0-53.2-12.8-53.2-29.2s23.4-29.2 53.2-29.2c5.5 0 10.8.4 15.9 1.3V187.8L233 216.1v158.8c-.1 23.9-39.6 29.2-53.4 29.2z" clip-rule="evenodd" data-original="#fffffe"/></g></svg>