<svg xmlns="http://www.w3.org/2000/svg" xmlns:xlink="http://www.w3.org/1999/xlink"  version="1.1" width="512" height="512" x="0" y="0" viewBox="0 0 512 512" style="enable-background:new 0 0 512 512" xml:space="preserve"><g><linearGradient id="GradientFill_1" gradientUnits="userSpaceOnUse" x1="255.998" x2="255.999" y1="512.003"><stop stop-opacity="1" stop-color="#f600fb" offset="0"/><stop stop-opacity="1" stop-color="#530ad8" offset="0.8764478764478765"/></linearGradient><path d="m204.589 133.193a37.4 37.4 0 0 0 -37.36 37.36v170.9a37.36 37.36 0 0 0 74.72 0v-170.9a37.405 37.405 0 0 0 -37.36-37.36zm102.82 0a37.406 37.406 0 0 0 -37.361 37.36v170.9a37.361 37.361 0 0 0 74.721 0v-170.9a37.406 37.406 0 0 0 -37.36-37.36zm-51.409 362.807c-132.34 0-240-107.66-240-240s107.66-240 240-240 240 107.66 240 240-107.662 240-240 240zm0-496c141.16 0 256 114.845 256 256s-114.84 256-256 256-256-114.837-256-256 114.838-256 256-256z" fill="url(#GradientFill_1)" fill-rule="evenodd" data-original="url(#GradientFill_1)"/></g></svg>