<svg xmlns="http://www.w3.org/2000/svg" xmlns:xlink="http://www.w3.org/1999/xlink"  version="1.1" width="512" height="512" x="0" y="0" viewBox="0 0 512 512" style="enable-background:new 0 0 512 512" xml:space="preserve" class=""><g><linearGradient id="a" x1="0" x2="512" y1="-24106" y2="-24106" gradientTransform="matrix(1 0 0 -1 0 -23850)" gradientUnits="userSpaceOnUse"><stop stop-opacity="1" stop-color="#2a0af4" offset="0"/><stop stop-opacity="1" stop-color="#f609f6" offset="1"/></linearGradient><path fill="url(#a)" d="M512 256c0 141.387-114.613 256-256 256S0 397.387 0 256 114.613 0 256 0s256 114.613 256 256zm0 0" data-original="url(#a)"/><path fill="#ffffff" d="M438.07 343.563c4.293-5.829 3.735-14.16-1.332-19.352l-53.23-54.582c-5.781-5.934-15.281-6.05-21.211-.266-5.93 5.785-6.05 15.282-.266 21.211l28.387 29.11h-69.082L262.69 256l58.649-63.684h69.082l-28.387 29.11c-5.785 5.93-5.668 15.426.266 21.21a14.956 14.956 0 0 0 10.472 4.262c3.899 0 7.801-1.515 10.739-4.527l53.226-54.582c5.602-5.734 5.602-15.21 0-20.945l-53.226-54.578c-5.785-5.934-15.282-6.051-21.211-.266-5.934 5.781-6.051 15.277-.266 21.21l28.387 29.106h-75.66a14.992 14.992 0 0 0-11.035 4.84l-61.43 66.7-62.238-67.583a15.003 15.003 0 0 0-11.036-4.835H86c-8.285 0-15 6.714-15 15 0 8.28 6.715 15 15 15h76.445L221.906 256l-59.46 64.563H86c-8.285 0-15 6.714-15 15s6.715 15 15 15h83.023c4.192 0 8.196-1.754 11.036-4.84l62.238-67.582 61.43 66.703a15.004 15.004 0 0 0 11.03 4.84h75.661l-28.387 29.105c-5.781 5.93-5.664 15.43.27 21.211a14.94 14.94 0 0 0 10.469 4.262c3.902 0 7.8-1.516 10.742-4.528l53.226-54.578c.5-.515.95-1.078 1.375-1.652-.008.012-.14.191-.043.058.149-.203-.136.184 0 0zm0 0" data-original="#ffffff"/></g></svg>